<svg xmlns="http://www.w3.org/2000/svg" width="32" height="32" fill="none"><path fill="#000" fill-rule="evenodd" d="M9.01 7.51a1.5 1.5 0 1 1 0 3 1.5 1.5 0 0 1 0-3" clip-rule="evenodd"/><path fill="#000" d="M6.01 17.51a1.5 1.5 0 1 0 0-3 1.5 1.5 0 0 0 0 3M9.01 21.51a1.5 1.5 0 1 0 0 3 1.5 1.5 0 0 0 0-3M16.01 24.51a1.5 1.5 0 1 0 0 3 1.5 1.5 0 0 0 0-3M21.51 23.01a1.5 1.5 0 1 0 3 0 1.5 1.5 0 0 0-3 0M24.51 16.01a1.5 1.5 0 1 0 3 0 1.5 1.5 0 0 0-3 0M16.01 4.51a1.5 1.5 0 1 0 0 3 1.5 1.5 0 0 0 0-3M23.01 10.51a1.5 1.5 0 1 0 0-3 1.5 1.5 0 0 0 0 3"/></svg>