<svg xmlns="http://www.w3.org/2000/svg" width="32" height="32" fill="none"><path fill="#000" fill-rule="evenodd" d="M16.01 28.012c-6.627 0-12-5.373-12-12 0-6.628 5.373-12 12-12 6.628 0 12 5.372 12 12 0 6.627-5.372 12-12 12m0-22c-5.522 0-10 4.477-10 10s4.478 10 10 10 10-4.477 10-10-4.477-10-10-10" clip-rule="evenodd"/><path fill="#000" fill-rule="evenodd" d="M23.503 16.5c0-1.577-3.035-3.795-6.528-4.486-.4-.079-.579.166-.409.539q.111.217.188.447c-2.291 0-4.179 1.449-4.924 2.118a.52.52 0 0 1-.674.001A4.1 4.1 0 0 0 8.786 14a.248.248 0 0 0-.286.28c.139 1.135 1.005 2.221 1.005 2.221S8.64 17.587 8.5 18.723a.248.248 0 0 0 .286.28 4.1 4.1 0 0 0 2.37-1.128.515.515 0 0 1 .674.001c.745.671 2.627 2.124 5.923 2.124s5.75-2.44 5.75-3.5m-3.75-1.5a.75.75 0 1 0 .75.75.75.75 0 0 0-.75-.75" clip-rule="evenodd"/></svg>