<svg xmlns="http://www.w3.org/2000/svg" width="32" height="32" fill="none"><path fill="#000" fill-rule="evenodd" d="m6.964 11.893-2.718-1.586a.506.506 0 0 1-.184-.688l.502-.88.003-.004a.496.496 0 0 1 .678-.179l2.738 1.599a.5.5 0 0 0 .643-.126 9.48 9.48 0 0 1 5.94-3.413.5.5 0 0 0 .433-.492V3a.5.5 0 0 1 .5-.5h.999a.5.5 0 0 1 .5.5v3.124a.5.5 0 0 0 .433.492 9.48 9.48 0 0 1 5.939 3.413.5.5 0 0 0 .643.126l2.735-1.597.004-.003a.5.5 0 0 1 .681.186l.501.878a.506.506 0 0 1-.184.688l-2.718 1.586a.5.5 0 0 0-.206.622 9.43 9.43 0 0 1 0 6.97.5.5 0 0 0 .207.622l2.715 1.585c.24.14.323.45.185.692l-.5.875-.002.004a.5.5 0 0 1-.683.18l-2.735-1.598a.5.5 0 0 0-.643.126 9.48 9.48 0 0 1-5.94 3.413.5.5 0 0 0-.432.492V29a.5.5 0 0 1-.5.5h-1a.5.5 0 0 1-.5-.5v-3.124a.5.5 0 0 0-.432-.492 9.48 9.48 0 0 1-5.94-3.413.5.5 0 0 0-.643-.126l-2.735 1.597-.004.002a.5.5 0 0 1-.68-.186l-.5-.875a.51.51 0 0 1 .184-.691l2.716-1.585a.5.5 0 0 0 .206-.622 9.43 9.43 0 0 1 0-6.97.5.5 0 0 0-.206-.622m5.963 6.558a.5.5 0 0 1-.207.63l-2.243 1.309a.372.372 0 0 0-.098.564 7.5 7.5 0 0 0 4.182 2.402.372.372 0 0 0 .437-.37V20.2a.5.5 0 0 1 .5-.5h1a.5.5 0 0 1 .5.5v2.787a.372.372 0 0 0 .438.37 7.5 7.5 0 0 0 4.182-2.403.372.372 0 0 0-.098-.564l-2.073-1.21-.33-.192a.5.5 0 0 1-.18-.682l.51-.879a.5.5 0 0 1 .684-.181l2.407 1.405q.03.017.061.03a.374.374 0 0 0 .48-.22 7.5 7.5 0 0 0 0-4.92.374.374 0 0 0-.541-.191l-2.353 1.373a.5.5 0 0 1-.71-.234l-.406-.94a.5.5 0 0 1 .207-.63l2.244-1.309a.372.372 0 0 0 .098-.564 7.5 7.5 0 0 0-4.183-2.402.372.372 0 0 0-.437.37V11.8a.5.5 0 0 1-.5.5h-1a.5.5 0 0 1-.5-.5V9.013a.372.372 0 0 0-.437-.37 7.5 7.5 0 0 0-4.182 2.403.372.372 0 0 0 .098.564l2.401 1.402a.5.5 0 0 1 .18.682l-.508.88a.5.5 0 0 1-.685.18L9.458 13.35a.372.372 0 0 0-.542.191 7.5 7.5 0 0 0 0 4.92.374.374 0 0 0 .541.191l2.354-1.373a.5.5 0 0 1 .71.233z" clip-rule="evenodd"/></svg>