<svg xmlns="http://www.w3.org/2000/svg" width="32" height="32" fill="none"><path fill="#000" fill-rule="evenodd" d="M16.01 28.012c-6.627 0-12-5.373-12-12 0-6.628 5.373-12 12-12 6.628 0 12 5.372 12 12 0 6.627-5.372 12-12 12m0-22c-5.522 0-10 4.477-10 10s4.478 10 10 10 10-4.477 10-10-4.477-10-10-10" clip-rule="evenodd"/><path fill="#000" fill-rule="evenodd" d="M27.466 16.884a1 1 0 0 1-1.351-.417C25.587 15.47 25.285 15 24.798 15s-.79.47-1.316 1.467C22.918 17.536 22.145 19 20.398 19s-2.52-1.464-3.084-2.533C16.787 15.47 16.485 15 15.998 15s-.79.47-1.316 1.467C14.117 17.536 13.344 19 11.597 19s-2.52-1.464-3.084-2.533C7.986 15.47 7.685 15 7.197 15s-.79.47-1.316 1.466a1 1 0 0 1-1.768-.933C4.677 14.463 5.45 13 7.197 13s2.52 1.464 3.085 2.533c.526.997.828 1.467 1.315 1.467.488 0 .79-.47 1.316-1.467.565-1.07 1.338-2.533 3.085-2.533s2.52 1.464 3.084 2.533c.527.997.828 1.467 1.316 1.467s.79-.47 1.316-1.467c.565-1.07 1.338-2.533 3.085-2.533s2.52 1.464 3.084 2.533a1 1 0 0 1-.417 1.35" clip-rule="evenodd"/></svg>