<svg xmlns="http://www.w3.org/2000/svg" width="32" height="32" fill="none"><path fill="#000" fill-rule="evenodd" d="M16 22.5a1.5 1.5 0 1 0 3 0 1.5 1.5 0 0 0-3 0m7.5-9.5a1.5 1.5 0 1 0 0 3 1.5 1.5 0 0 0 0-3M12 22a3 3 0 1 1 0-6 3 3 0 0 1 0 6m-2.5-7a1.5 1.5 0 1 1 0-3 1.5 1.5 0 0 1 0 3" clip-rule="evenodd"/><path fill="#000" d="M17.5 9a1.5 1.5 0 1 1 3 0 1.5 1.5 0 0 1-3 0M12 11a2 2 0 1 0 4 0 2 2 0 0 0-4 0M19.5 19.5a2 2 0 1 0 4 0 2 2 0 0 0-4 0M18 13a1.5 1.5 0 1 1 3 0 1.5 1.5 0 0 1-3 0M15.5 17a1.5 1.5 0 1 1 3 0 1.5 1.5 0 0 1-3 0"/><path fill="#000" fill-rule="evenodd" d="M16.01 28.012c-6.627 0-12-5.373-12-12 0-6.628 5.373-12 12-12 6.628 0 12 5.372 12 12 0 6.627-5.372 12-12 12m0-22c-5.522 0-10 4.477-10 10s4.478 10 10 10 10-4.477 10-10-4.477-10-10-10" clip-rule="evenodd"/></svg>