<svg width="64" height="64" viewBox="0 0 64 64" fill="none" xmlns="http://www.w3.org/2000/svg">
<path d="M27.0632 11.4532C29.5036 7.82042 34.992 7.94153 37.2292 11.8165L58.0134 47.8165C60.3228 51.8165 57.4359 56.8165 52.8171 56.8165H11.2488C6.62997 56.8165 3.74309 51.8165 6.05249 47.8165L26.8367 11.8165L27.0632 11.4532Z" fill="#FAFAFA" stroke="#FF4921" stroke-width="4"/>
<path d="M30.0104 18.8166H33.9893C34.0075 18.8164 34.0257 18.8167 34.0438 18.8175C34.6011 18.841 35.0339 19.3119 35.0103 19.8692L34.0956 36.8692C34.0608 37.406 33.6125 37.822 33.0745 37.8166H30.9252C30.3873 37.8221 29.9389 37.406 29.9042 36.8692L28.9895 19.8692C28.9888 19.851 28.9885 19.8329 28.9887 19.8147C28.9952 19.2569 29.4527 18.8101 30.0104 18.8166Z" fill="#FF4921"/>
<path d="M27.3071 39.56C27.223 39.3329 27.4787 39.1309 27.6802 39.2652L31.7254 41.9613C31.8155 42.0214 31.934 42.0166 32.019 41.9494L35.8332 38.9354C36.0232 38.7852 36.2943 38.966 36.2289 39.1991L34.9147 43.8794C34.8855 43.9837 34.9267 44.095 35.0168 44.155L39.0619 46.8511C39.2634 46.9854 39.1754 47.2992 38.9334 47.309L34.0761 47.5054C33.9678 47.5098 33.8748 47.5834 33.8455 47.6877L32.5314 52.368C32.4659 52.6011 32.1403 52.6143 32.0562 52.3872L30.3683 47.8283C30.3307 47.7267 30.232 47.6609 30.1238 47.6653L25.2665 47.8618C25.0245 47.8716 24.9114 47.566 25.1014 47.4159L28.9155 44.4018C29.0005 44.3347 29.0326 44.2205 28.995 44.1189L27.3071 39.56Z" fill="#FF4921"/>
</svg>
