<svg width="32" height="32" viewBox="0 0 32 32" fill="none" xmlns="http://www.w3.org/2000/svg">
<path fill-rule="evenodd" clip-rule="evenodd" d="M9.01031 7.51041C9.83874 7.51041 10.5103 8.18198 10.5103 9.01041C10.5103 9.83883 9.83874 10.5104 9.01031 10.5104C8.18189 10.5104 7.51031 9.83883 7.51031 9.01041C7.51031 8.18198 8.18189 7.51041 9.01031 7.51041Z" fill="black"/>
<path d="M6.01031 17.5101C6.83874 17.5101 7.51031 16.8386 7.51031 16.0101C7.51036 15.1817 6.83874 14.5102 6.01031 14.5101C5.18189 14.5101 4.51031 15.1817 4.51031 16.0101C4.51031 16.8386 5.18189 17.5101 6.01031 17.5101Z" fill="black"/>
<path d="M9.01031 21.5104C8.18189 21.5104 7.51031 22.182 7.51031 23.0104C7.51036 23.8388 8.18189 24.5104 9.01031 24.5104C9.83874 24.5104 10.5103 23.8388 10.5103 23.0104C10.5103 22.182 9.83874 21.5104 9.01031 21.5104Z" fill="black"/>
<path d="M16.0103 24.5101C15.1819 24.5101 14.5103 25.1817 14.5103 26.0101C14.5105 26.8385 15.182 27.5101 16.0103 27.5101C16.8387 27.5101 17.5103 26.8386 17.5103 26.0101C17.5103 25.1817 16.8387 24.5101 16.0103 24.5101Z" fill="black"/>
<path d="M21.5103 23.0104C21.5103 23.8388 22.1819 24.5104 23.0103 24.5104C23.8387 24.5104 24.5103 23.8388 24.5103 23.0104C24.5103 22.182 23.8387 21.5104 23.0103 21.5104C22.1819 21.5104 21.5103 22.182 21.5103 23.0104Z" fill="black"/>
<path d="M24.5103 16.0104C24.5103 16.8388 25.1819 17.5104 26.0103 17.5104C26.8387 17.5104 27.5103 16.8388 27.5103 16.0104C27.5103 15.182 26.8387 14.5104 26.0103 14.5104C25.1819 14.5104 24.5103 15.182 24.5103 16.0104Z" fill="black"/>
<path d="M16.0103 4.51041C15.1819 4.51041 14.5103 5.18198 14.5103 6.01041C14.5103 6.83883 15.1819 7.51041 16.0103 7.51041C16.8387 7.51041 17.5103 6.83883 17.5103 6.01041C17.5103 5.18198 16.8387 4.51041 16.0103 4.51041Z" fill="black"/>
<path d="M23.0103 10.5104C23.8387 10.5104 24.5103 9.83883 24.5103 9.01041C24.5103 8.18198 23.8387 7.51041 23.0103 7.51041C22.1819 7.51041 21.5103 8.18198 21.5103 9.01041C21.5103 9.83883 22.1819 10.5104 23.0103 10.5104Z" fill="black"/>
</svg>
