<svg width="32" height="32" viewBox="0 0 32 32" fill="none" xmlns="http://www.w3.org/2000/svg">
<path fill-rule="evenodd" clip-rule="evenodd" d="M16 4C22.6272 4.00017 27.9999 9.37276 28 16C27.9999 22.6272 22.6272 27.9998 16 28C15.9981 28 15.9962 27.9993 15.9943 27.9991C15.9936 27.999 15.9928 27.9992 15.9921 27.9995C15.9915 27.9998 15.9909 28 15.9902 28C15.8635 28.0053 15.7379 28.0012 15.6133 27.9932C9.16491 27.789 4.00006 22.4979 4 16C4.00007 9.37266 9.37264 4 16 4ZM12.9902 20.998C11.4159 21.0095 9.87895 21.4315 8.52601 22.2115C8.3948 22.2872 8.36589 22.4626 8.46554 22.5766C9.48157 23.7394 10.7633 24.6636 12.215 25.2575C12.3648 25.3188 12.5292 25.2156 12.5977 25.069C12.6862 24.8794 12.8351 24.7159 13.0342 24.6104C13.0612 24.596 13.089 24.5831 13.1172 24.5713C13.5919 24.3715 14.1411 24.5695 14.3789 25.0264C14.6174 25.5674 15.1247 25.9294 15.6982 25.9922C15.7901 25.9949 15.8822 25.9988 15.9746 25.999C15.9787 25.9988 15.9832 25.9993 15.9873 25.999C17.0917 26.0018 17.9892 25.1093 17.9922 24.0049C17.9922 23.9924 17.9924 23.9793 17.9922 23.9668C17.97 22.1347 16.0577 20.998 12.9902 20.998ZM12.9902 16.998C10.7498 17.0145 8.54107 17.4924 6.50066 18.3976C6.39024 18.4466 6.33194 18.5686 6.36434 18.6849C6.536 19.3014 6.76614 19.8935 7.04688 20.4558C7.11167 20.5856 7.27429 20.6285 7.39898 20.5545C9.08558 19.5523 11.0145 19.012 12.9902 18.998C18.1588 18.998 19.9932 21.6919 19.9932 23.999C19.9929 24.2481 19.9692 24.4916 19.925 24.7279C19.8856 24.9378 20.0933 25.1257 20.2863 25.034C22.5522 23.9573 24.3492 22.0551 25.2865 19.7145C25.3761 19.4907 25.0984 19.2695 24.87 19.3464C24.5057 19.4691 24.0872 19.5209 23.6084 19.4893C20.0176 19.33 17.1543 16.998 12.9902 16.998ZM16 6C10.4772 6 6.00007 10.4772 6 16C6 16.0229 6.0001 16.0457 6.00028 16.0685C6.00169 16.243 6.18105 16.3565 6.34305 16.2918C7.3295 15.8979 8.34776 15.5924 9.38574 15.377C9.90589 15.2482 10.4294 15.133 10.9561 15.0332C14.1965 14.3471 16.316 13.7795 16.2949 12.1836C16.2865 11.362 15.6136 10.7029 14.792 10.7109C14.7719 10.7111 14.7515 10.7119 14.7314 10.7129C14.2675 10.7086 13.8341 10.9443 13.5869 11.3369C13.2972 11.7167 12.7803 11.8283 12.3633 11.6143L12.2744 11.5635C11.8082 11.2795 11.6604 10.6713 11.9443 10.2051C11.9572 10.184 11.971 10.1636 11.9854 10.1436C12.6303 9.20557 13.7122 8.66504 14.8496 8.71191C16.7548 8.75289 18.2813 10.3015 18.2949 12.207C18.2951 13.5012 17.7349 14.4078 16.8593 15.0741C16.6809 15.2099 16.7281 15.5107 16.9441 15.5706C19.5385 16.29 21.6484 17.4384 23.8262 17.4961C24.8511 17.552 25.7624 16.8477 25.9668 15.8418C25.9786 15.7735 25.9865 15.7053 25.9912 15.6377C25.9852 15.4686 25.9743 15.3007 25.96 15.1338C25.8109 14.3341 25.1825 13.6732 24.334 13.5264C24.2221 13.507 24.1086 13.4972 23.9951 13.4971C23.6694 13.4776 23.3482 13.5853 23.1006 13.7979C22.7188 14.1021 22.1772 14.08 21.8223 13.7588L21.748 13.6846C21.3752 13.2839 21.3982 12.6561 21.7988 12.2832C21.8124 12.2706 21.8265 12.258 21.8408 12.2461C22.4436 11.7424 23.2099 11.4757 23.9951 11.4961C24.1468 11.4963 24.2918 11.5051 24.4303 11.5221C24.6493 11.5488 24.8402 11.3185 24.7325 11.1259C23.022 8.06793 19.7528 6.00015 16 6Z" fill="black"/>
</svg>
