<svg width="32" height="32" viewBox="0 0 32 32" fill="none" xmlns="http://www.w3.org/2000/svg">
<path fill-rule="evenodd" clip-rule="evenodd" d="M23 20.5V20.5C22.4477 20.5 22 20.0523 22 19.5V19.5V11.4225L9.69998 23.7225V23.7225C9.31229 24.1117 8.68245 24.113 8.2932 23.7253C7.90394 23.3376 7.90268 22.7078 8.29037 22.3185C8.29326 22.3156 8.29616 22.3127 8.29908 22.3099L20.609 10H12.5H12.5C11.9477 10 11.5 9.5523 11.5 9.00002C11.5 8.44773 11.9477 8.00002 12.5 8.00002H23V8.00002C23.5523 8.00002 24 8.44773 24 9.00002V19.5C24 20.0523 23.5523 20.5 23 20.5L23 20.5Z" fill="black"/>
</svg>
