<svg width="32" height="32" viewBox="0 0 32 32" fill="none" xmlns="http://www.w3.org/2000/svg">
<path fill-rule="evenodd" clip-rule="evenodd" d="M19.2137 24.2284V24.2284C18.8231 24.6194 18.1894 24.6198 17.7983 24.2292C17.4073 23.8386 17.4069 23.2049 17.7975 22.8139L23.608 17.0104H6.00488V17.0104C5.4526 17.0104 5.00488 16.5627 5.00488 16.0104C5.00488 15.4581 5.4526 15.0104 6.00488 15.0104H23.591L17.7975 9.22386V9.22386C17.4069 8.83279 17.4073 8.19912 17.7983 7.80851C18.1894 7.41791 18.8231 7.41829 19.2137 7.80936L26.7249 15.3116V15.3116C27.1155 15.7014 27.1162 16.3341 26.7264 16.7247C26.7259 16.7252 26.7254 16.7257 26.7249 16.7262L19.2137 24.2284Z" fill="black"/>
</svg>
