<svg width="32" height="32" viewBox="0 0 32 32" fill="none" xmlns="http://www.w3.org/2000/svg">
<path fill-rule="evenodd" clip-rule="evenodd" d="M16 28C9.3726 28 4 22.6274 4 16C4 9.3726 9.3726 4 16 4C22.6274 4 28 9.3726 28 16C28 22.6274 22.6274 28 16 28ZM16 6C10.4772 6 6 10.4772 6 16C6 21.5229 10.4772 26 16 26C21.5229 26 26 21.5228 26 16C26 10.4772 21.5228 6.00005 16 6Z" fill="black"/>
<path fill-rule="evenodd" clip-rule="evenodd" d="M12 27H20C20.5523 27 21 26.5523 21 26V10C21 9.44771 20.5523 9 20 9H12C11.4477 9 11 9.44771 11 10V26C11 26.5523 11.4477 27 12 27ZM18.5 23C18.7761 23 19 23.2239 19 23.5V24.5C19 24.7761 18.7761 25 18.5 25H17.5C17.2239 25 17 24.7761 17 24.5V23.5C17 23.2239 17.2239 23 17.5 23H18.5ZM19 19.5C19 19.2239 18.7761 19 18.5 19H17.5C17.2239 19 17 19.2239 17 19.5V20.5C17 20.7761 17.2239 21 17.5 21H18.5C18.7761 21 19 20.7761 19 20.5V19.5ZM18.5 15C18.7761 15 19 15.2239 19 15.5V16.5C19 16.7761 18.7761 17 18.5 17H17.5C17.2239 17 17 16.7761 17 16.5V15.5C17 15.2239 17.2239 15 17.5 15H18.5ZM19 11.5C19 11.2239 18.7761 11 18.5 11H17.5C17.2239 11 17 11.2239 17 11.5V12.5C17 12.7761 17.2239 13 17.5 13H18.5C18.7761 13 19 12.7761 19 12.5V11.5ZM14.5 11C14.7761 11 15 11.2239 15 11.5V12.5C15 12.7761 14.7761 13 14.5 13H13.5C13.2239 13 13 12.7761 13 12.5V11.5C13 11.2239 13.2239 11 13.5 11H14.5ZM15 15.5C15 15.2239 14.7761 15 14.5 15H13.5C13.2239 15 13 15.2239 13 15.5V16.5C13 16.7761 13.2239 17 13.5 17H14.5C14.7761 17 15 16.7761 15 16.5V15.5ZM14.5 19C14.7761 19 15 19.2239 15 19.5V20.5C15 20.7761 14.7761 21 14.5 21H13.5C13.2239 21 13 20.7761 13 20.5V19.5C13 19.2239 13.2239 19 13.5 19H14.5ZM15 23.5C15 23.2239 14.7761 23 14.5 23H13.5C13.2239 23 13 23.2239 13 23.5V24.5C13 24.7761 13.2239 25 13.5 25H14.5C14.7761 25 15 24.7761 15 24.5V23.5Z" fill="black"/>
</svg>
