<svg width="32" height="32" viewBox="0 0 32 32" fill="none" xmlns="http://www.w3.org/2000/svg">
<path d="M16 4C22.6274 4 28 9.3726 28 16C28 22.6274 22.6274 28 16 28C9.3726 28 4 22.6274 4 16C4 9.3726 9.3726 4 16 4ZM13.5 23C13.2239 23 13 23.2239 13 23.5V24.5C13 24.7761 13.2239 25 13.5 25H14.5C14.7761 25 15 24.7761 15 24.5V23.5C15 23.2239 14.7761 23 14.5 23H13.5ZM17.5 23C17.2239 23 17 23.2239 17 23.5V24.5C17 24.7761 17.2239 25 17.5 25H18.5C18.7761 25 19 24.7761 19 24.5V23.5C19 23.2239 18.7761 23 18.5 23H17.5ZM16 6C10.4772 6 6 10.4772 6 16C6 19.5456 7.84684 22.6575 10.6295 24.433C10.7919 24.5365 11 24.4172 11 24.2247V10C11 9.44771 11.4477 9 12 9H20C20.5523 9 21 9.44771 21 10V24.2247C21 24.4172 21.2081 24.5365 21.3705 24.433C24.1532 22.6575 26 19.5456 26 16C26 10.4772 21.5228 6.00005 16 6ZM13.5 19C13.2239 19 13 19.2239 13 19.5V20.5C13 20.7761 13.2239 21 13.5 21H14.5C14.7761 21 15 20.7761 15 20.5V19.5C15 19.2239 14.7761 19 14.5 19H13.5ZM17.5 19C17.2239 19 17 19.2239 17 19.5V20.5C17 20.7761 17.2239 21 17.5 21H18.5C18.7761 21 19 20.7761 19 20.5V19.5C19 19.2239 18.7761 19 18.5 19H17.5ZM13.5 15C13.2239 15 13 15.2239 13 15.5V16.5C13 16.7761 13.2239 17 13.5 17H14.5C14.7761 17 15 16.7761 15 16.5V15.5C15 15.2239 14.7761 15 14.5 15H13.5ZM17.5 15C17.2239 15 17 15.2239 17 15.5V16.5C17 16.7761 17.2239 17 17.5 17H18.5C18.7761 17 19 16.7761 19 16.5V15.5C19 15.2239 18.7761 15 18.5 15H17.5ZM13.5 11C13.2239 11 13 11.2239 13 11.5V12.5C13 12.7761 13.2239 13 13.5 13H14.5C14.7761 13 15 12.7761 15 12.5V11.5C15 11.2239 14.7761 11 14.5 11H13.5ZM17.5 11C17.2239 11 17 11.2239 17 11.5V12.5C17 12.7761 17.2239 13 17.5 13H18.5C18.7761 13 19 12.7761 19 12.5V11.5C19 11.2239 18.7761 11 18.5 11H17.5Z" fill="black"/>
</svg>
