<svg width="32" height="32" viewBox="0 0 32 32" fill="none" xmlns="http://www.w3.org/2000/svg">
<path fill-rule="evenodd" clip-rule="evenodd" d="M27.0105 26.0104H5.0105V26.0104C4.45821 26.0104 4.0105 25.5627 4.0105 25.0104C4.0105 24.4581 4.45821 24.0104 5.0105 24.0104H27.0105V24.0104C27.5628 24.0104 28.0105 24.4581 28.0105 25.0104C28.0105 25.5627 27.5628 26.0104 27.0105 26.0104V26.0104ZM26.0105 23.0104H22.0105V23.0104C21.4582 23.0104 21.0105 22.5627 21.0105 22.0104V22.0104V11.0104V11.0104C21.0105 10.4581 21.4582 10.0104 22.0105 10.0104H26.0105V10.0104C26.5628 10.0104 27.0105 10.4581 27.0105 11.0104V22.0104V22.0104C27.0105 22.5627 26.5628 23.0104 26.0105 23.0104V23.0104ZM18.0105 6.01038V6.01038C18.5628 6.01038 19.0105 6.45809 19.0105 7.01038V22.0104C19.0105 22.5627 18.5628 23.0104 18.0105 23.0104H14.0105V23.0104C13.4582 23.0104 13.0105 22.5627 13.0105 22.0104V22.0104V7.01038V7.01038C13.0105 6.45809 13.4582 6.01038 14.0105 6.01038L18.0105 6.01038ZM10.0105 14.0104V14.0104C10.5628 14.0104 11.0105 14.4581 11.0105 15.0104V22.0104C11.0105 22.5627 10.5628 23.0104 10.0105 23.0104H6.0105V23.0104C5.45821 23.0104 5.0105 22.5627 5.0105 22.0104V22.0104V15.0104V15.0104C5.0105 14.4581 5.45821 14.0104 6.0105 14.0104H10.0105Z" fill="black"/>
</svg>
