<svg width="32" height="32" viewBox="0 0 32 32" fill="none" xmlns="http://www.w3.org/2000/svg">
<path fill-rule="evenodd" clip-rule="evenodd" d="M8.8335 15.4275L13.728 22.4386L24.2036 7.4332V7.4332C24.5197 6.97979 25.1434 6.86845 25.5968 7.18451C25.6438 7.21726 25.6879 7.25397 25.7286 7.29425V7.29425C26.0764 7.66021 26.1125 8.22265 25.8143 8.63005L14.7453 24.4854V24.4854C14.3527 25.0473 13.579 25.1845 13.0171 24.7919C12.8978 24.7085 12.794 24.6048 12.7106 24.4854L7.22279 16.6245V16.6245C6.92448 16.217 6.96054 15.6545 7.30844 15.2885V15.2885C7.70129 14.8996 8.33496 14.9029 8.72377 15.2958C8.76404 15.3365 8.80075 15.3805 8.83349 15.4275H8.8335Z" fill="black"/>
</svg>
