<svg width="32" height="32" viewBox="0 0 32 32" fill="none" xmlns="http://www.w3.org/2000/svg">
<path fill-rule="evenodd" clip-rule="evenodd" d="M20.02 13.89L25.7461 24.0159V24.0159C26.2896 24.9775 25.9506 26.1976 24.989 26.7411C24.6885 26.911 24.3492 27.0002 24.004 27H7.99605V27C6.89148 27.0005 5.99564 26.1055 5.99514 25.0009C5.99498 24.6557 6.08416 24.3164 6.254 24.0159L11.98 13.89V13.89C12.3195 13.2896 12.498 12.6115 12.498 11.9217V6H12V6C11.4477 6 11 5.55228 11 5C11 4.44771 11.4477 4 12 4H20.0003V4C20.5525 4 21.0003 4.44771 21.0003 5C21.0003 5.55229 20.5525 6 20.0003 6H19.5019V11.9216V11.9215C19.5019 12.6113 19.6803 13.2894 20.0199 13.8899L20.02 13.89ZM17.5 6H14.5V11.9217V11.9216C14.5 12.9562 14.2325 13.9732 13.7234 14.8739L12.7327 16.627V16.627C12.6648 16.7472 12.7071 16.8997 12.8274 16.9676C12.8648 16.9888 12.9072 17 12.9503 17H19.05V17C19.1881 17 19.3 16.8881 19.3001 16.7501C19.3001 16.7069 19.2889 16.6645 19.2677 16.627L18.2769 14.874V14.874C17.7677 13.9734 17.5001 12.9563 17.5 11.9217V6Z" fill="black"/>
</svg>
