<svg width="32" height="32" viewBox="0 0 32 32" fill="none" xmlns="http://www.w3.org/2000/svg">
<path fill-rule="evenodd" clip-rule="evenodd" d="M16.7039 21.715V21.715C16.3138 22.1056 15.6809 22.106 15.2903 21.7159C15.29 21.7156 15.2897 21.7153 15.2894 21.715L7.78719 14.2089V14.2089C7.39125 13.8235 7.38271 13.1901 7.76811 12.7942C8.15351 12.3983 8.7869 12.3897 9.18283 12.7751C9.18918 12.7813 9.19545 12.7876 9.20163 12.7939L15.9966 19.5923L22.7916 12.7939V12.7939C23.1768 12.3977 23.8102 12.3887 24.2064 12.7739C24.6026 13.159 24.6116 13.7924 24.2265 14.1886C24.2198 14.1955 24.2131 14.2023 24.2062 14.2089L16.7039 21.715Z" fill="black"/>
</svg>
