<svg width="32" height="32" viewBox="0 0 32 32" fill="none" xmlns="http://www.w3.org/2000/svg">
<path fill-rule="evenodd" clip-rule="evenodd" d="M19.2128 24.2113H19.2128C18.8216 24.6021 18.1878 24.6021 17.7966 24.2113L10.2853 16.7091V16.7091C9.89472 16.3193 9.89406 15.6866 10.2839 15.296C10.2844 15.2955 10.2848 15.295 10.2853 15.2945L17.7966 7.79235V7.79235C18.1872 7.40128 18.8209 7.4009 19.2119 7.7915C19.603 8.1821 19.6034 8.81577 19.2128 9.20685V9.20685L12.4096 16.0018L19.2128 22.7968V22.7968C19.6034 23.1866 19.6041 23.8191 19.2144 24.2097C19.2138 24.2102 19.2133 24.2108 19.2128 24.2113V24.2113Z" fill="black"/>
</svg>
