<svg width="32" height="32" viewBox="0 0 32 32" fill="none" xmlns="http://www.w3.org/2000/svg">
<path fill-rule="evenodd" clip-rule="evenodd" d="M4 18V26V26C4 26.5523 4.44772 27 5 27H27V27C27.5523 27 28 26.5523 28 26V18H28.5V18C28.7761 18 29 17.7761 29 17.5V17.4998C29 17.1686 28.9466 16.8396 28.8419 16.5254L28.2279 14.6835V14.6835C28.0917 14.2753 27.7096 13.9999 27.2792 14H22V12.4684V12.4684C22 12.1715 21.8681 11.89 21.64 11.7L17.36 8.13319V8.13319C17.1319 7.94324 17.0001 7.6618 17 7.36499V5.24999V5.24999C17 5.11192 17.1119 4.99999 17.25 4.99999H18.5V4.99999C18.7761 4.99999 19 4.77614 19 4.49999V3.49999C19 3.22385 18.7761 2.99999 18.5 2.99999H17.25V2.99999C17.1119 2.99999 17 2.88806 17 2.74999V1.49999C17 1.22385 16.7761 0.999993 16.5 0.999993H15.5H15.5C15.2239 0.999993 15 1.22385 15 1.49999V2.74999C15 2.88806 14.8881 2.99999 14.75 2.99999H13.5V2.99999C13.2239 2.99999 13 3.22385 13 3.49999V4.49999V4.49999C13 4.77614 13.2239 4.99999 13.5 4.99999H14.75V4.99999C14.8881 4.99999 15 5.11192 15 5.24999V7.36499V7.36512C15 7.66189 14.8682 7.94333 14.6402 8.13332L10.36 11.7V11.7C10.1319 11.89 9.99999 12.1715 10 12.4684V14H4.72085V14C4.2904 14 3.90823 14.2754 3.7721 14.6837L3.15805 16.5256H3.15805C3.05344 16.8398 3.00007 17.1688 3 17.5V17.5V17.5C3 17.7761 3.22386 18 3.5 18L4 18ZM16 12V12C17.6569 12 19 13.3431 19 15C19 16.6569 17.6569 18 16 18C14.3431 18 13 16.6569 13 15V15C13 13.3431 14.3431 12 16 12C16 12 16 12 16 12V12ZM12.5 20H19.5V20C19.7761 20 20 20.2239 20 20.5V24.5C20 24.7761 19.7761 25 19.5 25H12.5V25C12.2239 25 12 24.7761 12 24.5V20.5V20.5C12 20.2239 12.2239 20 12.5 20V20Z" fill="black"/>
</svg>
