<svg width="32" height="32" viewBox="0 0 32 32" fill="none" xmlns="http://www.w3.org/2000/svg">
<path fill-rule="evenodd" clip-rule="evenodd" d="M16.0049 28.0104V28.0104C9.37748 28.0104 4.00488 22.6378 4.00488 16.0104C4.00488 9.38304 9.37748 4.01044 16.0049 4.01044C22.6323 4.01044 28.0049 9.38304 28.0049 16.0104V16.0104C28.0049 22.6378 22.6323 28.0104 16.0049 28.0104V28.0104ZM22.7049 10.3011V10.3011C22.3121 9.91244 21.6785 9.91578 21.2898 10.3086C21.2497 10.3492 21.2131 10.3931 21.1804 10.44L14.7585 19.635L11.8213 15.4294V15.4294C11.5052 14.9762 10.8814 14.865 10.4282 15.1811C10.3813 15.2138 10.3374 15.2504 10.2968 15.2906V15.2906C9.94892 15.6562 9.91287 16.2185 10.2112 16.6256L13.5234 21.3681V21.3681C14.0003 22.0503 14.9398 22.2167 15.622 21.7398C15.7667 21.6386 15.8926 21.5128 15.9937 21.3681L22.7906 11.6359V11.6359C23.0887 11.2288 23.0526 10.6667 22.7049 10.3011H22.7049Z" fill="black"/>
</svg>
