<svg width="32" height="32" viewBox="0 0 32 32" fill="none" xmlns="http://www.w3.org/2000/svg">
<path fill-rule="evenodd" clip-rule="evenodd" d="M16.005 26.0117C10.4822 26.0117 6.005 21.5345 6.005 16.0117C6.00501 10.4889 10.4822 6.01172 16.005 6.01172C21.5278 6.01172 26.005 10.4889 26.005 16.0117C26.005 21.5345 21.5278 26.0117 16.005 26.0117ZM16.005 28.0117C9.3776 28.0117 4.005 22.6391 4.005 16.0117C4.005 9.38432 9.3776 4.01172 16.005 4.01172C22.6324 4.01172 28.005 9.38432 28.005 16.0117C28.005 22.6391 22.6324 28.0117 16.005 28.0117ZM21.29 10.3099C21.6787 9.91706 22.3122 9.91372 22.705 10.3024C23.0527 10.668 23.0888 11.2301 22.7907 11.6372L15.9939 21.3694C15.8927 21.5141 15.7669 21.6399 15.6221 21.7411C14.94 22.218 14.0004 22.0515 13.5235 21.3694L10.2113 16.6269C9.91299 16.2198 9.94904 15.6575 10.2969 15.2919C10.3375 15.2517 10.3815 15.2151 10.4283 15.1824C10.8816 14.8663 11.5053 14.9774 11.8214 15.4307L14.7586 19.6363L21.1805 10.4413C21.2132 10.3944 21.2498 10.3505 21.29 10.3099Z" fill="black"/>
</svg>
