<svg width="32" height="32" viewBox="0 0 32 32" fill="none" xmlns="http://www.w3.org/2000/svg">
<path fill-rule="evenodd" clip-rule="evenodd" d="M23.7072 23.7178V23.7178C23.3165 24.1086 22.6829 24.1088 22.2921 23.7181C22.292 23.718 22.2919 23.7179 22.2918 23.7178L15.9918 17.4178L9.69761 23.7123V23.7123C9.3047 24.1011 8.67104 24.0977 8.28229 23.7048C7.89645 23.3148 7.89646 22.6869 8.28231 22.297L14.5767 16.0026L8.28346 9.70938V9.70938C7.89833 9.31297 7.90747 8.67939 8.30389 8.29426C8.69219 7.91701 9.31009 7.91695 9.69846 8.29414L15.992 14.5873L22.2907 8.28864V8.28864C22.6764 7.89272 23.3099 7.88439 23.7059 8.27003C24.1018 8.65568 24.1101 9.28927 23.7245 9.68519C23.7183 9.69152 23.712 9.69777 23.7057 9.70393L17.4073 16.0026L23.7073 22.3026V22.3026C24.0981 22.6933 24.0981 23.3268 23.7074 23.7176C23.7073 23.7176 23.7072 23.7177 23.7072 23.7178L23.7072 23.7178Z" fill="black"/>
</svg>
