<svg width="32" height="32" viewBox="0 0 32 32" fill="none" xmlns="http://www.w3.org/2000/svg">
<path fill-rule="evenodd" clip-rule="evenodd" d="M20.5104 28.0117H7.51044V28.0117C6.68201 28.0117 6.01044 27.3401 6.01044 26.5117V9.51172V9.51172C6.01044 8.68329 6.68201 8.01172 7.51044 8.01172H11.0104V22.5117V22.5117C11.0104 23.8924 12.1297 25.0117 13.5104 25.0117H22.0104V26.5117V26.5117C22.0104 27.3401 21.3389 28.0117 20.5104 28.0117C20.5104 28.0117 20.5104 28.0117 20.5104 28.0117H20.5104ZM21.5104 11.0117V11.0117C21.2343 11.0117 21.0104 10.7879 21.0104 10.5117V10.5117V5.21882V5.21878C21.0104 4.94263 21.2343 4.71878 21.5104 4.71878C21.6431 4.71878 21.7703 4.77148 21.8641 4.8653L27.1568 10.1582V10.1582C27.3521 10.3535 27.352 10.6701 27.1567 10.8653C27.063 10.959 26.9359 11.0117 26.8033 11.0117L21.5104 11.0117ZM28.0104 13.5117V22.5117C28.0104 23.3401 27.3389 24.0117 26.5104 24.0117H13.5104V24.0117C12.682 24.0117 12.0104 23.3401 12.0104 22.5117V5.51172V5.51172C12.0104 4.68329 12.682 4.01172 13.5104 4.01172H18.5104V4.01172C19.3389 4.01172 20.0104 4.68329 20.0104 5.51172V10.5117V10.5117C20.0104 11.3401 20.682 12.0117 21.5104 12.0117H26.5104H26.5104C27.3389 12.0117 28.0104 12.6833 28.0104 13.5117C28.0104 13.5117 28.0104 13.5118 28.0104 13.5118L28.0104 13.5117Z" fill="black"/>
</svg>
