<svg width="32" height="32" viewBox="0 0 32 32" fill="none" xmlns="http://www.w3.org/2000/svg">
<mask id="mask0_21_78" style="mask-type:alpha" maskUnits="userSpaceOnUse" x="4" y="4" width="24" height="24">
<circle cx="16" cy="16" r="12" fill="#D9D9D9"/>
</mask>
<g mask="url(#mask0_21_78)">
<path d="M16 4C22.6274 4 28 9.3726 28 16C28 17.8372 27.5846 19.5768 26.8464 21.1333C26.8058 21.2189 26.8155 21.32 26.8729 21.3953L29.9238 25.3994C29.9734 25.4645 30 25.5442 30 25.626L29.9922 25.7012C29.9575 25.8716 29.8067 26 29.626 26H25.4121C25.2006 26 25.0026 25.8966 24.8809 25.7236L24.3657 24.9919C24.2783 24.8677 24.1013 24.8497 23.988 24.9508C23.8637 25.0616 23.7371 25.1698 23.6083 25.2755C23.5122 25.3543 23.5 25.4959 23.5 25.6201V25.6201C23.4999 25.8298 23.3298 25.9998 23.1201 26H22.7073C22.6581 26 22.61 26.0146 22.5688 26.0416C20.6815 27.2788 18.4253 28 16 28C13.5747 28 11.3185 27.2788 9.43115 26.0416C9.38998 26.0146 9.3419 26 9.29267 26H2.37988C2.17023 26.0001 2.00017 25.8298 2 25.6201L2.00488 25.5615C2.01381 25.5041 2.03563 25.4493 2.06934 25.4014L5.03781 21.1828C5.08933 21.1096 5.09758 21.0145 5.06072 20.9329C4.38083 19.4279 4 17.7587 4 16C4 9.3726 9.3726 4 16 4ZM16 6C10.4772 6 6 10.4772 6 16C6 16.9122 6.12359 17.7954 6.35287 18.6349C6.40707 18.8334 6.66463 18.8729 6.78306 18.7047L8.50098 16.2646C8.61806 16.0987 8.80859 16 9.01172 16H9.55768C9.63907 16 9.71536 15.9604 9.76218 15.8938L12.3135 12.2656C12.4304 12.0993 12.6209 12.0001 12.8242 12H13.6758C13.8791 12 14.0695 12.0993 14.1865 12.2656L22.1322 23.5567C22.2155 23.675 22.3817 23.6984 22.4917 23.6044C22.6258 23.4899 22.7567 23.3719 22.8845 23.2506C22.9729 23.1666 22.9847 23.0305 22.9145 22.9307L19.125 17.5459C18.9637 17.3163 18.9696 17.0084 19.1396 16.7852L20.3125 15.2461C20.4307 15.091 20.6146 15 20.8096 15H21.6904C21.8854 15 22.0693 15.091 22.1875 15.2461L25.1124 19.0855C25.232 19.2426 25.4765 19.205 25.5361 19.0168C25.8371 18.0649 26 17.0515 26 16C26 10.4772 21.5228 6.00005 16 6Z" fill="black"/>
</g>
</svg>
