<svg width="32" height="32" viewBox="0 0 32 32" fill="none" xmlns="http://www.w3.org/2000/svg">
<path d="M16 4C22.6274 4 28 9.3726 28 16C28 16.3252 27.9865 16.6472 27.9609 16.9658C27.9489 17.1164 27.9335 17.2661 27.916 17.415C27.8946 17.596 27.8692 17.7757 27.8398 17.9541C27.8343 17.9877 27.829 18.0212 27.8232 18.0547C27.7973 18.2045 27.7678 18.3531 27.7363 18.501C27.7102 18.6244 27.6823 18.7471 27.6523 18.8691C27.6309 18.9561 27.6083 19.0427 27.585 19.1289C27.5595 19.2235 27.5326 19.3175 27.5049 19.4111C27.4687 19.5331 27.4306 19.6541 27.3906 19.7744C27.3697 19.8375 27.3481 19.9003 27.3262 19.9629C27.2266 20.2469 27.1169 20.526 26.9971 20.7998C26.9631 20.8775 26.9281 20.9545 26.8926 21.0312C26.8769 21.0652 26.8627 21.1 26.8467 21.1338C26.8459 21.1354 26.8454 21.1371 26.8447 21.1387C26.1546 22.5925 25.1811 23.8846 23.9951 24.9453C23.9928 24.9472 23.9905 24.9492 23.9883 24.9512C23.8641 25.062 23.7372 25.1698 23.6084 25.2754C23.6021 25.2805 23.5964 25.2863 23.5908 25.292C23.2256 25.5907 22.8416 25.8665 22.4424 26.1211C22.1521 26.3063 21.8534 26.4794 21.5469 26.6396C21.3388 26.7484 21.1271 26.8506 20.9121 26.9473C20.7786 27.0073 20.6438 27.0648 20.5078 27.1201C19.1156 27.685 17.5949 28 16 28C14.4048 28 12.8836 27.6852 11.4912 27.1201C11.3552 27.0648 11.2204 27.0073 11.0869 26.9473C10.8719 26.8506 10.6602 26.7484 10.4521 26.6396C10.1456 26.4794 9.84694 26.3063 9.55664 26.1211C7.5745 24.8566 5.99017 23.0273 5.02832 20.8584C4.96924 20.7252 4.91275 20.5907 4.8584 20.4551C4.83772 20.4034 4.81685 20.3518 4.79688 20.2998C4.74856 20.1742 4.70239 20.0475 4.6582 19.9199C4.63787 19.8611 4.61709 19.8024 4.59766 19.7432C4.55056 19.5999 4.50763 19.4551 4.46582 19.3096C4.38871 19.0403 4.31915 18.7678 4.26074 18.4912C4.09035 17.6876 4 16.8544 4 16C4 9.3726 9.3726 4 16 4ZM16 6C10.4772 6 6 10.4772 6 16C6 16.9121 6.1233 17.7953 6.35254 18.6348C6.40672 18.8332 6.66471 18.8731 6.7832 18.7051L8.50098 16.2646C8.61806 16.0987 8.80859 16 9.01172 16H9.55762C9.63899 16 9.7149 15.9601 9.76172 15.8936L12.3135 12.2656C12.4304 12.0993 12.6209 12.0001 12.8242 12H13.6758C13.8791 12 14.0695 12.0993 14.1865 12.2656L22.1318 23.5566C22.2151 23.675 22.3822 23.6985 22.4922 23.6045C22.6261 23.4901 22.7571 23.3722 22.8848 23.251C22.9732 23.167 22.9843 23.0304 22.9141 22.9307L19.125 17.5459C18.9637 17.3163 18.9696 17.0084 19.1396 16.7852L20.3125 15.2461C20.4307 15.091 20.6146 15 20.8096 15H21.6904C21.8854 15 22.0693 15.091 22.1875 15.2461L25.1123 19.0859C25.232 19.2427 25.4766 19.2047 25.5361 19.0166C25.8371 18.0647 26 17.0514 26 16C26 10.4772 21.5228 6.00005 16 6Z" fill="black"/>
</svg>
