<svg width="32" height="32" viewBox="0 0 32 32" fill="none" xmlns="http://www.w3.org/2000/svg">
<path fill-rule="evenodd" clip-rule="evenodd" d="M30.0031 19V18.9998C30.0021 20.7131 28.9092 22.2353 27.2861 22.7841V22.7841C27.1009 22.8508 26.9723 23.02 26.9577 23.2163V23.2163C26.5641 27.3397 22.9024 30.3633 18.779 29.9697C14.929 29.6022 11.9898 26.3675 11.9917 22.5V22.5C11.9893 22.1642 11.761 21.8721 11.4358 21.7886V21.7886C9.54818 21.2831 8.01875 19.9009 7.3254 18.074L4.27505 9.93501V9.93501C3.42186 7.67214 4.56464 5.14607 6.82752 4.29291C6.85835 4.28129 6.88931 4.27001 6.9204 4.25908V4.25908C7.07623 4.20039 7.20745 4.09043 7.2925 3.94728V3.94728C7.87121 3.0032 9.10566 2.70701 10.0497 3.28571C10.9938 3.86442 11.29 5.09887 10.7113 6.04295C10.1326 6.98703 8.89815 7.28323 7.95407 6.70452C7.79655 6.60797 7.65314 6.49011 7.5279 6.35428H7.5279C7.44605 6.27159 7.31854 6.25494 7.2182 6.31383V6.31383C6.90013 6.48713 6.62685 6.7322 6.42005 7.02958L6.42005 7.02958C5.96818 7.67277 5.86567 8.49853 6.14655 9.23268L9.19705 17.3719V17.3719C9.98471 19.4679 12.3224 20.5285 14.4184 19.7409C15.5127 19.3297 16.3762 18.4661 16.7874 17.3719L19.8378 9.23268V9.23268C20.1187 8.49854 20.0162 7.67276 19.5643 7.02958V7.02958C19.3575 6.7322 19.0843 6.48713 18.7662 6.31383V6.31383C18.6659 6.25495 18.5384 6.2716 18.4565 6.35428V6.35428C17.7065 7.16225 16.4435 7.2092 15.6355 6.45915C14.8275 5.7091 14.7806 4.44608 15.5306 3.63811C16.2807 2.83015 17.5437 2.7832 18.3517 3.53325C18.4832 3.65534 18.5976 3.7946 18.6919 3.94728V3.94728C18.777 4.09045 18.9082 4.20042 19.064 4.25908V4.25908C21.3456 5.06091 22.5451 7.56048 21.7433 9.84203C21.7324 9.87316 21.7211 9.90416 21.7094 9.93504L18.659 18.074V18.074C17.9657 19.9009 16.4363 21.2831 14.5488 21.7886V21.7886C14.2235 21.8721 13.9953 22.1642 13.9929 22.5V22.4993C13.9929 25.5372 16.4556 27.9999 19.4934 27.9999C22.2258 27.9999 24.544 25.9942 24.9368 23.2902V23.2902C24.9702 23.0562 24.8356 22.8308 24.6138 22.7491V22.7491C22.5431 21.9812 21.4869 19.6801 22.2548 17.6093C23.0227 15.5386 25.3238 14.4824 27.3945 15.2503C28.9626 15.8318 30.0032 17.3276 30.0031 19.0001L30.0031 19ZM26.0004 17.5V17.5C25.172 17.5004 24.5008 18.1723 24.5012 19.0007C24.5016 19.8292 25.1735 20.5004 26.0019 20.5C26.8301 20.4996 27.5012 19.8281 27.5012 19V19.0003C27.5012 18.1717 26.8295 17.5 26.0009 17.5C26.0008 17.5 26.0008 17.5 26.0007 17.5H26.0004Z" fill="black"/>
</svg>
