<svg width="32" height="32" viewBox="0 0 32 32" fill="none" xmlns="http://www.w3.org/2000/svg">
<path fill-rule="evenodd" clip-rule="evenodd" d="M28.25 14.0014V14.0014C27.913 14.0013 27.6253 14.245 27.57 14.5775L25.9456 24.3281V24.3281C25.785 25.2928 24.9505 25.9999 23.9725 26H8.0272V26C7.04942 25.9999 6.21505 25.2929 6.0545 24.3284L4.43 14.5775L4.43 14.5775C4.37464 14.2451 4.08703 14.0014 3.75 14.0014V14.0014C3.33579 14.0014 3 13.6656 3 13.2514V11.7503V11.7503C2.99986 11.336 3.33553 11.0001 3.74974 11C3.74984 11 3.74994 11 3.75004 11H28.25V11C28.6643 11 29 11.3358 29 11.75V13.2509V13.2509C29.0003 13.6651 28.6647 14.0011 28.2505 14.0014C28.2503 14.0014 28.2502 14.0014 28.25 14.0014H28.25ZM8.5 15V15C7.67158 15 7 15.6716 7 16.5C7 17.3284 7.67158 18 8.5 18C9.32842 18 10 17.3284 10 16.5V16.5C10 15.6716 9.32842 15 8.5 15V15ZM11 20V20C10.1716 20 9.5 20.6716 9.5 21.5C9.5 22.3284 10.1716 23 11 23C11.8284 23 12.5 22.3284 12.5 21.5V21.5C12.5 20.6716 11.8284 20 11 20V20ZM13.5 15V15C12.6716 15 12 15.6716 12 16.5C12 17.3284 12.6716 18 13.5 18C14.3284 18 15 17.3284 15 16.5V16.5C15 15.6716 14.3284 15 13.5 15V15ZM16 20V20C15.1716 20 14.5 20.6716 14.5 21.5C14.5 22.3284 15.1716 23 16 23C16.8284 23 17.5 22.3284 17.5 21.5V21.5C17.5 20.6716 16.8284 20 16 20V20ZM18.5 15V15C17.6716 15 17 15.6716 17 16.5C17 17.3284 17.6716 18 18.5 18C19.3284 18 20 17.3284 20 16.5V16.5C20 15.6716 19.3284 15 18.5 15V15ZM21 20V20C20.1716 20 19.5 20.6716 19.5 21.5C19.5 22.3284 20.1716 23 21 23C21.8284 23 22.5 22.3284 22.5 21.5V21.5C22.5 20.6716 21.8284 20 21 20V20ZM23.5 15V15C22.6716 15 22 15.6716 22 16.5C22 17.3284 22.6716 18 23.5 18C24.3284 18 25 17.3284 25 16.5V16.5C25 15.6716 24.3284 15 23.5 15V15ZM25.882 10H8.11805V10C7.77674 10.0001 7.5 9.72342 7.49994 9.38211C7.4999 9.14795 7.6322 8.93388 7.84165 8.8292L8.912 8.2942V8.2942C9.29867 8.10078 9.72506 8.00006 10.1574 8H11.25V8C11.4123 8 11.5702 7.94737 11.7 7.85L15.1 5.3V5.3C15.6333 4.9 16.3667 4.9 16.9 5.3L20.3096 7.85715V7.85715C20.4301 7.94747 20.5848 7.9787 20.7309 7.94215L22.1674 7.583V7.583C22.8122 7.42178 23.4934 7.49655 24.0879 7.7938L26.1583 8.82905V8.82905C26.4637 8.98147 26.5877 9.3526 26.4353 9.65799C26.3306 9.86772 26.1163 10.0002 25.8819 10H25.882Z" fill="black"/>
</svg>
