<svg width="32" height="32" viewBox="0 0 32 32" fill="none" xmlns="http://www.w3.org/2000/svg">
<path fill-rule="evenodd" clip-rule="evenodd" d="M27 26H5C4.44777 25.9999 4.00014 25.5522 4 25V13.9972V13.9974C4 13.4452 4.44756 12.9975 4.99975 12.9974H5.49975L6.455 3.45C6.48068 3.1945 6.69572 3 6.9525 3H8.5475C8.80426 3.00002 9.01927 3.19452 9.04495 3.45L9.95995 12.5975L15.2227 9.09035C15.4525 8.9372 15.7629 8.99933 15.9161 9.22911C15.9708 9.31119 16 9.40761 16 9.50625V12.5707L21.2227 9.09035C21.4524 8.93717 21.7629 8.99926 21.916 9.22903C21.9708 9.31114 22 9.40761 22 9.5063V12.5707L27.2227 9.0903C27.4524 8.93712 27.7629 8.99921 27.916 9.22898C27.9708 9.31109 28 9.40756 28 9.50625V25C28 25.5523 27.5523 26 27 26H27ZM14 16.5C14 16.2239 13.7761 16 13.5 16H10.5C10.2239 16 10 16.2239 10 16.5V18.5C10 18.7761 10.2239 19 10.5 19H13.5C13.7761 19 14 18.7761 14 18.5V16.5ZM14 21.5C14 21.2239 13.7761 21 13.5 21H10.5C10.2239 21 10 21.2239 10 21.5V23.5C10 23.7761 10.2239 24 10.5 24H13.5C13.7761 24 14 23.7761 14 23.5V21.5ZM20 16.5C20 16.2239 19.7761 16 19.5 16H16.5C16.2239 16 16 16.2239 16 16.5V18.5C16 18.7761 16.2239 19 16.5 19H19.5C19.7761 19 20 18.7761 20 18.5V16.5ZM20 21.5C20 21.2239 19.7761 21 19.5 21H16.5C16.2239 21 16 21.2239 16 21.5V23.5C16 23.7761 16.2239 24 16.5 24H19.5C19.7761 24 20 23.7761 20 23.5V21.5ZM26 16.5C26 16.2239 25.7761 16 25.5 16H22.5C22.2239 16 22 16.2239 22 16.5V18.5C22 18.7761 22.2239 19 22.5 19H25.5C25.7761 19 26 18.7761 26 18.5V16.5ZM26 21.5C26 21.2239 25.7761 21 25.5 21H22.5C22.2239 21 22 21.2239 22 21.5V23.5C22 23.7761 22.2239 24 22.5 24H25.5C25.7761 24 26 23.7761 26 23.5V21.5Z" fill="black"/>
</svg>
