<svg width="32" height="32" viewBox="0 0 32 32" fill="none" xmlns="http://www.w3.org/2000/svg">
<path fill-rule="evenodd" clip-rule="evenodd" d="M16 28C9.3726 28 4 22.6274 4 16C4 9.3726 9.3726 4 16 4C22.6274 4 28 9.3726 28 16C28 22.6274 22.6274 28 16 28ZM16 6C10.4772 6 6 10.4772 6 16C6 21.5229 10.4772 26 16 26C21.5229 26 26 21.5228 26 16C26 10.4772 21.5228 6.00005 16 6Z" fill="black"/>
<path fill-rule="evenodd" clip-rule="evenodd" d="M23.503 16.5005C23.503 14.9232 20.4678 12.7053 16.9748 12.0144C16.5753 11.9354 16.3963 12.1797 16.5664 12.553V12.553C16.6397 12.6974 16.7024 12.847 16.754 13.0005C14.4627 13.0005 12.575 14.4486 11.8297 15.1177V15.1177C11.6363 15.2847 11.3499 15.2853 11.1558 15.1192V15.1192C10.51 14.496 9.67739 14.1021 8.78596 13.9982V13.9982C8.65072 13.9757 8.52285 14.067 8.50035 14.2023C8.49617 14.2274 8.49588 14.253 8.49948 14.2782C8.63891 15.4142 9.50508 16.5004 9.50508 16.5004C9.50508 16.5004 8.63891 17.5867 8.49948 18.7228V18.7228C8.48007 18.8585 8.57435 18.9843 8.71006 19.0037C8.73525 19.0073 8.76085 19.007 8.78596 19.0028H8.78596C9.67842 18.8973 10.5113 18.5008 11.1558 17.8746V17.8746C11.3497 17.7079 11.6365 17.7085 11.8297 17.8761C12.575 18.5474 14.4565 20.0005 17.753 20.0005C21.0494 20.0005 23.503 17.5593 23.503 16.5005V16.5005ZM19.7535 15.0005V15.0005C19.3393 15.0005 19.0035 15.3362 19.0034 15.7504C19.0033 16.1646 19.3391 16.5005 19.7533 16.5005C20.1675 16.5006 20.5033 16.1649 20.5034 15.7507C20.5034 15.7506 20.5034 15.7506 20.5034 15.7505V15.7505C20.5034 15.3364 20.1677 15.0006 19.7535 15.0005V15.0005Z" fill="black"/>
</svg>
