<svg width="32" height="32" viewBox="0 0 32 32" fill="none" xmlns="http://www.w3.org/2000/svg">
<path fill-rule="evenodd" clip-rule="evenodd" d="M16 28C9.3726 28 4 22.6274 4 16C4 9.3726 9.3726 4 16 4C22.6274 4 28 9.3726 28 16C28 22.6274 22.6274 28 16 28ZM16 6C10.4772 6 6 10.4772 6 16C6 21.5229 10.4772 26 16 26C21.5229 26 26 21.5228 26 16C26 10.4772 21.5228 6.00005 16 6Z" fill="black"/>
<path fill-rule="evenodd" clip-rule="evenodd" d="M23.503 16.5005C23.503 14.9232 20.4678 12.7053 16.9748 12.0144C16.5753 11.9354 16.3964 12.1797 16.5664 12.553C16.6398 12.6974 16.7025 12.847 16.754 13.0005C14.4627 13.0005 12.575 14.4486 11.8297 15.1177C11.6363 15.2847 11.35 15.2853 11.1559 15.1192C10.51 14.496 9.67742 14.1021 8.78599 13.9982C8.65075 13.9757 8.52288 14.067 8.50038 14.2023C8.4962 14.2274 8.49591 14.253 8.49951 14.2782C8.63894 15.4142 9.50511 16.5004 9.50511 16.5004C9.50511 16.5004 8.63894 17.5867 8.49951 18.7228C8.4801 18.8585 8.57438 18.9843 8.71009 19.0037C8.73529 19.0073 8.76088 19.007 8.78599 19.0028C9.67845 18.8973 10.5113 18.5008 11.1559 17.8746C11.3498 17.7079 11.6366 17.7085 11.8297 17.8761C12.575 18.5474 14.4566 20.0005 17.753 20.0005C21.0495 20.0005 23.503 17.5593 23.503 16.5005ZM19.7536 15.0005C19.3393 15.0005 19.0035 15.3362 19.0034 15.7504C19.0034 16.1646 19.3391 16.5005 19.7533 16.5005C20.1675 16.5006 20.5034 16.1649 20.5034 15.7507C20.5034 15.7507 20.5034 15.7506 20.5034 15.7507C20.5034 15.3365 20.1677 15.0006 19.7536 15.0005Z" fill="black"/>
</svg>
