<svg width="32" height="32" viewBox="0 0 32 32" fill="none" xmlns="http://www.w3.org/2000/svg">
<path fill-rule="evenodd" clip-rule="evenodd" d="M29.75 12V12C29.0596 12 28.5 12.5596 28.5 13.25V20.4011V20.4012C28.52 22.2936 27.0577 23.8719 25.1692 23.9961V23.9961C23.2385 24.0896 21.5976 22.6002 21.5041 20.6695C21.5014 20.613 21.5 20.5565 21.5 20.5V16.5C21.5 15.6716 20.8284 15 20 15V15C19.7239 15 19.5 14.7761 19.5 14.5V14.5V13.5V13.5C19.5 13.2239 19.7239 13 20 13V13C21.933 13 23.5 14.567 23.5 16.5V16.5V20.5V20.5C23.5 21.3284 24.1716 22 25 22C25.8284 22 26.5 21.3284 26.5 20.5V13.5C26.5 11.1571 24.5042 9.23 22.8241 8.5955V8.5955C22.6293 8.52294 22.5001 8.337 22.5 8.12915V7.50665V7.50661C22.5 7.22887 22.7252 7.00371 23.0029 7.00371C23.0149 7.00371 23.0269 7.00414 23.0388 7.005H23.0388C25.8929 7.32325 28.4402 8.94109 29.9416 11.3891V11.3891C29.9807 11.4621 30.0008 11.5438 30 11.6267V11.75C30 11.8881 29.8881 12 29.75 12L29.75 12ZM20.5 26V27C20.5 27.5523 20.0523 28 19.5 28H4.5V28C3.94771 28 3.5 27.5523 3.5 27V26V26C3.5 25.4477 3.94771 25 4.5 25H5.5V7V7C5.5 5.34315 6.84315 4 8.5 4H15.5V4C17.1569 4 18.5 5.34315 18.5 7V25H19.5V25C20.0523 25 20.5 25.4477 20.5 26V26V26ZM16.5 8C16.5 7.44771 16.0523 7 15.5 7H8.5V7C7.94771 7 7.5 7.44772 7.5 8V12V12C7.5 12.5523 7.94772 13 8.5 13H15.5V13C16.0523 13 16.5 12.5523 16.5 12V8Z" fill="black"/>
</svg>
