<svg width="32" height="32" viewBox="0 0 32 32" fill="none" xmlns="http://www.w3.org/2000/svg">
<path fill-rule="evenodd" clip-rule="evenodd" d="M25.5 28H6.5V28C6.22386 28 6 27.7761 6 27.5V26.5168V26.517C6 26.2556 6.13605 26.0131 6.35908 25.8769L7.76058 25.0212V25.0212C7.90936 24.9304 8.00008 24.7687 8 24.5944V20.5031V20.5031C8.0008 20.2277 7.77821 20.0038 7.50284 20.003C7.50023 20.003 7.49761 20.0031 7.495 20.0031V20.0031C7.22162 20.0031 6.99999 19.7815 6.99997 19.5081C6.99997 19.5064 6.99998 19.5048 7 19.5031V17.5007V17.5007C7 17.2246 7.22386 17.0007 7.5 17.0007H24.5V17.0007C24.7761 17.0007 25 17.2246 25 17.5007V19.5016V19.5016C25.0026 19.776 24.7823 20.0006 24.5079 20.0032C24.5069 20.0032 24.506 20.0032 24.505 20.0032V20.0032C24.2296 19.9997 24.0035 20.2201 24 20.4954C24 20.498 24 20.5006 24 20.5032V24.5943V24.5943C24 24.7686 24.0907 24.9304 24.2395 25.0212L25.641 25.8768V25.8768C25.864 26.013 26 26.2555 26 26.5168V27.5C26 27.7761 25.7761 28 25.5 28V28ZM12.5 20.5022C12.5 20.226 12.2761 20.0022 12 20.0022H11V20.0022C10.7239 20.0022 10.5 20.226 10.5 20.5022V24.4957V24.4957C10.5 24.7719 10.7239 24.9957 11 24.9957H12V24.9957C12.2761 24.9957 12.5 24.7719 12.5 24.4957V20.5022ZM17 20.5022C17 20.226 16.7761 20.0022 16.5 20.0022H15.5V20.0022C15.2239 20.0022 15 20.226 15 20.5022V24.4957V24.4957C15 24.7719 15.2239 24.9957 15.5 24.9957H16.5V24.9957C16.7761 24.9957 17 24.7719 17 24.4957V20.5022ZM21.5 20.5022C21.5 20.226 21.2761 20.0022 21 20.0022H20V20.0022C19.7239 20.0022 19.5 20.226 19.5 20.5022V24.4957V24.4957C19.5 24.7719 19.7239 24.9957 20 24.9957H21V24.9957C21.2761 24.9957 21.5 24.7719 21.5 24.4957V20.5022ZM8 16V14.5006V14.5006C8 14.2244 8.22386 14.0006 8.5 14.0006H8.75V14.0006C8.88807 14.0006 9 13.8887 9 13.7506V13.0006V13.0006C9.00114 9.71347 11.2893 6.86996 14.5 6.16556V4.37497V4.37497C14.5 4.16787 14.6679 3.99998 14.875 3.99997H15.125L15.4725 1.21887V1.21887C15.4882 1.09377 15.5946 0.999923 15.7207 0.999969H16.2793V0.999969C16.4054 0.999958 16.5118 1.09388 16.5274 1.21902L16.875 3.99997H17.125H17.125C17.3321 3.99997 17.5 4.16786 17.5 4.37497V6.16497L17.5 6.16497C20.711 6.8694 22.9992 9.71328 23 13.0006V13.7506V13.7506C23 13.8887 23.1119 14.0006 23.25 14.0006H23.5V14.0006C23.7761 14.0006 24 14.2245 24 14.5006V16L8 16Z" fill="black"/>
</svg>
