<svg width="32" height="32" viewBox="0 0 32 32" fill="none" xmlns="http://www.w3.org/2000/svg">
<path fill-rule="evenodd" clip-rule="evenodd" d="M16.0104 3.98828C9.38304 3.98828 4.01044 9.36088 4.01044 15.9883C4.01044 22.6157 9.38304 27.9883 16.0104 27.9883C22.6378 27.9883 28.0104 22.6157 28.0104 15.9883C28.0104 9.36088 22.6378 3.98828 16.0104 3.98828ZM16.0104 25.9883C10.4876 25.9883 6.01044 21.5111 6.01044 15.9883C6.01044 10.4654 10.4876 5.98828 16.0104 5.98828C21.5333 5.98828 26.0104 10.4654 26.0104 15.9883C26.0104 21.5111 21.5333 25.9882 16.0104 25.9883Z" fill="black"/>
<path d="M22.4576 15.6045C23.4259 16.1306 24.5948 16.1306 25.5631 15.6045C25.849 15.4466 26.1488 15.3186 26.4578 15.2215V20.5L19.5 27H14L6.45759 22.5L5.56299 15.2215C5.872 15.3186 6.17178 15.4466 6.45759 15.6045C6.92785 15.8793 7.466 16.0161 8.01039 15.9991C8.55474 16.016 9.09285 15.8793 9.56309 15.6045C10.3114 15.191 11.1556 14.9822 12.0104 14.9991C12.8652 14.9823 13.7093 15.1911 14.4576 15.6045C14.9279 15.8793 15.466 16.016 16.0104 15.9991C16.5547 16.016 17.0929 15.8793 17.5631 15.6045C19.0947 14.7973 20.9259 14.7973 22.4576 15.6045Z" fill="black"/>
</svg>
