<svg width="32" height="32" viewBox="0 0 32 32" fill="none" xmlns="http://www.w3.org/2000/svg">
<path d="M22.4469 22.3955C23.4152 21.8695 24.5841 21.8696 25.5524 22.3955C25.6143 22.4297 25.6772 22.4622 25.7407 22.4931C25.8814 22.5617 25.9354 22.738 25.8457 22.8664C25.4483 23.4351 24.9966 23.9777 24.4889 24.4854C19.8027 29.1716 12.2045 29.1715 7.5182 24.4854C7.00966 23.9768 6.55637 23.4338 6.15822 22.8641C6.06859 22.7359 6.12247 22.5597 6.26303 22.491C6.325 22.4607 6.38635 22.429 6.44691 22.3955C6.91705 22.1208 7.45539 21.9841 7.99964 22.001C8.5439 21.9841 9.0822 22.1209 9.55238 22.3955C10.3006 22.8089 11.145 23.0178 11.9996 23.001C12.8543 23.0178 13.6987 22.8089 14.4469 22.3955C14.9171 22.1208 15.4554 21.9841 15.9996 22.001C16.5439 21.984 17.0822 22.1209 17.5524 22.3955C19.0839 23.2027 20.9153 23.2026 22.4469 22.3955Z" fill="black"/>
<path fill-rule="evenodd" clip-rule="evenodd" d="M7.5182 7.51465C12.2045 2.82847 19.8027 2.8284 24.4889 7.51465C28.037 11.0628 28.8945 16.2785 27.0696 20.6373C27.0196 20.7568 26.8846 20.8169 26.7655 20.7662C26.6564 20.7197 26.5499 20.6666 26.4469 20.6064C24.9153 19.7993 23.084 19.7993 21.5524 20.6064C20.5841 21.1323 19.4151 21.1325 18.4469 20.6064C17.6986 20.1931 16.8543 19.9841 15.9996 20.001C15.145 19.9841 14.3006 20.193 13.5524 20.6064C13.0822 20.8811 12.5439 21.0179 11.9996 21.001C11.4554 21.0179 10.917 20.8812 10.4469 20.6064C9.69864 20.1931 8.85433 19.9841 7.99964 20.001C7.14494 19.9842 6.30065 20.1931 5.55238 20.6064C5.45126 20.6655 5.34687 20.7178 5.23997 20.7636C5.12076 20.8147 4.98548 20.7545 4.93543 20.6349C3.11203 16.2766 3.97075 11.0621 7.5182 7.51465ZM15.483 6.01074C10.3672 6.28075 6.27952 10.3676 6.00941 15.4834C6.00041 15.7586 6.21662 15.989 6.49183 15.998C6.4986 15.9983 6.50556 15.9991 6.51234 15.999H25.5094C25.7848 16.0012 26.0101 15.7793 26.0123 15.5039C26.0124 15.4972 26.0126 15.4901 26.0123 15.4834C25.7207 9.96016 21.0063 5.71933 15.483 6.01074Z" fill="black"/>
</svg>
