<svg width="32" height="32" viewBox="0 0 32 32" fill="none" xmlns="http://www.w3.org/2000/svg">
<path d="M22.4468 22.3955C23.4151 21.8695 24.584 21.8696 25.5523 22.3955C25.6143 22.4297 25.6771 22.4622 25.7406 22.4931C25.8813 22.5617 25.9353 22.738 25.8457 22.8664C25.4482 23.4351 24.9965 23.9777 24.4888 24.4854C19.8026 29.1716 12.2044 29.1715 7.51813 24.4854C7.00959 23.9768 6.5563 23.4338 6.15815 22.8641C6.06852 22.7359 6.1224 22.5597 6.26296 22.491C6.32493 22.4607 6.38628 22.429 6.44684 22.3955C6.91698 22.1208 7.45532 21.9841 7.99957 22.001C8.54383 21.9841 9.08213 22.1209 9.55231 22.3955C10.3005 22.8089 11.1449 23.0178 11.9996 23.001C12.8542 23.0178 13.6986 22.8089 14.4468 22.3955C14.917 22.1208 15.4553 21.9841 15.9996 22.001C16.5438 21.984 17.0821 22.1209 17.5523 22.3955C19.0839 23.2027 20.9153 23.2026 22.4468 22.3955ZM7.51813 7.51465C12.2044 2.82847 19.8026 2.8284 24.4888 7.51465C28.0369 11.0628 28.8944 16.2785 27.0695 20.6373C27.0195 20.7568 26.8845 20.8169 26.7654 20.7662C26.6563 20.7197 26.5498 20.6666 26.4468 20.6064C24.9152 19.7993 23.0839 19.7993 21.5523 20.6064C20.584 21.1323 19.4151 21.1325 18.4468 20.6064C17.6986 20.1931 16.8543 19.9841 15.9996 20.001C15.1449 19.9841 14.3005 20.193 13.5523 20.6064C13.0822 20.8811 12.5438 21.0179 11.9996 21.001C11.4553 21.0179 10.917 20.8812 10.4468 20.6064C9.69857 20.1931 8.85426 19.9841 7.99957 20.001C7.14488 19.9842 6.30058 20.1931 5.55231 20.6064C5.4512 20.6655 5.3468 20.7178 5.2399 20.7636C5.1207 20.8147 4.98541 20.7545 4.93536 20.6349C3.11196 16.2766 3.97068 11.0621 7.51813 7.51465ZM15.483 6.01074C10.3671 6.28075 6.27945 10.3676 6.00934 15.4834C6.00034 15.7586 6.21655 15.989 6.49176 15.998C6.49853 15.9983 6.50549 15.9991 6.51227 15.999L25.5093 15.999C25.7847 16.0012 26.0101 15.7793 26.0123 15.5039C26.0123 15.4972 26.0125 15.4901 26.0123 15.4834C25.7206 9.96016 21.0063 5.71933 15.483 6.01074Z" fill="black"/>
</svg>
