<svg width="32" height="32" viewBox="0 0 32 32" fill="none" xmlns="http://www.w3.org/2000/svg">
<mask id="mask0_21_123" style="mask-type:alpha" maskUnits="userSpaceOnUse" x="4" y="4" width="24" height="24">
<circle cx="16" cy="16" r="12" fill="#D9D9D9"/>
</mask>
<g mask="url(#mask0_21_123)">
<path d="M24.799 21.0003C25.286 21.0006 25.5872 21.4691 26.1124 22.4632C25.6537 23.1792 25.1144 23.8596 24.4884 24.4857C19.8021 29.1717 12.2039 29.1719 7.51772 24.4857C6.88872 23.8567 6.34701 23.1733 5.88686 22.4534C6.40923 21.4653 6.71157 21.0003 7.1974 21.0003C7.68506 21.0005 7.98608 21.4699 8.51283 22.4671C9.07733 23.5359 9.85105 25.0003 11.5978 25.0003C13.3441 25.0001 14.1173 23.5363 14.6818 22.4671C15.2087 21.47 15.5106 21.0003 15.9982 21.0003C16.4856 21.0005 16.7871 21.4702 17.3136 22.4671C17.8781 23.5363 18.652 25.0003 20.3986 25.0003C22.1448 25 22.9181 23.5362 23.4826 22.4671C24.0095 21.47 24.3112 21.0003 24.799 21.0003ZM7.51772 7.51495C12.204 2.82867 19.8021 2.82867 24.4884 7.51495C27.9599 10.9864 28.8563 16.054 27.1847 20.3538C26.6615 19.6241 25.938 19.0005 24.799 19.0003C23.0523 19.0003 22.2785 20.4642 21.714 21.5335C21.1874 22.5301 20.8859 23 20.3986 23.0003C19.911 23.0003 19.6088 22.5305 19.0822 21.5335C18.5175 20.4642 17.7447 19.0005 15.9982 19.0003C14.2514 19.0003 13.4777 20.4642 12.9132 21.5335C12.3865 22.5301 12.0851 23.0001 11.5978 23.0003C11.1102 23.0003 10.808 22.5305 10.2814 21.5335C9.71692 20.4642 8.94418 19.0004 7.1974 19.0003C6.06263 19.0003 5.33921 19.6182 4.81655 20.3441C3.15042 16.0465 4.04926 10.9836 7.51772 7.51495ZM15.4835 6.01007C10.3676 6.28 6.27991 10.3677 6.0099 15.4837C6.00091 15.7588 6.21635 15.9891 6.49135 15.9984L25.5099 15.9984C25.7851 16.0004 26.0096 15.7794 26.0119 15.5042C26.0119 15.4975 26.0121 15.4905 26.0119 15.4837C25.7203 9.96048 21.0068 5.71886 15.4835 6.01007Z" fill="black"/>
</g>
</svg>
