<svg width="32" height="32" viewBox="0 0 32 32" fill="none" xmlns="http://www.w3.org/2000/svg">
<path fill-rule="evenodd" clip-rule="evenodd" d="M29 17.5V21.5C29 21.7761 28.7761 22 28.5 22H27.5V22C27.2239 22 27 21.7761 27 21.5V10.5V10.5C27 10.2239 27.2239 10 27.5 10H28.5V10C28.7761 10 29 10.2239 29 10.5V14.5V14.5C29.5523 14.5 30 14.9477 30 15.5V16.5V16.5C30 17.0523 29.5523 17.5 29 17.5V17.5ZM25 24H24V24C23.4477 24 23 23.5523 23 23V23V17.5H9V23C9 23.5523 8.55228 24 8 24H7V24C6.44771 24 6 23.5523 6 23V23V9V9C6 8.44771 6.44771 8 7 8H8V8C8.55229 8 9 8.44771 9 9V14.5H23V9V9C23 8.44771 23.4477 8 24 8H25V8C25.5523 8 26 8.44771 26 9V23V23C26 23.5523 25.5523 24 25 24V24ZM4.5 22H3.5V22C3.22386 22 3 21.7761 3 21.5V17.5V17.5V17.5C2.44772 17.5 2 17.0523 2 16.5V16.5V15.5V15.5C2 14.9477 2.44772 14.5 3 14.5V14.5V10.5V10.5C3 10.2239 3.22386 10 3.5 10H4.5V10C4.77614 10 5 10.2239 5 10.5V21.5V21.5C5 21.7761 4.77614 22 4.5 22V22Z" fill="black"/>
</svg>
