<svg width="32" height="32" viewBox="0 0 32 32" fill="none" xmlns="http://www.w3.org/2000/svg">
<path fill-rule="evenodd" clip-rule="evenodd" d="M3.99617 23.9999V23.9999C3.44388 24 2.99613 23.5523 2.99609 23C2.99607 22.6871 3.14247 22.3923 3.39172 22.2032L16.9017 11.9535V11.9535C17.2745 11.669 17.4938 11.2274 17.4951 10.7585V9.49991V9.49991C17.5068 8.67156 16.8448 7.99056 16.0165 7.97885C15.1881 7.96713 14.5071 8.62915 14.4954 9.45749C14.4952 9.47163 14.4952 9.48577 14.4954 9.49991C14.4954 10.0522 14.0477 10.4999 13.4954 10.4999C12.9431 10.4999 12.4954 10.0522 12.4954 9.49991V9.49991C12.4761 7.56701 14.0273 5.98441 15.9602 5.96508C17.8931 5.94575 19.4757 7.49701 19.4951 9.42991C19.4953 9.45324 19.4953 9.47658 19.4951 9.49991V10.7585V10.7585C19.4921 11.8526 18.9805 12.8831 18.1107 13.5468L17.6548 13.8927L28.6085 22.2033V22.2033C29.0484 22.5371 29.1345 23.1644 28.8007 23.6044C28.6116 23.8535 28.3168 23.9999 28.004 23.9999L3.99617 23.9999ZM25.0317 21.9999L16.0001 15.1479L6.96852 21.9999H25.0317Z" fill="black"/>
</svg>
