<svg width="32" height="32" viewBox="0 0 32 32" fill="none" xmlns="http://www.w3.org/2000/svg">
<path fill-rule="evenodd" clip-rule="evenodd" d="M19.9665 19.4441L15.187 17.2141V17.2141C14.7225 17.0032 14.4443 16.5194 14.4958 16.0118C14.5053 15.9246 15.2427 8.77183 15.2518 8.68413V8.68413C15.298 8.26991 15.6713 7.97158 16.0855 8.01777C16.436 8.05687 16.7128 8.33358 16.7518 8.68413L17.429 15.2504L20.7481 18.2407V18.2407C21.0476 18.5071 21.0743 18.9658 20.8079 19.2653C20.5968 19.5026 20.2559 19.575 19.9665 19.4441L19.9665 19.4441ZM2.50255 15.9945H4.99965V15.9949C5.00261 9.92181 9.92658 5.00011 15.9996 4.99996V4.99996C22.0748 4.99988 26.9997 9.92468 26.9998 15.9998C26.9999 22.075 22.0751 26.9999 15.9999 27H16H16C13.4555 27.0038 10.989 26.1219 9.02378 24.5055V24.5055C8.60252 24.1481 8.55074 23.5169 8.90813 23.0956C9.26551 22.6744 9.89672 22.6226 10.318 22.98V22.98C14.1729 26.1178 19.8417 25.5364 22.9795 21.6815C26.1173 17.8265 25.5359 12.1578 21.681 9.01997C20.076 7.71355 18.0698 7.00016 16.0003 6.99997V6.99997C11.0317 6.99981 7.00299 11.026 6.99999 15.9945H9.49134V15.9945C9.77503 15.9996 10.0009 16.2336 9.99587 16.5173C9.99403 16.6208 9.96096 16.7214 9.90099 16.8058L6.40654 21.7929V21.7929C6.25032 22.019 5.94034 22.0757 5.71417 21.9195C5.66465 21.8853 5.62175 21.8424 5.58754 21.7929L2.09294 16.8058V16.8058C1.92857 16.5745 1.98277 16.2538 2.214 16.0895C2.2984 16.0295 2.39896 15.9964 2.50249 15.9945L2.50255 15.9945Z" fill="black"/>
</svg>
