<svg width="32" height="32" viewBox="0 0 32 32" fill="none" xmlns="http://www.w3.org/2000/svg">
<path fill-rule="evenodd" clip-rule="evenodd" d="M26 25H6V25C4.89543 25 4 24.1046 4 23V9V9C4 7.89543 4.89543 7 6 7H26V7C27.1046 7 28 7.89543 28 9V23V23C28 24.1046 27.1046 25 26 25V25ZM12.5004 10C10.7126 10 9.50205 11.45 9.50205 13.375C9.50205 15.6111 10.9 17 12.5004 17C14.1008 17 15.4987 15.6111 15.4987 13.375C15.4987 11.45 14.2881 10 12.5004 10ZM12.5004 18C8.94885 18 7.16925 19.8762 7.00155 21.585V21.585C6.98098 21.7926 7.1326 21.9776 7.34021 21.9982C7.35229 21.9994 7.36441 22 7.37655 22H17.6243V22C17.833 21.9995 18.0017 21.8299 18.0012 21.6212C18.0012 21.6091 18.0005 21.597 17.9993 21.585C17.8314 19.8762 16.0519 18 12.5004 18V18ZM25.5 14H18.5V14C18.2239 14 18 14.2239 18 14.5C18 14.7761 18.2239 15 18.5 15H25.5V15C25.7761 15 26 14.7761 26 14.5C26 14.2239 25.7761 14 25.5 14V14ZM25.5 17H19.5V17C19.2239 17 19 17.2239 19 17.5C19 17.7761 19.2239 18 19.5 18H25.5V18C25.7761 18 26 17.7761 26 17.5C26 17.2239 25.7761 17 25.5 17V17Z" fill="black"/>
</svg>
