<svg width="32" height="32" viewBox="0 0 32 32" fill="none" xmlns="http://www.w3.org/2000/svg">
<path fill-rule="evenodd" clip-rule="evenodd" d="M16.0104 28.0117H16.0104C9.38304 28.0117 4.01044 22.6391 4.01044 16.0117C4.01044 9.38432 9.38304 4.01172 16.0104 4.01172C22.6378 4.01172 28.0104 9.38432 28.0104 16.0117V16.0117C28.0104 22.6391 22.6378 28.0117 16.0104 28.0117H16.0104ZM16.0104 6.01172H16.0104C10.4876 6.01172 6.01044 10.4889 6.01044 16.0117C6.01044 21.5346 10.4876 26.0117 16.0104 26.0117C21.5333 26.0117 26.0104 21.5346 26.0104 16.0117V16.0118C26.0104 10.4889 21.5333 6.01182 16.0105 6.01177L16.0104 6.01172ZM16.7604 12.0117V12.0117C15.8648 12.0753 15.0846 11.4066 15.0104 10.5117V10.5117C15.0846 9.61687 15.8648 8.94816 16.7604 9.01172V9.01172C17.6561 8.94811 18.4363 9.61684 18.5104 10.5117V10.5117C18.4363 11.4066 17.6561 12.0753 16.7605 12.0117L16.7604 12.0117ZM17.4704 15.3935L16.0781 20.6481V20.6481C15.9428 21.1584 16.2093 21.6895 16.6994 21.886V21.886C16.8891 21.962 17.0135 22.1458 17.0135 22.3502V22.5117V22.5117C17.0135 22.7877 16.7899 23.0115 16.5139 23.0117H15.0195V23.0117C14.1898 23.0157 13.5139 22.3463 13.51 21.5165C13.5093 21.3861 13.5257 21.2562 13.5586 21.13L14.9512 15.8753V15.8753C15.0866 15.365 14.8201 14.8339 14.33 14.6374V14.6374C14.1403 14.5614 14.0159 14.3776 14.0159 14.1732V14.0117V14.0117C14.0159 13.7357 14.2396 13.5119 14.5156 13.5117H16.01V13.5117C16.8397 13.5078 17.5155 14.1773 17.5194 15.0069C17.52 15.1374 17.5036 15.2673 17.4707 15.3935L17.4704 15.3935Z" fill="black"/>
</svg>
