<svg width="32" height="32" viewBox="0 0 32 32" fill="none" xmlns="http://www.w3.org/2000/svg">
<path fill-rule="evenodd" clip-rule="evenodd" d="M16.0012 27.9922H16.0012C9.37382 27.9922 4.00122 22.6196 4.00122 15.9922C4.00122 9.36479 9.37382 3.99219 16.0012 3.99219C22.6286 3.99219 28.0012 9.36479 28.0012 15.9922V15.9922C28.0012 22.6196 22.6286 27.9922 16.0012 27.9922H16.0012ZM16.7512 11.9922V11.9922C15.8556 12.0557 15.0754 11.387 15.0012 10.4922V10.4922C15.0754 9.59733 15.8556 8.9286 16.7512 8.99219V8.99219C17.6469 8.9286 18.4271 9.59733 18.5012 10.4922V10.4922C18.4271 11.3871 17.6469 12.0558 16.7512 11.9922H16.7512ZM17.4615 15.3739L16.0689 20.6286V20.6286C15.9335 21.1389 16.2001 21.67 16.6901 21.8664V21.8664C16.8799 21.9424 17.0043 22.1263 17.0042 22.3307V22.4922V22.4922C17.0042 22.7682 16.7806 22.9919 16.5047 22.9922H15.0101V22.9922C14.1804 22.9962 13.5046 22.3269 13.5005 21.4972C13.4999 21.3667 13.5163 21.2367 13.5492 21.1104L14.9418 15.8557V15.8557C15.0771 15.3454 14.8106 14.8143 14.3205 14.6179V14.6179C14.1307 14.5419 14.0063 14.358 14.0064 14.1536V13.9922V13.9922C14.0064 13.7162 14.23 13.4924 14.506 13.4922H16.0004V13.4922C16.8301 13.4881 17.506 14.1574 17.5102 14.9871C17.5108 15.1176 17.4944 15.2476 17.4615 15.3739L17.4615 15.3739Z" fill="black"/>
</svg>
