<svg width="32" height="32" viewBox="0 0 32 32" fill="none" xmlns="http://www.w3.org/2000/svg">
<path fill-rule="evenodd" clip-rule="evenodd" d="M16.0104 28.0117C9.38304 28.0117 4.01044 22.6391 4.01044 16.0117C4.01044 9.38432 9.38304 4.01172 16.0104 4.01172C22.6378 4.01172 28.0104 9.38432 28.0104 16.0117C28.0104 22.6391 22.6378 28.0117 16.0104 28.0117ZM16.0104 6.01172C10.4876 6.01172 6.01044 10.4889 6.01044 16.0117C6.01044 21.5346 10.4876 26.0117 16.0104 26.0117C21.5333 26.0117 26.0104 21.5346 26.0104 16.0117C26.0104 10.4889 21.5333 6.01177 16.0104 6.01172Z" fill="black"/>
<path d="M20.9815 25.573C20.9815 22.222 18 21.0237 18 19C18 15.6514 22.5694 13.7044 25.8182 10.8737L23.5 8.5L20.209 6H14L9.61938 7C10.7425 8.77759 13 9.95107 13 11.5C13 12.9903 11 13.7329 11 16.5C11 21.2029 19.9692 23.4873 20.209 25.725C20.2497 25.8966 20.4091 26.0132 20.585 26L20.5923 25.9997C20.8177 25.9893 20.9919 25.7983 20.9815 25.573Z" fill="black"/>
</svg>
