<svg width="32" height="32" viewBox="0 0 32 32" fill="none" xmlns="http://www.w3.org/2000/svg">
<mask id="mask0_21_48" style="mask-type:alpha" maskUnits="userSpaceOnUse" x="4" y="4" width="25" height="24">
<path fill-rule="evenodd" clip-rule="evenodd" d="M24.4886 7.51473C19.8023 2.82845 12.2043 2.82845 7.51801 7.51473C2.83173 12.201 2.83173 19.799 7.518 24.4853C12.2043 29.1716 19.8023 29.1716 24.4886 24.4853C29.1748 19.799 29.1748 12.201 24.4886 7.51473Z" fill="black"/>
</mask>
<g mask="url(#mask0_21_48)">
<path fill-rule="evenodd" clip-rule="evenodd" d="M16.9893 -0.510116L23.3017 1.75386C23.4892 1.82111 23.5267 2.07017 23.3684 2.19108C22.3515 2.96776 21.417 3.75238 20.6441 4.57576C20.5253 4.7023 20.5742 4.90712 20.7336 4.97567C25.0064 6.81234 28 11.0559 28 16.0016C28 22.6289 22.6273 28.0014 16 28.0016C9.3726 28.0016 4 22.629 4 16.0016C4 12.4204 5.57001 9.20744 8.05783 7.00879C8.12956 6.9454 8.15977 6.84726 8.13778 6.75408C8.04145 6.34587 7.98926 5.92491 7.98926 5.48988C7.98926 1.54183 10.7035 0.341308 10.9685 -1.69031C10.9895 -1.85159 11.1421 -1.9719 11.2999 -1.93246L16.9893 -0.510116ZM19.3999 6.5968C19.2851 6.55531 19.1574 6.60548 19.1031 6.71471C18.7112 7.5018 18.4893 8.33676 18.4893 9.23988C18.4893 12.2754 22.9619 14.0729 22.9619 19.0993C22.9636 19.1359 22.9617 19.1718 22.9568 19.2068C22.9391 19.3314 22.9651 19.4688 23.0644 19.5461C23.5365 19.9138 23.9459 20.369 24.2652 20.8991C24.3666 21.0675 24.6149 21.0791 24.7116 20.908C25.5304 19.4583 26 17.7852 26 16.0016C26 11.6728 23.2486 7.98842 19.3999 6.5968ZM9.21337 9.07105C9.12302 8.94214 8.93859 8.92179 8.82888 9.03468C7.07871 10.8355 6 13.292 6 16.0016C6 17.2832 6.2419 18.508 6.68143 19.6339C6.76208 19.8405 7.05428 19.8346 7.15144 19.6352C8.44014 16.9906 11.4169 15.476 14.4121 16.1491C15.9369 16.4917 17.2845 17.3727 18.2108 18.6262C18.2779 18.7171 18.396 18.7548 18.5038 18.7209C19.3455 18.4555 20.2093 18.426 21.0208 18.5969C21.2416 18.6434 21.4167 18.4219 21.2722 18.2488C19.2569 15.8346 12.1035 13.195 9.21337 9.07105Z" fill="black"/>
</g>
</svg>
