<svg width="32" height="32" viewBox="0 0 32 32" fill="none" xmlns="http://www.w3.org/2000/svg">
<path fill-rule="evenodd" clip-rule="evenodd" d="M16 4.00013C22.6273 4.00029 28 9.37283 28 16.0001C27.9999 22.6274 22.6272 28 16 28.0001C9.37264 28.0001 4.00006 22.6275 4 16.0001C4 9.37273 9.3726 4.00013 16 4.00013ZM19.4075 6.59837C19.2928 6.55681 19.1652 6.60679 19.1106 6.71583C18.7152 7.50578 18.4893 8.34307 18.4893 9.25013C18.4894 12.2856 22.9619 14.0831 22.9619 19.1095C22.9636 19.1461 22.9617 19.182 22.9568 19.217C22.9391 19.3416 22.9651 19.479 23.0644 19.5564C23.5349 19.9227 23.9434 20.376 24.2622 20.9037C24.3637 21.0718 24.6117 21.0834 24.7084 20.9125C25.5292 19.4614 26 17.7862 26 16.0001C26 11.6742 23.2521 7.99212 19.4075 6.59837ZM9.20948 9.07311C9.11917 8.94397 8.93449 8.92354 8.82473 9.03661C7.07682 10.8371 6 13.2925 6 16.0001C6.00001 17.2842 6.24326 18.5111 6.68453 19.6388C6.76528 19.8452 7.05711 19.8392 7.15436 19.6401C8.44441 16.9988 11.4189 15.4867 14.4121 16.1593C15.937 16.502 17.2845 17.3829 18.2108 18.6365C18.2779 18.7273 18.396 18.7651 18.5038 18.7311C19.3464 18.4655 20.211 18.4363 21.0233 18.6079C21.2439 18.6545 21.4192 18.4333 21.2747 18.2601C19.2603 15.8439 12.097 13.2023 9.20948 9.07311Z" fill="black"/>
</svg>
