<svg width="32" height="32" viewBox="0 0 32 32" fill="none" xmlns="http://www.w3.org/2000/svg">
<path fill-rule="evenodd" clip-rule="evenodd" d="M6.96357 11.893L4.24602 10.3067C4.00627 10.1668 3.92407 9.8598 4.06181 9.6188L4.56421 8.7391L4.56665 8.73488C4.70482 8.49816 5.00874 8.41827 5.24546 8.55645L7.98307 10.1545C8.19879 10.2782 8.47263 10.2249 8.62612 10.0292C10.1111 8.19083 12.2294 6.97364 14.5654 6.6164C14.812 6.58272 14.9965 6.37312 14.9986 6.12425V3C14.9986 2.72399 15.2222 2.50019 15.4982 2.5H16.4977C16.7739 2.5 16.9977 2.72386 16.9977 3V6.12425C16.9998 6.37313 17.1843 6.58274 17.4309 6.6164C19.7669 6.97362 21.8851 8.19082 23.37 10.0292C23.5235 10.2248 23.7974 10.2782 24.0132 10.1545L26.7482 8.5578L26.7522 8.55548C26.9916 8.41877 27.2965 8.50201 27.4332 8.7414L27.9342 9.6188C28.0718 9.85981 27.9897 10.1667 27.75 10.3067L25.0324 11.8934C24.8187 12.0207 24.7307 12.2856 24.826 12.5155C25.7157 14.7534 25.7157 17.2469 24.826 19.4848C24.7308 19.7148 24.8189 19.9799 25.0329 20.1071L27.7479 21.6921C27.9887 21.8329 28.0713 22.1414 27.9329 22.3836L27.4332 23.2586L27.4308 23.2626C27.2919 23.5007 26.9863 23.5811 26.7482 23.4422L24.0132 21.8455C23.7974 21.7218 23.5235 21.7752 23.37 21.9708C21.8851 23.8092 19.7669 25.0264 17.4309 25.3836C17.1843 25.4173 16.9998 25.6269 16.9978 25.8757V29C16.9978 29.2761 16.7739 29.5 16.4978 29.5H15.4983C15.2223 29.4998 14.9986 29.276 14.9986 29V25.8757C14.9965 25.6269 14.812 25.4173 14.5655 25.3836C12.2295 25.0262 10.1113 23.8089 8.62647 21.9705C8.47295 21.7748 8.19915 21.7215 7.98342 21.8452L5.24807 23.4419L5.24387 23.4443C5.00451 23.5809 4.6997 23.4976 4.56307 23.2583L4.06332 22.3833C3.92494 22.141 4.00747 21.8325 4.24832 21.6918L6.96397 20.1068C7.1778 19.9795 7.26574 19.7145 7.17042 19.4847C6.2806 17.2468 6.2806 14.7533 7.17042 12.5154C7.26562 12.2853 7.17753 12.0203 6.96357 11.893ZM12.9269 18.4508C13.027 18.6829 12.9381 18.9531 12.7199 19.0805L10.4766 20.39C10.4567 20.4014 10.4379 20.4146 10.4205 20.4295C10.2641 20.5627 10.2453 20.7975 10.3785 20.9539C11.4694 22.1943 12.94 23.039 14.5611 23.3562C14.5834 23.3602 14.6061 23.3621 14.6288 23.3619C14.8345 23.3604 15 23.1924 14.9985 22.9867V20.1999C14.9985 19.9237 15.2224 19.6999 15.4986 19.6999L16.4976 19.7C16.7737 19.7 16.9976 19.9238 16.9976 20.2V22.9867C16.9974 23.0095 16.9993 23.0322 17.0033 23.0547C17.0392 23.2572 17.2325 23.3923 17.4351 23.3563C19.0561 23.0391 20.5267 22.1945 21.6176 20.9541C21.6324 20.9366 21.6456 20.9178 21.657 20.898C21.7593 20.7198 21.6978 20.4924 21.5196 20.3902C21.0271 20.1027 20.1501 19.5908 19.4471 19.1804C19.3319 19.1131 19.2213 19.0486 19.1179 18.9882C18.88 18.8494 18.7993 18.5442 18.9373 18.3059L19.4463 17.427C19.585 17.1874 19.892 17.1062 20.1311 17.2457L22.5385 18.6511C22.5578 18.6626 22.5782 18.6724 22.5994 18.6802C22.7928 18.7521 23.0078 18.6535 23.0797 18.4601C23.6329 16.8667 23.6329 15.1334 23.0797 13.5401C23.0718 13.5189 23.062 13.4985 23.0505 13.4791C22.9451 13.3018 22.7159 13.2435 22.5386 13.3489L20.1854 14.7226C19.9262 14.8739 19.593 14.7643 19.4742 14.4887L19.0692 13.5493C18.9691 13.3172 19.058 13.0469 19.2763 12.9195L21.5196 11.61C21.5394 11.5986 21.5582 11.5854 21.5756 11.5705C21.732 11.4373 21.7507 11.2026 21.6175 11.0462C20.5266 9.80577 19.0561 8.96109 17.435 8.64385C17.4126 8.63989 17.3899 8.63798 17.3672 8.63814C17.1615 8.63964 16.996 8.80761 16.9975 9.0133V11.8001C16.9975 12.0763 16.7736 12.3001 16.4975 12.3001L15.4986 12.3C15.2225 12.3 14.9986 12.0762 14.9986 11.8V9.0133C14.9988 8.99058 14.9969 8.9679 14.9929 8.94552C14.957 8.74298 14.7637 8.6079 14.5612 8.6438C12.94 8.96101 11.4694 9.80569 10.3786 11.0462C10.3637 11.0636 10.3505 11.0824 10.3391 11.1023C10.2369 11.2804 10.2984 11.5078 10.4766 11.61L12.8782 13.0118C13.1161 13.1507 13.1969 13.4558 13.0588 13.6942L12.5498 14.5731C12.4111 14.8126 12.1041 14.8939 11.8651 14.7543L9.45767 13.349C9.43828 13.3374 9.41789 13.3277 9.39675 13.3198C9.20332 13.248 8.98829 13.3466 8.91647 13.54C8.36319 15.1333 8.36319 16.8667 8.91647 18.46C8.92432 18.4812 8.93408 18.5016 8.94563 18.521C9.05107 18.6983 9.28028 18.7565 9.45757 18.6511L11.8107 17.2775C12.0699 17.1262 12.4031 17.2357 12.5219 17.5113L12.9269 18.4508Z" fill="black"/>
</svg>
