<svg width="32" height="32" viewBox="0 0 32 32" fill="none" xmlns="http://www.w3.org/2000/svg">
<path d="M16.0029 28C22.6303 28 28.0029 22.6274 28.0029 16C28.0029 9.3726 22.6303 4 16.0029 4C9.3757 4.0002 4.00293 9.37272 4.00293 16C4.00293 22.6273 9.3757 27.9998 16.0029 28ZM9.27637 22.7246C9.07539 22.9127 8.7595 22.9021 8.57129 22.7012C5.94688 19.7841 5.33384 15.7106 6.73004 12.2521C6.81422 12.0436 7.10417 12.0594 7.17531 12.2727L7.67578 13.7734C7.85073 14.2969 8.41673 14.5795 8.94043 14.4053C9.4646 14.2309 9.74857 13.6648 9.57422 13.1406L8.5127 9.95801L8.41404 9.67914C8.38442 9.59541 8.40123 9.50207 8.45869 9.43434C8.49599 9.39038 8.53367 9.34661 8.57227 9.30371C9.04378 8.77973 9.55901 8.31853 10.1063 7.9182C10.24 7.82033 10.4284 7.88354 10.4811 8.04067L10.5059 8.11426C10.6808 8.63769 11.2468 8.92028 11.7705 8.74609C12.2944 8.57152 12.5776 8.00551 12.4033 7.48145L12.2357 6.97939C12.1942 6.85506 12.2557 6.71947 12.3778 6.6719C13.0152 6.42364 13.6733 6.24168 14.3418 6.12851C14.4613 6.10827 14.5768 6.17954 14.6151 6.29458L14.75 6.69922C14.9247 7.22331 15.4915 7.50676 16.0156 7.33203C16.5395 7.15717 16.8222 6.59039 16.6475 6.06641V6.06641C16.6382 6.03943 16.6592 6.01167 16.6877 6.01356C18.8492 6.1572 20.9805 6.99627 22.7158 8.55762C22.7207 8.56219 22.7248 8.5675 22.7295 8.57227C22.9226 8.76853 22.9209 9.08419 22.7246 9.27734L9.29102 22.71C9.28626 22.7148 9.28131 22.72 9.27637 22.7246ZM16.165 10.9434C16.3411 11.463 16.9025 11.7442 17.4238 11.5732C17.9488 11.401 18.2348 10.8355 18.0625 10.3105L17.709 9.25C17.5329 8.73027 16.9706 8.44903 16.4492 8.62012C15.9244 8.79245 15.6383 9.35794 15.8105 9.88281L16.165 10.9434ZM12.627 14.4805C12.8017 15.0045 13.3685 15.2879 13.8926 15.1133C14.4167 14.9386 14.7001 14.3717 14.5254 13.8477L13.4639 10.665C13.2892 10.141 12.7233 9.85762 12.1992 10.0322C11.6751 10.2069 11.3917 10.7737 11.5664 11.2979L12.627 14.4805ZM9.09082 18.0176C9.26688 18.5372 9.82827 18.8184 10.3496 18.6475C10.8745 18.4752 11.1605 17.9097 10.9883 17.3848L10.626 16.2979C10.444 15.7762 9.87319 15.5007 9.35156 15.6826C8.83008 15.8647 8.55441 16.4355 8.73633 16.957L9.09082 18.0176Z" fill="black"/>
</svg>
