<svg width="32" height="32" viewBox="0 0 32 32" fill="none" xmlns="http://www.w3.org/2000/svg">
<mask id="mask0_21_66" style="mask-type:alpha" maskUnits="userSpaceOnUse" x="4" y="4" width="24" height="24">
<circle cx="16" cy="16" r="12" fill="#D9D9D9"/>
</mask>
<g mask="url(#mask0_21_66)">
<path fill-rule="evenodd" clip-rule="evenodd" d="M28.0033 16C28.0033 22.6274 22.6307 28 16.0033 28C9.3759 28 4.0033 22.6274 4.0033 16C4.0033 9.3726 9.3759 4 16.0033 4C22.6307 4 28.0033 9.3726 28.0033 16ZM22.7155 8.55785C18.6038 4.85825 12.2714 5.19235 8.5718 9.30408C5.14508 13.1125 5.14507 18.893 8.57177 22.7015C8.76002 22.9025 9.07555 22.9128 9.27652 22.7245C9.28147 22.7199 9.28632 22.7152 9.29107 22.7103L22.7243 9.27708C22.9206 9.08394 22.9231 8.76825 22.73 8.57198C22.7252 8.56717 22.7204 8.56247 22.7155 8.55785Z" fill="black"/>
<path fill-rule="evenodd" clip-rule="evenodd" d="M8.73684 16.9566C8.55489 16.435 8.83025 15.8647 9.35188 15.6827C9.87351 15.5008 10.4439 15.7761 10.6258 16.2978C10.6289 16.3065 10.6318 16.3152 10.6346 16.324L10.9883 17.3849C11.1606 17.9098 10.8747 18.475 10.3497 18.6472C9.82835 18.8183 9.26646 18.5375 9.09039 18.0177L8.73684 16.9566ZM7.676 13.7736L6.61516 10.5905C6.44043 10.0664 6.72364 9.49989 7.24774 9.32515C7.77183 9.15042 8.33834 9.43364 8.51307 9.95773L9.57398 13.1407C9.74835 13.665 9.46472 14.2313 8.94048 14.4057C8.41678 14.5799 7.85095 14.297 7.676 13.7736ZM11.5664 11.2974C11.3917 10.7733 11.6749 10.2068 12.199 10.032C12.7231 9.85733 13.2896 10.1406 13.4643 10.6647L14.5252 13.8477C14.7 14.3718 14.4168 14.9383 13.8927 15.113C13.3686 15.2877 12.8021 15.0045 12.6273 14.4804L11.5664 11.2974ZM10.5056 8.11434L10.1518 7.05347C9.97746 6.52923 10.2611 5.96289 10.7853 5.78853C11.309 5.61434 11.8749 5.8972 12.0498 6.42064L12.4036 7.48151C12.5779 8.00575 12.2943 8.57209 11.7701 8.74646C11.2464 8.92064 10.6805 8.63778 10.5056 8.11434ZM15.8109 9.88257C15.6387 9.35763 15.9246 8.79245 16.4495 8.62019C16.9709 8.4491 17.5328 8.72998 17.7089 9.24971L18.0626 10.3106C18.2349 10.8355 17.949 11.4007 17.424 11.573C16.9026 11.744 16.3407 11.4632 16.1647 10.9434L15.8109 9.88257ZM14.7501 6.69942L13.6892 3.51641C13.5145 2.99232 13.7977 2.42581 14.3218 2.25108C14.8459 2.07635 15.4124 2.35957 15.5871 2.88366L16.6479 6.06681C16.8226 6.5909 16.5394 7.1574 16.0153 7.33214C15.4912 7.50687 14.9249 7.22351 14.7501 6.69942Z" fill="black"/>
</g>
</svg>
