<svg width="32" height="32" viewBox="0 0 32 32" fill="none" xmlns="http://www.w3.org/2000/svg">
<path fill-rule="evenodd" clip-rule="evenodd" d="M14.5751 25.4268H14.5751C12.7563 24.4769 10.732 23.9884 8.68012 24.0044V24.0044C7.51741 24.0152 6.36078 24.1734 5.23787 24.4752V24.4752C4.94333 24.5704 4.62742 24.4088 4.53226 24.1142C4.51404 24.0578 4.50488 23.999 4.50512 23.9397V7.63182V7.63177C4.50503 7.39679 4.65105 7.18652 4.87125 7.1045H4.87126C6.10562 6.7234 7.38836 6.52169 8.68012 6.50556H8.68012C10.9906 6.47795 13.2615 7.10658 15.2289 8.31841V8.31841C15.4026 8.43423 15.5064 8.62964 15.5051 8.83841V24.8919V24.8919C15.5027 25.235 15.2225 25.5113 14.8793 25.5088C14.7725 25.508 14.6678 25.4798 14.5751 25.4268H14.5751ZM27.5051 7.63177V23.9397V23.9397C27.5063 24.2492 27.2564 24.5011 26.9469 24.5024C26.8876 24.5026 26.8287 24.4934 26.7724 24.4752V24.4752C25.6495 24.1734 24.4928 24.0152 23.3301 24.0044V24.0044C21.2783 23.9884 19.2539 24.4769 17.4351 25.4268V25.4268C17.1372 25.5972 16.7576 25.4939 16.5872 25.196C16.5341 25.1033 16.5059 24.9986 16.5051 24.8918V8.83842V8.83842C16.5038 8.62964 16.6077 8.43423 16.7814 8.31842H16.7814C18.7487 7.10659 21.0196 6.47795 23.3301 6.50557H23.3301C24.6219 6.5217 25.9047 6.72341 27.1391 7.10452V7.10452C27.3593 7.18659 27.5052 7.39686 27.5051 7.63182V7.63177Z" fill="black"/>
</svg>
