<svg width="32" height="32" viewBox="0 0 32 32" fill="none" xmlns="http://www.w3.org/2000/svg">
<path fill-rule="evenodd" clip-rule="evenodd" d="M16 28C9.3726 28 4 22.6274 4 16C4 9.3726 9.3726 4 16 4C22.6274 4 28 9.3726 28 16C28 22.6274 22.6274 28 16 28ZM16 6C10.4772 6 6 10.4772 6 16C6 21.5229 10.4772 26 16 26C21.5229 26 26 21.5228 26 16C26 10.4772 21.5228 6.00005 16 6Z" fill="black"/>
<path fill-rule="evenodd" clip-rule="evenodd" d="M27.4657 16.8838C26.9777 17.1418 26.3729 16.9553 26.1149 16.4673L26.1144 16.4663C25.5879 15.4697 25.2863 15 24.7985 15C24.3107 15 24.0095 15.4697 23.4825 16.4668C22.918 17.536 22.1448 19 20.3981 19C18.6515 19 17.8781 17.536 17.3136 16.4668C16.787 15.4697 16.4855 15 15.9979 15C15.5103 15 15.2088 15.4697 14.6819 16.4668C14.1174 17.536 13.3442 19 11.5974 19C9.85067 19 9.07772 17.536 8.51322 16.4672C7.98627 15.4697 7.68502 15 7.19717 15C6.70932 15 6.40787 15.4697 5.88147 16.4663C5.62367 16.9547 5.01872 17.1417 4.5303 16.8839C4.04187 16.6261 3.85492 16.0211 4.11272 15.5327C4.67717 14.4638 5.45022 13 7.19717 13C8.94412 13 9.71717 14.4639 10.2817 15.5332C10.8083 16.5302 11.1098 17 11.5974 17C12.085 17 12.3865 16.5302 12.9134 15.5332C13.4779 14.4639 14.2512 13 15.9979 13C17.7447 13 18.5176 14.4639 19.0823 15.5332C19.609 16.5302 19.9105 17 20.3981 17C20.8857 17 21.1872 16.5302 21.714 15.5332C22.2785 14.4639 23.0519 13 24.7985 13C26.5452 13 27.3185 14.4638 27.883 15.5327C28.1408 16.021 27.954 16.6259 27.4657 16.8838Z" fill="black"/>
</svg>
