<svg width="32" height="32" viewBox="0 0 32 32" fill="none" xmlns="http://www.w3.org/2000/svg">
<path fill-rule="evenodd" clip-rule="evenodd" d="M16.0003 4C22.6276 4.00009 28.0003 9.37266 28.0003 16C28.0003 22.6273 22.6276 27.9999 16.0003 28C9.39729 28 4.03967 22.6669 4.00026 16.0732C3.99609 16.0176 3.99594 15.9614 4.00124 15.9053C4.05214 9.32148 9.40447 4 16.0003 4ZM24.7991 15C24.3113 15 24.0096 15.4697 23.4827 16.4668C22.9182 17.536 22.1444 19 20.3977 19C18.6514 18.9997 17.8782 17.5359 17.3137 16.4668C16.7872 15.4699 16.4857 15.0002 15.9983 15C15.5107 15 15.2088 15.4697 14.6819 16.4668C14.1174 17.536 13.3444 18.9998 11.5979 19C9.85116 19 9.07745 17.5356 8.51295 16.4668C7.98626 15.4698 7.68514 15.0002 7.19752 15C6.75976 15 6.4717 15.3781 6.03688 16.1759C6.01609 16.214 6.00561 16.2575 6.00689 16.301C6.16604 21.6846 10.5781 26 16.0003 26C21.42 25.9999 25.8289 21.6882 25.9916 16.3079C25.9929 16.2644 25.9825 16.2208 25.9617 16.1827C25.5251 15.3809 25.2377 15.0003 24.7991 15ZM16.0003 6C11.6456 6 7.94171 8.78367 6.56941 12.6685C6.50333 12.8555 6.68028 13.0389 6.87747 13.0172C6.9804 13.0059 7.08703 13 7.19752 13C8.94423 13.0001 9.71704 14.4639 10.2815 15.5332C10.8082 16.5303 11.1103 17 11.5979 17C12.0853 16.9997 12.3866 16.5299 12.9133 15.5332C13.4778 14.4639 14.2516 13 15.9983 13C17.7448 13.0002 18.5176 14.4639 19.0823 15.5332C19.6088 16.5299 19.9104 16.9997 20.3977 17C20.8853 17 21.1873 16.5303 21.7141 15.5332C22.2786 14.4639 23.0524 13 24.7991 13C24.9101 13 25.0172 13.006 25.1206 13.0175C25.3179 13.0394 25.4951 12.856 25.429 12.6688C24.0568 8.78415 20.3548 6.00011 16.0003 6Z" fill="black"/>
</svg>
