<svg width="32" height="32" viewBox="0 0 32 32" fill="none" xmlns="http://www.w3.org/2000/svg">
<path d="M16.0002 4C22.6275 4.00009 28.0002 9.37266 28.0002 16C28.0002 22.6273 22.6275 27.9999 16.0002 28C9.39721 28 4.03959 22.6669 4.00018 16.0732C3.99601 16.0176 3.99587 15.9614 4.00116 15.9053C4.05207 9.32148 9.40439 4 16.0002 4ZM24.799 15C24.3112 15 24.0095 15.4697 23.4826 16.4668C22.9181 17.536 22.1443 19 20.3976 19C18.6513 18.9997 17.8781 17.5359 17.3137 16.4668C16.7872 15.4699 16.4857 15.0002 15.9982 15C15.5106 15 15.2087 15.4697 14.6818 16.4668C14.1174 17.536 13.3443 18.9998 11.5978 19C9.85109 19 9.07738 17.5356 8.51288 16.4668C7.98619 15.4698 7.68506 15.0002 7.19745 15C6.74912 15 6.45781 15.3966 6.00507 16.2344C6.12962 21.6489 10.5557 26 16.0002 26C21.4423 25.9999 25.8652 21.6525 25.9933 16.2412C25.5387 15.3994 25.2482 15.0003 24.799 15ZM16.0002 6C11.4836 6 7.667 8.9946 6.42596 13.1064C6.65995 13.0383 6.91616 13 7.19745 13C8.94416 13.0001 9.71697 14.4639 10.2814 15.5332C10.8081 16.5303 11.1102 17 11.5978 17C12.0852 16.9997 12.3865 16.5299 12.9133 15.5332C13.4778 14.4639 14.2515 13 15.9982 13C17.7447 13.0002 18.5175 14.4639 19.0822 15.5332C19.6087 16.5299 19.9103 16.9997 20.3976 17C20.8852 17 21.1873 16.5303 21.7141 15.5332C22.2786 14.4639 23.0524 13 24.799 13C25.0812 13 25.3378 13.0388 25.5724 13.1074C24.3316 8.99541 20.5169 6.00012 16.0002 6Z" fill="black"/>
</svg>
