<svg width="32" height="32" viewBox="0 0 32 32" fill="none" xmlns="http://www.w3.org/2000/svg">
<path fill-rule="evenodd" clip-rule="evenodd" d="M16.0104 28.0117C9.38304 28.0117 4.01044 22.6391 4.01044 16.0117C4.01044 9.38432 9.38304 4.01172 16.0104 4.01172C22.6378 4.01172 28.0104 9.38432 28.0104 16.0117C28.0104 22.6391 22.6378 28.0117 16.0104 28.0117ZM16.0104 6.01172C10.4876 6.01172 6.01044 10.4889 6.01044 16.0117C6.01044 21.5346 10.4876 26.0117 16.0104 26.0117C21.5333 26.0117 26.0104 21.5346 26.0104 16.0117C26.0104 10.4889 21.5333 6.01177 16.0104 6.01172Z" fill="black"/>
<path fill-rule="evenodd" clip-rule="evenodd" d="M27.4657 16.8838C26.9777 17.1418 26.3729 16.9553 26.1149 16.4673L26.1143 16.4663C25.5879 15.4697 25.2863 15 24.7985 15C24.3107 15 24.0094 15.4697 23.4825 16.4668C22.918 17.536 22.1447 19 20.3981 19C18.6514 19 17.8781 17.536 17.3136 16.4668C16.787 15.4697 16.4855 15 15.9979 15C15.5103 15 15.2088 15.4697 14.6819 16.4668C14.1174 17.536 13.3441 19 11.5974 19C9.85064 19 9.07769 17.536 8.51319 16.4672C7.98624 15.4697 7.68499 15 7.19714 15C6.70929 15 6.40784 15.4697 5.88144 16.4663C5.62364 16.9547 5.01869 17.1417 4.53027 16.8839C4.04184 16.6261 3.85489 16.0211 4.11269 15.5327C4.67714 14.4638 5.45019 13 7.19714 13C8.94409 13 9.71714 14.4639 10.2816 15.5332C10.8083 16.5303 11.1098 17 11.5974 17C12.085 17 12.3864 16.5303 12.9134 15.5332C13.4779 14.4639 14.2511 13 15.9979 13C17.7446 13 18.5176 14.4639 19.0823 15.5332C19.609 16.5303 19.9105 17 20.3981 17C20.8857 17 21.1872 16.5303 21.714 15.5332C22.2785 14.4639 23.0518 13 24.7985 13C26.5451 13 27.3185 14.4638 27.883 15.5327C28.1408 16.021 27.954 16.6259 27.4657 16.8838Z" fill="black"/>
</svg>
