<svg width="32" height="32" viewBox="0 0 32 32" fill="none" xmlns="http://www.w3.org/2000/svg">
<path fill-rule="evenodd" clip-rule="evenodd" d="M26.5105 7.00338H5.51047V7.00338C4.68205 7.00338 4.01047 7.67495 4.01047 8.50338V9.63648V9.63643C4.01047 10.1087 4.23291 10.5534 4.61083 10.8367L15.1115 18.707V18.707C15.6445 19.1072 16.3778 19.1072 16.9108 18.707L27.41 10.8377V10.8377C27.7879 10.5543 28.0103 10.1097 28.0103 9.6374V8.5034V8.5034C28.0103 7.67503 27.3389 7.00349 26.5105 7.0034L26.5105 7.00338ZM27.4185 12.0804L17.5106 19.5072V19.5072C16.6219 20.1733 15.4003 20.1733 14.5117 19.5072L4.60242 12.0795H4.60242C4.43895 11.9569 4.20703 11.99 4.08442 12.1535C4.03638 12.2175 4.01041 12.2955 4.01042 12.3755V23.5034V23.5034C4.01042 24.3318 4.682 25.0034 5.51042 25.0034H26.5104V25.0034C27.3388 25.0034 28.0104 24.3318 28.0104 23.5034V12.3764V12.3765C28.0104 12.1721 27.8448 12.0065 27.6404 12.0065C27.5604 12.0065 27.4826 12.0324 27.4185 12.0804L27.4185 12.0804Z" fill="black"/>
</svg>
