<svg width="32" height="32" viewBox="0 0 32 32" fill="none" xmlns="http://www.w3.org/2000/svg">
<path fill-rule="evenodd" clip-rule="evenodd" d="M27.505 6.75717V22.7416V22.7416C27.505 23.1416 27.2666 23.5031 26.899 23.6607L21.5507 25.953V25.953C21.17 26.1162 20.7291 25.9398 20.5659 25.5591C20.5258 25.4658 20.5052 25.3652 20.5052 25.2636V9.27917V9.2791C20.5052 8.87906 20.7436 8.51751 21.1113 8.35994L26.46 6.06777V6.06777C26.8408 5.90484 27.2816 6.08149 27.4445 6.46231C27.4844 6.5555 27.505 6.65581 27.505 6.75717L27.505 6.75717ZM10.8992 23.6607L5.5506 25.953V25.953C5.16992 26.1162 4.72897 25.94 4.56571 25.5593C4.52565 25.4659 4.505 25.3653 4.505 25.2636V9.27917V9.27919C4.505 8.8791 4.74347 8.51751 5.11124 8.35997L10.4597 6.06777V6.06777C10.8405 5.9047 11.2814 6.08118 11.4444 6.46194C11.4844 6.55524 11.505 6.65567 11.505 6.75717V22.7416V22.7417C11.505 23.1416 11.2667 23.5031 10.8991 23.6607L10.8992 23.6607ZM13.5506 6.06777L18.8992 8.35997V8.35997C19.2668 8.51762 19.5051 8.87917 19.505 9.27917V25.2636V25.2636C19.505 25.6778 19.1692 26.0136 18.755 26.0136C18.6534 26.0136 18.5529 25.993 18.4596 25.953L13.1111 23.6607V23.6607C12.7434 23.5031 12.505 23.1416 12.505 22.7416V6.75717V6.75706C12.505 6.34285 12.8408 6.00706 13.255 6.00706C13.3567 6.00706 13.4573 6.02773 13.5507 6.06781L13.5506 6.06777Z" fill="black"/>
</svg>
