<svg width="32" height="32" viewBox="0 0 32 32" fill="none" xmlns="http://www.w3.org/2000/svg">
<path fill-rule="evenodd" clip-rule="evenodd" d="M16.0012 27.9922V27.9922C10.4783 27.9922 6.00117 23.5151 6.00117 17.9922V17.9922V10.4922V10.4922C6.00117 10.2161 6.22503 9.99222 6.50117 9.99222H12.5012V9.99222C12.7773 9.99222 13.0012 10.2161 13.0012 10.4922V17.9922V17.9922C13.0012 19.6491 14.3443 20.9922 16.0012 20.9922C17.658 20.9922 19.0012 19.6491 19.0012 17.9922C19.0012 17.9922 19.0012 17.9922 19.0012 17.9922V10.4922V10.4922C19.0012 10.2161 19.225 9.99222 19.5012 9.99222H25.5012V9.99222C25.7773 9.99222 26.0012 10.2161 26.0012 10.4922V17.9922V17.9922C26.0012 23.5151 21.524 27.9922 16.0012 27.9922V27.9922ZM25.5012 8.99222H19.5012V8.99222C19.225 8.99222 19.0012 8.76836 19.0012 8.49222V8.49222V5.99222V5.99222C19.0012 5.43993 19.4489 4.99222 20.0012 4.99222H25.0012V4.99222C25.5535 4.99222 26.0012 5.43993 26.0012 5.99222V8.49222V8.49222C26.0012 8.76836 25.7773 8.99222 25.5012 8.99222C25.5011 8.99222 25.5011 8.99222 25.5011 8.99222H25.5012ZM12.5012 8.99222H6.50118V8.99222C6.22503 8.99222 6.00118 8.76836 6.00118 8.49222V8.49222V5.99222V5.99222C6.00118 5.43993 6.44889 4.99222 7.00118 4.99222H12.0012V4.99222C12.5535 4.99222 13.0012 5.43993 13.0012 5.99222V8.49222V8.49222C13.0012 8.76836 12.7773 8.99222 12.5012 8.99222C12.5012 8.99222 12.5011 8.99222 12.5011 8.99222H12.5012Z" fill="black"/>
</svg>
