<svg width="32" height="32" viewBox="0 0 32 32" fill="none" xmlns="http://www.w3.org/2000/svg">
<path fill-rule="evenodd" clip-rule="evenodd" d="M29.8723 21.1789C29.8145 21.4022 29.5866 21.5364 29.3633 21.4786C29.2911 21.4599 29.2253 21.4222 29.1726 21.3695L23.2414 15.3688C22.9175 15.0402 22.9173 14.5125 23.241 14.1838L26.2904 11.1016C26.4533 10.9412 26.7153 10.9433 26.8757 11.1062C26.9583 11.1901 27.0012 11.3052 26.9938 11.4227C26.9938 14.8764 30.7291 17.8362 29.8723 21.1789ZM17.8094 8.7523C17.4806 9.07601 16.9529 9.07581 16.6244 8.75185L10.6239 2.82075C10.4606 2.65776 10.4604 2.39329 10.6234 2.23004C10.6762 2.17718 10.7421 2.13945 10.8145 2.12076C14.1571 1.26436 17.1169 4.99951 20.5705 4.99951C20.7986 4.98509 20.9952 5.15835 21.0096 5.38648C21.0171 5.504 20.9741 5.61911 20.8915 5.70301L17.8094 8.7523Z" fill="black"/>
<path d="M7.8503 27.8484C7.65527 28.0436 7.33891 28.0437 7.14369 27.8487L4.14551 24.8475C3.95037 24.6521 3.95037 24.3356 4.14551 24.1402L22.6519 5.63575C22.8469 5.44056 23.1632 5.44039 23.3584 5.63537L26.3567 8.63665C26.5518 8.83204 26.5518 9.14852 26.3567 9.3439L7.8503 27.8484Z" fill="black"/>
</svg>
