<svg width="32" height="32" viewBox="0 0 32 32" fill="none" xmlns="http://www.w3.org/2000/svg">
<path d="M23 20.4399C23 14.6754 12.9069 15.0519 12.9069 11.5715C12.9069 9.88699 14.4376 9.06425 16.213 9.06425C19.1987 9.06425 19.7303 11.0839 21.0826 11.0839C22.0402 11.0839 22.5012 10.449 22.5012 9.73747C22.5012 8.08372 20.1199 6.83195 17.8364 6.39841V4.80252C17.8364 4.32446 17.6561 3.86598 17.335 3.52795C17.014 3.18991 16.5785 3 16.1245 3C15.6705 3 15.2351 3.18991 14.914 3.52795C14.593 3.86598 14.4126 4.32446 14.4126 4.80252V6.45477C11.9229 7.05135 9.78139 8.86964 9.78139 11.8338C9.78139 17.3706 19.873 17.1467 19.873 21.0357C19.873 22.3829 18.4879 23.7301 16.213 23.7301C12.8013 23.7301 11.6646 21.2987 10.2788 21.2987C9.6037 21.2987 9 21.8968 9 22.7984C9 24.2305 11.2799 25.9541 14.4148 26.4358L14.4126 26.447V28.248C14.4255 28.7173 14.6116 29.1628 14.9313 29.4899C15.2511 29.817 15.6794 30 16.1252 30C16.5711 30 16.9994 29.817 17.3191 29.4899C17.6389 29.1628 17.825 28.7173 17.8379 28.248V26.447C17.8379 26.426 17.8279 26.4095 17.8264 26.3907C20.6473 25.8362 23 23.8999 23 20.4399V20.4399Z" fill="black"/>
</svg>
