<svg width="32" height="32" viewBox="0 0 32 32" fill="none" xmlns="http://www.w3.org/2000/svg">
<path fill-rule="evenodd" clip-rule="evenodd" d="M28.004 15.9922C28.004 9.36479 22.6314 3.99219 16.004 3.99219C9.37657 3.99219 4.00397 9.36479 4.00397 15.9922C4.00397 22.6196 9.37657 27.9922 16.004 27.9922H16.004C22.6314 27.9922 28.004 22.6196 28.004 15.9922ZM6.57732 16.3436C6.48956 16.4891 6.30053 16.5358 6.1551 16.4481C6.06486 16.3936 6.0088 16.2968 6.00652 16.1914C6.00482 16.1252 6.00397 16.0588 6.00397 15.9922C6.00397 10.4693 10.4811 5.99219 16.004 5.99219C21.5268 5.99219 26.004 10.4693 26.004 15.9922C26.004 16.0589 26.0031 16.1253 26.0015 16.1914C25.9978 16.3612 25.8572 16.4959 25.6873 16.4922C25.582 16.4899 25.4851 16.4339 25.4307 16.3436C22.3231 11.1374 15.5834 9.43619 10.3772 12.5438C8.81536 13.476 7.50962 14.7818 6.57734 16.3436H6.57732Z" fill="black"/>
</svg>
