<svg width="32" height="32" viewBox="0 0 32 32" fill="none" xmlns="http://www.w3.org/2000/svg">
<path d="M11.0038 15.9937C11.0038 13.2323 13.2424 10.9937 16.0038 10.9937C18.7652 10.9938 21.0038 13.2323 21.0038 15.9937C21.0038 18.7551 18.7653 20.9937 16.0038 20.9937C13.2424 20.9937 11.0038 18.7551 11.0038 15.9937Z" fill="black"/>
<path d="M13.6823 2.72436C14.9515 1.45534 17.0098 1.45523 18.2789 2.72436C18.6775 3.12296 18.95 3.59992 19.0983 4.10522C19.1148 4.16123 19.1295 4.21767 19.1426 4.27439C19.1641 4.36761 19.2333 4.44337 19.3253 4.46983C24.3346 5.91184 27.9995 10.5264 27.9996 15.9998C27.9996 16.9966 27.8777 17.9651 27.6485 18.8912C27.6256 18.984 27.6567 19.0816 27.7262 19.1473C28.1493 19.5466 28.4708 20.0645 28.6325 20.6677C29.0967 22.4012 28.0679 24.1825 26.3346 24.6472C25.7248 24.8106 25.1091 24.7885 24.5468 24.6165C24.4552 24.5885 24.3547 24.6099 24.2854 24.6762C22.1313 26.734 19.2139 27.9998 15.9996 27.9998C12.7797 27.9996 9.85745 26.7301 7.70228 24.6658C7.63238 24.5989 7.53082 24.5776 7.43851 24.6067C6.86957 24.786 6.24552 24.8131 5.62659 24.6472C3.89306 24.1826 2.86445 22.4013 3.32874 20.6677C3.49395 20.0512 3.82646 19.5243 4.2636 19.1216C4.33463 19.0562 4.3668 18.9578 4.34382 18.864C4.11907 17.9462 3.99964 16.9868 3.99964 15.9998C3.99976 10.5418 7.64495 5.9379 12.6328 4.48221C12.7248 4.45535 12.7939 4.37908 12.8155 4.28567C12.9481 3.71363 13.2365 3.17011 13.6823 2.72436ZM19.1188 6.49718C19.0014 6.45867 18.8752 6.51529 18.8147 6.62299C18.6728 6.87544 18.4948 7.11303 18.2799 7.32788C17.0107 8.59703 14.9534 8.59706 13.6842 7.32788C13.4718 7.11543 13.2952 6.88081 13.154 6.63155C13.0931 6.52401 12.9667 6.46777 12.8494 6.50668C8.87037 7.82655 5.99975 11.5779 5.99964 15.9998C5.99964 16.7052 6.07525 17.3932 6.21467 18.0573C6.23981 18.177 6.34997 18.2576 6.47231 18.2578C6.74871 18.2582 7.02966 18.294 7.30921 18.3689C9.04282 18.8335 10.0715 20.6157 9.60706 22.3494C9.53252 22.6276 9.42299 22.887 9.28581 23.1255C9.22488 23.2313 9.23961 23.3668 9.33059 23.4483C11.1001 25.034 13.4366 25.9997 15.9996 25.9998C18.5498 25.9997 20.8756 25.0434 22.6419 23.4719C22.734 23.39 22.7486 23.2531 22.6864 23.1466C22.5439 22.9024 22.4308 22.6356 22.3541 22.3494C21.8897 20.6156 22.9183 18.8334 24.652 18.3689C24.9433 18.2908 25.2361 18.2555 25.5236 18.2582C25.647 18.2594 25.7588 18.1786 25.7842 18.0579C25.9238 17.3936 25.9996 16.7055 25.9996 15.9998C25.9995 11.5662 23.1142 7.80761 19.1188 6.49718Z" fill="black"/>
</svg>
