<svg width="32" height="32" viewBox="0 0 32 32" fill="none" xmlns="http://www.w3.org/2000/svg">
<path fill-rule="evenodd" clip-rule="evenodd" d="M8.01044 27.0104V27.0104C6.35358 27.0104 5.01044 25.6673 5.01044 24.0104V24.0104V5.51042C5.01044 5.23422 5.45819 5.01042 6.01044 5.01042C6.56269 5.01042 7.01044 5.23422 7.01044 5.51042C7.01044 5.78662 7.45819 6.01042 8.01044 6.01042C8.56269 6.01042 9.01044 5.78652 9.01044 5.51042C9.01044 5.23432 9.45814 5.01042 10.0104 5.01042C10.5627 5.01042 11.0104 5.23422 11.0104 5.51042C11.0104 5.78662 11.4581 6.01042 12.0104 6.01042C12.5627 6.01042 13.0104 5.78652 13.0104 5.51042C13.0104 5.23432 13.4581 5.01042 14.0104 5.01042C14.5627 5.01042 15.0104 5.23422 15.0104 5.51042C15.0104 5.78662 15.4581 6.01042 16.0104 6.01042C16.5627 6.01042 17.0104 5.78652 17.0104 5.51042C17.0104 5.23432 17.4581 5.01042 18.0104 5.01042C18.5628 5.01042 19.0104 5.23422 19.0104 5.51042C19.0104 5.78662 19.4581 6.01042 20.0104 6.01042C20.5628 6.01042 21.0104 5.78652 21.0104 5.51042C21.0104 5.23432 21.4581 5.01042 22.0104 5.01042C22.5628 5.01042 23.0104 5.23422 23.0104 5.51042C23.0104 5.78662 23.4581 6.01042 24.0104 6.01042C24.5628 6.01042 25.0104 5.78652 25.0104 5.51042C25.0104 5.23432 25.4581 5.01042 26.0104 5.01042C26.5628 5.01042 27.0104 5.23422 27.0104 5.51042V24.0104C27.0104 25.6673 25.6673 27.0104 24.0104 27.0104H8.01044ZM8.51044 16.0104V16.0104C8.23429 16.0104 8.01044 16.2343 8.01044 16.5104V22.5104V22.5104C8.01044 22.7866 8.23429 23.0104 8.51044 23.0104H13.5104V23.0104C13.7866 23.0104 14.0104 22.7866 14.0104 22.5104V16.5104C14.0104 16.2343 13.7866 16.0104 13.5104 16.0104H8.51044ZM22.0104 10.5104C22.0104 10.2343 21.7866 10.0104 21.5104 10.0104H10.5104V10.0104C10.2343 10.0104 10.0104 10.2343 10.0104 10.5104V10.5104V11.5104V11.5104C10.0104 11.7866 10.2343 12.0104 10.5104 12.0104H21.5104V12.0104C21.7866 12.0104 22.0104 11.7866 22.0104 11.5104V10.5104ZM23.5104 16.0104H16.5104V16.0104C16.2343 16.0104 16.0104 16.2343 16.0104 16.5104C16.0104 16.7866 16.2343 17.0104 16.5104 17.0104H23.5104V17.0104C23.7866 17.0104 24.0104 16.7866 24.0104 16.5104C24.0104 16.2343 23.7866 16.0104 23.5104 16.0104V16.0104ZM23.5104 19.0104H16.5104V19.0104C16.2343 19.0104 16.0104 19.2343 16.0104 19.5104C16.0104 19.7866 16.2343 20.0104 16.5104 20.0104H23.5104V20.0104C23.7866 20.0104 24.0104 19.7866 24.0104 19.5104C24.0104 19.2343 23.7866 19.0104 23.5104 19.0104V19.0104ZM23.5104 22.0104H16.5104V22.0104C16.2343 22.0104 16.0104 22.2343 16.0104 22.5104C16.0104 22.7866 16.2343 23.0104 16.5104 23.0104H23.5104V23.0104C23.7866 23.0104 24.0104 22.7866 24.0104 22.5104C24.0104 22.2343 23.7866 22.0104 23.5104 22.0104V22.0104Z" fill="black"/>
</svg>
