<svg width="32" height="32" viewBox="0 0 32 32" fill="none" xmlns="http://www.w3.org/2000/svg">
<path fill-rule="evenodd" clip-rule="evenodd" d="M16.0104 28.0117V28.0117C9.38298 28.0117 4.01038 22.6391 4.01038 16.0117C4.01038 9.38432 9.38298 4.01172 16.0104 4.01172C22.6378 4.01172 28.0104 9.38432 28.0104 16.0117V16.0117C28.0104 22.6391 22.6378 28.0117 16.0104 28.0117V28.0117ZM16.0104 6.01172V6.01172C10.4875 6.01172 6.01038 10.4889 6.01038 16.0117C6.01038 21.5346 10.4875 26.0117 16.0104 26.0117C21.5332 26.0117 26.0104 21.5346 26.0104 16.0117V16.0118C26.0104 10.489 21.5333 6.01187 16.0105 6.01182L16.0104 6.01172ZM17.1354 18.0117C17.1354 18.2879 16.9115 18.5117 16.6354 18.5117H15.5104V18.5117C15.2342 18.5117 15.0104 18.2879 15.0104 18.0117C15.0104 14.6895 17.8229 15.0026 17.8229 12.5117C17.8229 11.6833 16.8829 11.0117 15.9167 11.0117C14.9505 11.0117 13.9948 11.6833 13.9948 12.5117V12.5117C13.9914 12.7963 14.0353 13.0794 14.1248 13.3496V13.3496C14.2156 13.609 14.0789 13.893 13.8194 13.9838C13.7665 14.0023 13.7108 14.0118 13.6548 14.0118H12.6392V14.0118C12.4137 14.0124 12.2154 13.8625 12.1544 13.6454V13.6454C12.0548 13.2759 12.0063 12.8944 12.0104 12.5117C12.0104 10.5787 13.8011 9.01172 16.0104 9.01172C18.2196 9.01172 20.0104 10.5787 20.0104 12.5117C20.0103 15.7202 17.1353 15.5952 17.1353 18.0118L17.1354 18.0117ZM16.0104 20.0117V20.0117C16.8388 20.0117 17.5104 20.6833 17.5104 21.5117C17.5104 22.3401 16.8388 23.0117 16.0104 23.0117C15.182 23.0117 14.5104 22.3401 14.5104 21.5117V21.5118C14.5104 20.6834 15.1819 20.0118 16.0103 20.0118L16.0104 20.0117Z" fill="black"/>
</svg>
