<svg width="32" height="32" viewBox="0 0 32 32" fill="none" xmlns="http://www.w3.org/2000/svg">
<path fill-rule="evenodd" clip-rule="evenodd" d="M16 28V28C9.3726 28 4 22.6274 4 16C4 9.3726 9.3726 4 16 4C22.6274 4 28 9.3726 28 16V16C28 22.6274 22.6274 28 16 28V28ZM16 6V6C10.4772 6 6 10.4772 6 16C6 21.5228 10.4772 26 16 26C21.5229 26 26 21.5228 26 16V16.0001C26 10.4773 21.5229 6.00015 16.0001 6.0001L16 6ZM17.125 18C17.125 18.2761 16.9011 18.5 16.625 18.5H15.5V18.5C15.2239 18.5 15 18.2761 15 18C15 14.6777 17.8125 14.9908 17.8125 12.5C17.8125 11.6715 16.8725 11 15.9063 11C14.9401 11 13.9844 11.6715 13.9844 12.5V12.5C13.981 12.7846 14.025 13.0677 14.1144 13.3379V13.3379C14.2052 13.5973 14.0685 13.8813 13.8091 13.9721C13.7561 13.9906 13.7005 14.0001 13.6444 14.0001H12.6288V14.0001C12.4033 14.0006 12.205 13.8508 12.1441 13.6337V13.6337C12.0444 13.2642 11.9959 12.8827 12 12.5C12 10.567 13.7908 9 16 9C18.2093 9 20 10.567 20 12.5C19.9999 15.7085 17.1249 15.5835 17.1249 18.0001L17.125 18ZM16 20V20C16.8284 20 17.5 20.6716 17.5 21.5C17.5 22.3284 16.8284 23 16 23C15.1716 23 14.5 22.3284 14.5 21.5V21.5C14.5 20.6716 15.1715 20.0001 16 20L16 20Z" fill="black"/>
</svg>
