<svg width="32" height="32" viewBox="0 0 32 32" fill="none" xmlns="http://www.w3.org/2000/svg">
<path fill-rule="evenodd" clip-rule="evenodd" d="M25.0604 25.8611V25.8611C24.9327 26.2566 24.5602 26.5212 24.1446 26.5115C22.3408 26.4746 17.3307 25.8186 11.7624 20.25C6.19335 14.6809 5.538 9.67001 5.50115 7.86666V7.86666C5.49165 7.45135 5.75622 7.07917 6.1516 6.95166L10.4257 5.55666V5.55666C10.9032 5.40418 11.4186 5.63866 11.6173 6.09886L13.3237 10.0514V10.0514C13.4818 10.4099 13.4043 10.8287 13.1283 11.107L11.125 13.11V13.11C10.9936 13.2404 10.9508 13.4356 11.0154 13.609V13.609C11.6151 15.3133 12.6024 16.8551 13.8995 18.1129V18.1129C15.1571 19.4098 16.6986 20.3971 18.4027 20.9969V20.9969C18.5764 21.0617 18.7718 21.0187 18.9024 20.8872L20.905 18.8847V18.8847C21.1836 18.6084 21.603 18.5308 21.962 18.6892L25.9138 20.3953V20.3953C26.3737 20.5937 26.6082 21.1086 26.456 21.5858L25.0604 25.8611Z" fill="black"/>
</svg>
