<svg width="32" height="32" viewBox="0 0 32 32" fill="none" xmlns="http://www.w3.org/2000/svg">
<path fill-rule="evenodd" clip-rule="evenodd" d="M25.9991 13.4878V13.4878C25.4468 13.4884 24.9986 13.0411 24.9981 12.4888C24.9981 12.4888 24.9981 12.4888 24.9981 12.4888V8.4182L16.6861 16.707V16.707C16.2964 17.0942 15.6666 17.0922 15.2794 16.7025C14.8921 16.3128 14.8941 15.683 15.2838 15.2958L23.605 6.9981H19.489V6.9981C18.9373 6.9981 18.49 6.55081 18.49 5.99905C18.49 5.44729 18.9373 5 19.489 5H25.999V5C26.5513 4.99945 26.9995 5.44672 27 5.999C27 5.999 27 5.999 27 5.999V12.4888V12.4887C26.9995 13.041 26.5514 13.4883 25.9991 13.4878C25.9991 13.4878 25.9991 13.4878 25.9991 13.4878L25.9991 13.4878ZM14 10.9966H8.00003V10.9966C7.4479 10.9973 7.00053 11.4448 7.00003 11.9969V24V24C7.00046 24.5521 7.44785 24.9997 8.00001 25.0003H20.0001V25.0003C20.5522 24.9996 20.9995 24.5521 21.0001 24V18V18C21.0001 17.4477 21.4478 17 22.0001 17C22.5523 17 23.0001 17.4477 23.0001 18V24V23.9999C22.9985 25.6563 21.6565 26.9989 20.0001 27.0011H8.00006V27.0011C6.34369 26.9989 5.00163 25.6564 5.00006 24V11.9969V11.997C5.00157 10.3406 6.34364 8.99805 8.00001 8.99595H14.0001V8.99595C14.5525 8.99986 14.9972 9.45088 14.9933 10.0033C14.9894 10.5503 14.547 10.9927 14.0001 10.9966L14 10.9966Z" fill="black"/>
</svg>
