<svg width="32" height="32" viewBox="0 0 32 32" fill="none" xmlns="http://www.w3.org/2000/svg">
<path fill-rule="evenodd" clip-rule="evenodd" d="M21.0049 25.0104V25.0104C21.5572 25.0104 22.0049 25.4581 22.0049 26.0104C22.0049 26.5627 21.5572 27.0104 21.0049 27.0104H11.0049V27.0104C10.4526 27.0104 10.0049 26.5627 10.0049 26.0104C10.0049 25.4581 10.4526 25.0104 11.0049 25.0104H21.0049ZM28.0049 22.0104C28.0049 23.115 27.1095 24.0104 26.0049 24.0104H6.00488V24.0104C4.90031 24.0104 4.00488 23.115 4.00488 22.0104V9.01042V9.01042C4.00488 7.90585 4.90031 7.01042 6.00488 7.01042H26.0049V7.01042C27.1095 7.01042 28.0049 7.90585 28.0049 9.01042V22.0104ZM21.2287 15.0632L13.2287 11.0632V11.0632C12.9817 10.9397 12.6814 11.0398 12.5579 11.2868C12.5232 11.3562 12.5051 11.4328 12.5051 11.5104V19.5104V19.5104C12.5051 19.7865 12.729 20.0104 13.0051 20.0104C13.0827 20.0104 13.1593 19.9923 13.2287 19.9576L21.2287 15.9576V15.9576C21.4757 15.8342 21.5759 15.5339 21.4524 15.2868C21.404 15.19 21.3255 15.1115 21.2287 15.0631L21.2287 15.0632Z" fill="black"/>
</svg>
