<svg width="32" height="32" viewBox="0 0 32 32" fill="none" xmlns="http://www.w3.org/2000/svg">
<path fill-rule="evenodd" clip-rule="evenodd" d="M27.5104 26.0104H4.51042V26.0104C4.23428 26.0104 4.01042 25.7866 4.01042 25.5104V17.5104V17.5104C4.01042 16.1297 5.12971 15.0104 6.51042 15.0104H25.5104V15.0104C26.8911 15.0104 28.0104 16.1297 28.0104 17.5104V25.5104V25.5104C28.0104 25.7866 27.7866 26.0104 27.5104 26.0104V26.0104ZM25.4308 23.2331L23.4298 20.2331V20.2331C23.337 20.094 23.1809 20.0104 23.0137 20.0105H9.00642V20.0105C8.83919 20.0104 8.683 20.0939 8.59022 20.2331L6.58922 23.2331V23.2331C6.43605 23.4628 6.49813 23.7733 6.7279 23.9264C6.81008 23.9812 6.90665 24.0105 7.00542 24.0104H25.0146V24.0104C25.2908 24.0105 25.5147 23.7867 25.5148 23.5106C25.5148 23.4118 25.4856 23.3153 25.4308 23.2331V23.2331ZM23.0104 14.0104H9.01042V14.0104C8.73428 14.0104 8.51042 13.7866 8.51042 13.5104V13.5104V5.51042V5.51042C8.51042 4.682 9.182 4.01042 10.0104 4.01042H22.0104V4.01042C22.8388 4.01042 23.5104 4.682 23.5104 5.51042V13.5104V13.5104C23.5104 13.7866 23.2866 14.0104 23.0104 14.0104V14.0104Z" fill="black"/>
</svg>
