<svg width="32" height="32" viewBox="0 0 32 32" fill="none" xmlns="http://www.w3.org/2000/svg">
<path d="M27.498 4C27.7752 4 28 4.22484 28 4.50195V5.17578C28 5.43837 27.8637 5.68246 27.6396 5.81934L25.7393 6.97852C25.5907 7.06932 25.5001 7.23115 25.5 7.40527V24.5977C25.5001 24.7718 25.5907 24.9336 25.7393 25.0244L27.6396 26.1836C27.8637 26.3205 28 26.5646 28 26.8271V27.501C28 27.7781 27.7752 28.0029 27.498 28.0029H4.5C4.22387 28.0029 4.00002 27.7791 4 27.5029V26.8262C4 26.5642 4.13676 26.3211 4.36035 26.1846L6.26074 25.0244C6.40935 24.9337 6.49993 24.7717 6.5 24.5977V7.40527C6.49993 7.23118 6.40935 7.06922 6.26074 6.97852L4.36035 5.81836C4.13676 5.68182 4 5.43874 4 5.17676V4.5C4.00002 4.22387 4.22387 4 4.5 4H27.498ZM9 17.5V24.5C9 24.776 9.22402 24.9998 9.5 25H11.5C11.7761 25 12 24.7761 12 24.5V17.5H9ZM14.5 17.5V24.5C14.5 24.776 14.724 24.9998 15 25H17C17.2761 25 17.5 24.7761 17.5 24.5V17.5H14.5ZM20 17.5V24.5C20 24.776 20.224 24.9998 20.5 25H22.5C22.7761 25 23 24.7761 23 24.5V17.5H20ZM9.5 7.00293C9.22402 7.00312 9 7.2269 9 7.50293V14.5H12V7.50293C12 7.22679 11.7761 7.00293 11.5 7.00293H9.5ZM15 7.00293C14.724 7.00312 14.5 7.2269 14.5 7.50293V14.5H17.5V7.50293C17.5 7.22679 17.2761 7.00293 17 7.00293H15ZM20.5 7.00293C20.224 7.00312 20 7.2269 20 7.50293V14.5H23V7.50293C23 7.22679 22.7761 7.00293 22.5 7.00293H20.5Z" fill="black"/>
</svg>
