<svg width="32" height="32" viewBox="0 0 32 32" fill="none" xmlns="http://www.w3.org/2000/svg">
<path fill-rule="evenodd" clip-rule="evenodd" d="M16.9929 19.99H15.0045V19.99C14.7269 19.9883 14.5005 20.212 14.4988 20.4896C14.4988 20.4975 14.4989 20.5055 14.4992 20.5134L14.5442 21.4597V21.4597C14.6567 23.817 14.9009 26.1661 15.2756 28.496V28.496C15.4292 28.8953 15.8774 29.0945 16.2767 28.9409C16.4812 28.8622 16.6429 28.7006 16.7215 28.496V28.496C17.0962 26.166 17.3404 23.8169 17.453 21.4596L17.498 20.5133V20.5133C17.5096 20.2361 17.2941 20.0019 17.0168 19.9904C17.0089 19.9901 17.0009 19.9899 16.9929 19.99L16.9929 19.99ZM19.9857 14.1315V14.1315C19.6941 14.0335 19.4881 13.7722 19.4607 13.4658L19.0505 8.13229V8.13229C19.0256 7.77995 19.2343 7.45286 19.5643 7.32689H19.5643C20.573 6.90757 21.4015 6.1458 21.9037 5.17569V5.17569C21.9682 5.05642 22.0017 4.92287 22.0011 4.78729C22.0011 4.34822 21.6452 3.99229 21.2061 3.99229H10.7964V3.99229C10.3574 3.99229 10.0014 4.34822 10.0014 4.78729V4.78729C10.0009 4.92287 10.0343 5.05642 10.0988 5.17569V5.17569C10.6011 6.14574 11.4295 6.90751 12.4382 7.32689V7.32689C12.7682 7.45285 12.9769 7.77993 12.9521 8.13229L12.5421 13.4658V13.4658C12.5148 13.7722 12.3088 14.0335 12.0171 14.1315C10.7902 14.5671 9.00179 15.7633 9.00179 17.99V18.1947V18.1947C9.00179 18.6338 9.35772 18.9897 9.79679 18.9897V18.9897H22.2059V18.9897C22.645 18.9897 23.0009 18.6338 23.0009 18.1947V18.1947V17.99C23.0012 15.7633 21.2127 14.5671 19.9857 14.1315L19.9857 14.1315Z" fill="black"/>
</svg>
