<svg width="32" height="32" viewBox="0 0 32 32" fill="none" xmlns="http://www.w3.org/2000/svg">
<path d="M16 4C22.6274 4 28 9.3726 28 16C28 22.6274 22.6274 28 16 28C9.3726 28 4 22.6274 4 16C4 9.3726 9.3726 4 16 4ZM20.1426 6.89941C20.4175 7.02494 20.6863 7.16163 20.9473 7.31055L17.9736 12.5215C17.3911 12.1903 16.718 12 16 12C15.2528 12 14.5535 12.2049 13.9551 12.5615L10.9824 7.35059C8.00819 9.07968 6.00599 12.2966 6 15.9834L12 15.9609C11.9999 15.9739 12 15.987 12 16C12 17.4715 12.7951 18.7565 13.9785 19.4512L10.959 24.6357C10.1504 24.1627 9.41479 23.579 8.77148 22.9062C10.5923 24.8114 13.1566 26 16 26C19.5395 26 22.6466 24.1593 24.4238 21.3848C23.5689 22.7187 22.4064 23.8367 21.0352 24.6377L18.0088 19.458C19.1931 18.7686 19.991 17.4897 19.999 16.0225L25.998 16.0449C25.9978 16.1046 25.9954 16.1642 25.9941 16.2236C25.9958 16.1493 26 16.0748 26 16C26 11.9553 23.5973 8.47454 20.1426 6.89941ZM8.09863 22.127C8.21178 22.2727 8.32933 22.4146 8.4502 22.5537C8.3293 22.4147 8.21181 22.2726 8.09863 22.127ZM7.6582 21.5127C7.69576 21.5694 7.73378 21.6257 7.77246 21.6816C7.73377 21.6258 7.69578 21.5694 7.6582 21.5127ZM24.8877 20.5791C24.7563 20.8335 24.6159 21.0822 24.4639 21.3232C24.6158 21.0821 24.7563 20.8335 24.8877 20.5791ZM7.17383 20.7012C7.1896 20.7307 7.20464 20.7607 7.2207 20.79C7.20463 20.7607 7.18961 20.7307 7.17383 20.7012ZM24.9443 20.4688C24.985 20.3876 25.025 20.3061 25.0635 20.2236C25.025 20.306 24.985 20.3876 24.9443 20.4688ZM25.3008 19.6709C25.2447 19.8129 25.1854 19.9531 25.123 20.0918C25.1854 19.9531 25.2447 19.8129 25.3008 19.6709ZM25.3418 19.5684C25.3725 19.4881 25.402 19.4074 25.4307 19.3262C25.402 19.4074 25.3725 19.4881 25.3418 19.5684ZM25.6123 18.7559C25.5708 18.9009 25.5254 19.0443 25.4775 19.1865C25.5254 19.0442 25.5708 18.9009 25.6123 18.7559ZM6.41016 18.8369C6.4273 18.895 6.44375 18.9531 6.46191 19.0107C6.44374 18.9531 6.42731 18.895 6.41016 18.8369ZM25.8369 17.79C25.8099 17.9394 25.7796 18.0875 25.7461 18.2344C25.7796 18.0874 25.8099 17.9394 25.8369 17.79ZM16 14C17.1045 14 18 14.8955 18 16C18 17.1046 17.1046 18 16 18C14.8954 18 14 17.1046 14 16C14 14.8954 14.8954 14 16 14ZM25.9658 16.7939C25.9583 16.89 25.9507 16.9858 25.9404 17.0811C25.9507 16.9858 25.9583 16.89 25.9658 16.7939ZM11.4541 7.09277C11.303 7.17005 11.1544 7.25132 11.0078 7.33594C11.1543 7.25133 11.303 7.17007 11.4541 7.09277ZM19.2578 6.54492C19.5337 6.64017 19.804 6.74716 20.0684 6.86523C19.8039 6.74728 19.5338 6.64 19.2578 6.54492ZM12.3076 6.70605C12.1856 6.75456 12.0649 6.80529 11.9453 6.8584C12.0648 6.80524 12.1857 6.75462 12.3076 6.70605ZM13.1982 6.40039C13.059 6.44097 12.9209 6.48387 12.7842 6.53027C12.9208 6.48379 13.059 6.44105 13.1982 6.40039ZM19.1602 6.51172C19.098 6.49103 19.0363 6.46871 18.9736 6.44922L18.9102 6.43164C18.994 6.45718 19.0773 6.48406 19.1602 6.51172ZM17.9668 6.19434C18.0223 6.20545 18.0776 6.21746 18.1328 6.22949C18.0776 6.2175 18.0223 6.20542 17.9668 6.19434ZM14.0381 6.19336C13.9855 6.20382 13.9332 6.21528 13.8809 6.22656C13.9332 6.21524 13.9855 6.20385 14.0381 6.19336Z" fill="black"/>
</svg>
