<svg width="32" height="32" viewBox="0 0 32 32" fill="none" xmlns="http://www.w3.org/2000/svg">
<path fill-rule="evenodd" clip-rule="evenodd" d="M15.0001 7.0614V4.5129V4.5129C15.0045 4.23002 15.2373 4.00423 15.5202 4.00858C15.6239 4.01018 15.7247 4.04322 15.8092 4.10335L20.7833 7.59775V7.59775C21.0095 7.75463 21.0657 8.06516 20.9088 8.29134C20.8748 8.34033 20.8323 8.38282 20.7833 8.4168L15.8092 11.9112V11.9112C15.5787 12.0752 15.2589 12.0212 15.0949 11.7907C15.0348 11.7062 15.0017 11.6054 15.0001 11.5017V9.0807V9.0807C10.6189 9.63752 7.51852 13.6406 8.07532 18.0219C8.63213 22.4032 12.6352 25.5035 17.0165 24.9467C21.0123 24.4389 24.0068 21.0384 24.0051 17.0104V17.0104C24.0051 16.4582 24.4528 16.0104 25.0051 16.0104C25.5574 16.0104 26.0051 16.4582 26.0051 17.0104V17.0108C26.0051 22.5336 21.528 27.0108 16.0051 27.0108C10.4823 27.0108 6.00512 22.5336 6.00512 17.0108C6.00512 11.877 9.89261 7.57717 15.0004 7.06137L15.0001 7.0614Z" fill="black"/>
</svg>
