<svg width="32" height="32" viewBox="0 0 32 32" fill="none" xmlns="http://www.w3.org/2000/svg">
<path fill-rule="evenodd" clip-rule="evenodd" d="M16 4C22.6274 4 28 9.3726 28 16C28 22.6274 22.6274 28 16 28C9.3726 28 4 22.6274 4 16C4 9.3726 9.3726 4 16 4ZM16.916 22.9404C16.6917 22.9697 16.4634 22.9886 16.2324 22.9961L16 23C15.8447 23 15.6907 22.9953 15.5381 22.9854L15.085 22.9404L14.9824 22.9326C14.4759 22.9182 14.031 23.2895 13.9639 23.8027C13.8969 24.316 14.2315 24.7891 14.7246 24.9053L14.8262 24.9238L15.1152 24.957C15.4066 24.9855 15.7017 25 16 25L16.2969 24.9951C16.5928 24.9855 16.8853 24.9614 17.1738 24.9238C17.7215 24.8524 18.1076 24.3504 18.0361 23.8027C17.9646 23.2554 17.4633 22.8693 16.916 22.9404ZM10.3789 20.1826C10.0311 19.8145 9.45431 19.7621 9.04395 20.0771C8.63336 20.3927 8.53501 20.9645 8.80176 21.3955L8.86035 21.4795L9.04297 21.71C9.41699 22.1652 9.83481 22.583 10.29 22.957L10.5205 23.1396L10.6045 23.1982C11.0355 23.465 11.6073 23.3666 11.9229 22.9561C12.2379 22.5457 12.1855 21.9689 11.8174 21.6211L11.7393 21.5547L11.3848 21.2627C11.1552 21.0611 10.9389 20.8448 10.7373 20.6152L10.4453 20.2607L10.3789 20.1826ZM22.9561 20.0771C22.5457 19.7621 21.9689 19.8145 21.6211 20.1826L21.5547 20.2607C21.275 20.6247 20.9598 20.9603 20.6152 21.2627L20.2607 21.5547C19.8232 21.8912 19.7411 22.5183 20.0771 22.9561C20.3927 23.3666 20.9645 23.465 21.3955 23.1982L21.4795 23.1396C22.0247 22.7206 22.5208 22.2409 22.957 21.71L23.1396 21.4795C23.4762 21.0416 23.394 20.4137 22.9561 20.0771ZM8.19727 13.9639C7.68403 13.8969 7.21094 14.2315 7.09473 14.7246L7.07617 14.8262C7.02602 15.2108 7 15.6026 7 16L7.00488 16.2969C7.0113 16.4944 7.02398 16.6904 7.04297 16.8848L7.07617 17.1738C7.14761 17.7215 7.64962 18.1076 8.19727 18.0361C8.71051 17.969 9.08182 17.5241 9.06738 17.0176L9.05957 16.916C9.03031 16.6917 9.01142 16.4634 9.00391 16.2324L9 16C9 15.8447 9.00473 15.6907 9.01465 15.5381L9.05957 15.085C9.13099 14.5374 8.74473 14.0355 8.19727 13.9639ZM23.8027 13.9639C23.2895 14.031 22.9182 14.4759 22.9326 14.9824L22.9404 15.085L22.9854 15.5381C22.9953 15.6907 23 15.8447 23 16C23 16.3108 22.9795 16.6168 22.9404 16.916C22.8693 17.4633 23.2554 17.9646 23.8027 18.0361C24.3504 18.1076 24.8524 17.7215 24.9238 17.1738C24.974 16.7892 25 16.3974 25 16C25 15.7017 24.9855 15.4066 24.957 15.1152L24.9238 14.8262L24.9053 14.7246C24.7891 14.2315 24.316 13.8969 23.8027 13.9639ZM11.9229 9.04395C11.6073 8.63336 11.0355 8.53501 10.6045 8.80176L10.5205 8.86035C9.97526 9.27937 9.47919 9.7591 9.04297 10.29L8.86035 10.5205C8.52383 10.9584 8.60603 11.5863 9.04395 11.9229C9.45431 12.2379 10.0311 12.1855 10.3789 11.8174L10.4453 11.7393C10.725 11.3753 11.0402 11.0397 11.3848 10.7373L11.7393 10.4453C12.1768 10.1088 12.2589 9.48174 11.9229 9.04395ZM21.3955 8.80176C20.9645 8.53501 20.3927 8.63336 20.0771 9.04395C19.7621 9.45431 19.8145 10.0311 20.1826 10.3789L20.2607 10.4453L20.6152 10.7373C20.8448 10.9389 21.0611 11.1552 21.2627 11.3848L21.5547 11.7393L21.6211 11.8174C21.9689 12.1855 22.5457 12.2379 22.9561 11.9229C23.3666 11.6073 23.465 11.0355 23.1982 10.6045L23.1396 10.5205L22.957 10.29C22.583 9.83481 22.1652 9.41699 21.71 9.04297L21.4795 8.86035L21.3955 8.80176ZM16 7C15.7017 7 15.4066 7.0145 15.1152 7.04297L14.8262 7.07617C14.2785 7.14761 13.8924 7.64962 13.9639 8.19727C14.031 8.71051 14.4759 9.08182 14.9824 9.06738L15.085 9.05957C15.384 9.02058 15.6894 9 16 9L16.2324 9.00391C16.3093 9.00641 16.3858 9.0097 16.4619 9.01465L16.916 9.05957C17.4633 9.13068 17.9646 8.74456 18.0361 8.19727C18.1031 7.68402 17.7685 7.21094 17.2754 7.09473L17.1738 7.07617C16.8853 7.03855 16.5928 7.01449 16.2969 7.00488L16 7Z" fill="black"/>
</svg>
