<svg width="32" height="32" viewBox="0 0 32 32" fill="none" xmlns="http://www.w3.org/2000/svg">
<path d="M12.4281 4.54578C6.10505 6.51315 2.57405 13.2339 4.5414 19.557C5.71316 23.323 8.66209 26.272 12.4281 27.4437C13.0722 27.6389 13.7525 27.275 13.9476 26.6309C13.9826 26.5156 14.0003 26.3956 14 26.275V5.71453V5.71451C14.0014 5.04156 13.4571 4.49485 12.7841 4.49342C12.6635 4.49317 12.5435 4.51081 12.4281 4.54579L12.4281 4.54578ZM19.5719 4.54578C18.9278 4.35063 18.2475 4.71455 18.0524 5.35862C18.0174 5.47402 17.9997 5.59396 18 5.71453V26.275V26.275C17.9986 26.948 18.543 27.4948 19.216 27.4962C19.3365 27.4964 19.4565 27.4788 19.5719 27.4438C25.895 25.4765 29.426 18.7557 27.4587 12.4326C26.2869 8.66658 23.338 5.71763 19.5719 4.54588L19.5719 4.54578Z" fill="black"/>
</svg>
