<svg width="32" height="32" viewBox="0 0 32 32" fill="none" xmlns="http://www.w3.org/2000/svg">
<path fill-rule="evenodd" clip-rule="evenodd" d="M26.4179 21.8035V21.8035C26.2617 22.0296 25.9517 22.0863 25.7255 21.9301C25.676 21.8959 25.6331 21.853 25.5989 21.8035L22.1045 16.8164V16.8164C21.9401 16.5852 21.9942 16.2645 22.2254 16.1001C22.3099 16.04 22.4105 16.0069 22.5141 16.0051H25.0058V16.0054C25.0024 11.0343 20.9697 7.00717 15.9986 7.01057C13.9311 7.01199 11.9271 7.72516 10.3234 9.03019V9.03019C9.9023 9.38769 9.27108 9.33611 8.91357 8.91496C8.55606 8.49382 8.60765 7.8626 9.02879 7.50509H9.02879C13.727 3.65241 20.6588 4.33781 24.5115 9.03598C26.123 11.0012 27.0044 13.4637 27.006 16.0051H29.5028V16.0051C29.7864 16.0101 30.0123 16.2441 30.0073 16.5278C30.0054 16.6313 29.9724 16.7319 29.9124 16.8163L26.4179 21.8035ZM6.41149 10.2176L9.90589 15.2047V15.2047C10.0703 15.4359 10.0162 15.7565 9.78504 15.9209C9.70063 15.981 9.60005 16.0141 9.49649 16.0159H7.00499V16.0161C7.00842 20.9871 11.041 25.0142 16.012 25.0108C18.0797 25.0093 20.0839 24.296 21.6876 22.9908V22.9908C22.1088 22.6334 22.74 22.6851 23.0974 23.1063C23.4549 23.5275 23.4032 24.1587 22.982 24.5161V24.5161C18.2839 28.3688 11.3521 27.6834 7.49949 22.9853C5.88793 21.0201 5.0065 18.5576 5.00497 16.0161H2.50762V16.0161C2.22396 16.0111 1.99809 15.777 2.00313 15.4934C2.00497 15.3899 2.03805 15.2893 2.09803 15.2049L5.59243 10.2178V10.2178C5.74863 9.99162 6.05864 9.93487 6.28485 10.0911C6.33436 10.1253 6.37726 10.1682 6.41148 10.2177L6.41149 10.2176Z" fill="black"/>
</svg>
