<svg width="32" height="32" viewBox="0 0 32 32" fill="none" xmlns="http://www.w3.org/2000/svg">
<path fill-rule="evenodd" clip-rule="evenodd" d="M27 25.4961V26.4961C27 26.7722 26.7761 26.9961 26.5 26.9961H5.5V26.9961C5.22386 26.9961 5 26.7722 5 26.4961V25.4961V25.4961C5 25.22 5.22386 24.9961 5.5 24.9961H5.875V24.9961C5.94404 24.9961 6 24.9401 6 24.8711V12.1211C6 12.0521 5.94404 11.9961 5.875 11.9961H5.5V11.9961C5.22386 11.9961 5 11.7722 5 11.4961V11.4961V10.4961V10.4961C5 10.22 5.22386 9.99609 5.5 9.99609H7.875V9.99609C7.94404 9.99609 8 9.94013 8 9.87109V8.49609V8.49609C8 8.21995 8.22386 7.99609 8.5 7.99609H15.375V7.99609C15.444 7.99609 15.5 7.94013 15.5 7.87109V3.76354V3.76369C15.5 3.3398 15.8436 2.99615 16.2675 2.99609V2.99609C16.419 2.99611 16.5672 3.04096 16.6933 3.12499L19.21 4.80259V4.80259C19.3912 4.92342 19.5 5.12678 19.5 5.34454V5.34469C19.5 5.70445 19.2084 5.99609 18.8486 5.99609C18.8486 5.99609 18.8486 5.99609 18.8486 5.99609H16.625V5.99609C16.556 5.99609 16.5 6.05206 16.5 6.12109V7.87109V7.87109C16.5 7.94013 16.556 7.99609 16.625 7.99609H23.5V7.99609C23.7761 7.99609 24 8.21995 24 8.49609V9.87109V9.87109C24 9.94013 24.056 9.99609 24.125 9.99609H26.5V9.99609C26.7761 9.99609 27 10.22 27 10.4961V11.4961C27 11.7722 26.7761 11.9961 26.5 11.9961H26.125V11.9961C26.056 11.9961 26 12.0521 26 12.1211V24.8711V24.8711C26 24.9401 26.056 24.9961 26.125 24.9961H26.5V24.9961C26.7761 24.9961 27 25.22 27 25.4961C27 25.4961 27 25.4961 27 25.4961V25.4961ZM12 14.4961C12 14.22 11.7761 13.9961 11.5 13.9961H8.5V13.9961C8.22386 13.9961 8 14.22 8 14.4961V14.4961V16.4961V16.4961C8 16.7722 8.22386 16.9961 8.5 16.9961H11.5V16.9961C11.7761 16.9961 12 16.7722 12 16.4961V14.4961ZM12 20.4961C12 20.22 11.7761 19.9961 11.5 19.9961H8.5V19.9961C8.22386 19.9961 8 20.22 8 20.4961V22.4961V22.4961C8 22.7722 8.22386 22.9961 8.5 22.9961H11.5V22.9961C11.7761 22.9961 12 22.7722 12 22.4961V20.4961ZM18 14.4961C18 14.22 17.7761 13.9961 17.5 13.9961H14.5V13.9961C14.2239 13.9961 14 14.22 14 14.4961V14.4961V16.4961V16.4961C14 16.7722 14.2239 16.9961 14.5 16.9961H17.5V16.9961C17.7761 16.9961 18 16.7722 18 16.4961V14.4961ZM18 20.9961C18 19.8915 17.1046 18.9961 16 18.9961C14.8954 18.9961 14 19.8915 14 20.9961V24.4961V24.4961C14 24.7722 14.2239 24.9961 14.5 24.9961H17.5V24.9961C17.7761 24.9961 18 24.7722 18 24.4961V20.9961V20.9961ZM24 14.4961C24 14.22 23.7761 13.9961 23.5 13.9961H20.5V13.9961C20.2239 13.9961 20 14.22 20 14.4961V14.4961V16.4961V16.4961C20 16.7722 20.2239 16.9961 20.5 16.9961H23.5V16.9961C23.7761 16.9961 24 16.7722 24 16.4961V14.4961ZM24 20.4961C24 20.22 23.7761 19.9961 23.5 19.9961H20.5V19.9961C20.2239 19.9961 20 20.22 20 20.4961V22.4961V22.4961C20 22.7722 20.2239 22.9961 20.5 22.9961H23.5V22.9961C23.7761 22.9961 24 22.7722 24 22.4961V20.4961Z" fill="black"/>
</svg>
