<svg width="32" height="32" viewBox="0 0 32 32" fill="none" xmlns="http://www.w3.org/2000/svg">
<path fill-rule="evenodd" clip-rule="evenodd" d="M14.505 5.01173V5.01173C19.7446 5.0045 23.9979 9.24613 24.0052 14.4857C24.008 16.5307 23.3499 18.5219 22.129 20.1625L27.2576 24.5004V24.5004C28.0811 25.2032 28.179 26.4405 27.4762 27.264C26.7734 28.0876 25.5361 28.1854 24.7125 27.4826C24.634 27.4156 24.5609 27.3425 24.4939 27.264L20.155 22.1363V22.1363C15.9417 25.259 9.99474 24.3748 6.87209 20.1615C3.74941 15.9482 4.63353 10.0012 8.84683 6.87859C10.4838 5.66537 12.4675 5.01086 14.505 5.01174L14.505 5.01173ZM14.505 22.0117V22.0117C18.6472 22.0117 22.005 18.6539 22.005 14.5117C22.005 10.3696 18.6472 7.01173 14.505 7.01173C10.3629 7.01173 7.00502 10.3696 7.00502 14.5117V14.5117C7.00502 18.6538 10.3629 22.0116 14.505 22.0117L14.505 22.0117Z" fill="black"/>
</svg>
