<svg width="32" height="32" viewBox="0 0 32 32" fill="none" xmlns="http://www.w3.org/2000/svg">
<path fill-rule="evenodd" clip-rule="evenodd" d="M16.0104 3.98828C9.38304 3.98828 4.01044 9.36088 4.01044 15.9883C4.01044 22.6157 9.38304 27.9883 16.0104 27.9883C22.6378 27.9883 28.0104 22.6157 28.0104 15.9883C28.0104 9.36088 22.6378 3.98828 16.0104 3.98828ZM16.0104 25.9883C10.4876 25.9883 6.01044 21.5111 6.01044 15.9883C6.01044 10.4654 10.4876 5.98828 16.0104 5.98828C21.5333 5.98828 26.0104 10.4654 26.0104 15.9883C26.0104 21.5111 21.5333 25.9883 16.0104 25.9883ZM22.0104 18.9883H10.0104C9.45815 18.9883 9.01044 19.436 9.01044 19.9883C9.01044 20.5406 9.45815 20.9883 10.0104 20.9883H22.0104C22.5627 20.9883 23.0104 20.5406 23.0104 19.9883C23.0104 19.436 22.5627 18.9883 22.0104 18.9883ZM12.0104 16.9883H20.0104C20.5627 16.9883 21.0104 16.5406 21.0104 15.9883C21.0104 15.436 20.5627 14.9883 20.0104 14.9883H12.0104C11.4582 14.9883 11.0104 15.436 11.0104 15.9883C11.0104 16.5406 11.4582 16.9883 12.0104 16.9883ZM14.0104 12.9883H18.0104C18.5627 12.9883 19.0104 12.5406 19.0104 11.9883C19.0104 11.436 18.5627 10.9883 18.0104 10.9883H14.0104C13.4582 10.9883 13.0104 11.436 13.0104 11.9883C13.0104 12.5406 13.4582 12.9883 14.0104 12.9883Z" fill="black"/>
</svg>
