<svg width="32" height="32" viewBox="0 0 32 32" fill="none" xmlns="http://www.w3.org/2000/svg">
<path fill-rule="evenodd" clip-rule="evenodd" d="M16.0107 4.01172C22.638 4.01188 28.0107 9.38442 28.0107 16.0117C28.0107 22.639 22.638 28.0116 16.0107 28.0117C9.38334 28.0117 4.01074 22.6391 4.01074 16.0117C4.01074 9.38432 9.38334 4.01172 16.0107 4.01172ZM6.3353 17C6.18758 17 6.07181 17.1275 6.09026 17.2741C6.30621 18.9889 6.95574 20.5686 7.92661 21.8994C7.97303 21.963 8.04734 22 8.12609 22H8.75C8.91228 22 9.07037 21.947 9.2002 21.8496L12.5996 19.2998C13.1329 18.8998 13.8671 18.8998 14.4004 19.2998L17.8096 21.8574C17.93 21.9477 18.0854 21.9789 18.2314 21.9424L19.668 21.583C20.3126 21.4219 20.9936 21.4968 21.5879 21.7939L23.2598 22.6299C23.3602 22.6801 23.482 22.6574 23.5557 22.5728C24.8239 21.1157 25.6774 19.2885 25.9312 17.2741C25.9497 17.1275 25.8339 17 25.6862 17H6.3353ZM16.0107 6.01172C10.9239 6.01172 6.72443 9.80988 6.093 14.7249C6.07415 14.8717 6.18995 15 6.3379 15H25.6836C25.8315 15 25.9473 14.8717 25.9285 14.7249C25.2971 9.80996 21.0974 6.01192 16.0107 6.01172Z" fill="black"/>
</svg>
