<svg width="32" height="32" viewBox="0 0 32 32" fill="none" xmlns="http://www.w3.org/2000/svg">
<path fill-rule="evenodd" clip-rule="evenodd" d="M25.005 15.0089V25.012V25.0119C25.0035 26.6683 23.6615 28.0109 22.0051 28.013H10.0051H10.0051C8.34868 28.0109 7.00661 26.6684 7.00507 25.012V15.0089V15.0088C7.00658 13.3524 8.3487 12.0099 10.0051 12.0078H12.0051V12.0078C12.5576 12.0117 13.0023 12.4627 12.9984 13.0152C12.9945 13.5622 12.5521 14.0047 12.0051 14.0085H10.0051V14.0085C9.45295 14.0092 9.00555 14.4567 9.00511 15.0089V25.012V25.012C9.00558 25.5641 9.45297 26.0116 10.0051 26.0123H22.0051V26.0123C22.5572 26.0115 23.0045 25.5641 23.0051 25.012V15.0089V15.0089C23.0046 14.4568 22.5572 14.0093 22.0051 14.0085H20.0051V14.0085C19.4526 14.0046 19.0079 13.5536 19.0118 13.0011C19.0157 12.4541 19.4581 12.0117 20.0051 12.0078H22.0051V12.0078C23.6615 12.0099 25.0035 13.3525 25.005 15.0089L25.005 15.0089ZM16.005 20.0117V20.0117C15.4527 20.0117 15.005 19.564 15.005 19.0117V19.0117V9.01713H12.5076V9.01713C12.224 9.01209 11.9981 8.77807 12.0032 8.49443C12.005 8.39089 12.0381 8.29033 12.0981 8.20593L15.5925 3.21878V3.21878C15.7488 2.99261 16.0588 2.93592 16.285 3.09218C16.3345 3.12638 16.3774 3.16927 16.4116 3.21878L19.906 8.20593V8.20593C20.0703 8.43714 20.0162 8.75782 19.785 8.92219C19.7005 8.98221 19.5999 9.01531 19.4964 9.01713H17.005V19.0117V19.0117C17.005 19.564 16.5573 20.0117 16.005 20.0117C16.005 20.0117 16.005 20.0117 16.005 20.0117L16.005 20.0117Z" fill="black"/>
</svg>
