<svg width="32" height="32" viewBox="0 0 32 32" fill="none" xmlns="http://www.w3.org/2000/svg">
<path fill-rule="evenodd" clip-rule="evenodd" d="M26.5 18C26.5 18.5279 27 19.9834 27 20.5C27 21.0166 26.9164 21.5 24.5 21.5C22.0836 21.5 21.5915 21 21 21C20.5222 21 20 22.1216 20 23C20 23.6208 20.2311 24 20.5 24C20.7689 24 20.9976 22.5 21.5 22.5V22.5C22.4948 22.6369 23.4963 22.7203 24.5 22.75C25.7875 22.75 26.022 22.5 26.5 22.5C26.86 22.5 27 22.7073 27 24C27 25.1452 27.5 25.8012 27.5 26.5C27.5 27.5819 26.9084 28 23 28C18.4956 28 17.9786 27.705 16.5 23C15.9624 21.2894 15.354 20.3106 14.4706 20.0624C14.1191 19.9637 14.0563 20.1687 14.1306 20.3915C14.3082 20.9244 14.6266 21.8795 14.8249 22.4743C14.9409 22.8222 14.8379 23 14.5203 23H12.5C7.76 23 4 19.9332 4 14C4 7.3726 7.73145 3 15 3C21.7017 3 26.4997 6.47695 26.4997 11.9996V11.9996C26.52 12.5372 26.6936 13.0578 27 13.5C27.4776 14.3681 28 15.0474 28 15.5C28 16.261 26.5 17.472 26.5 18V18ZM19.0963 10.0268V10.0268C18.871 9.93299 18.6123 10.0395 18.5184 10.2649C18.5075 10.2911 18.4992 10.3182 18.4935 10.3461C18.4229 10.5811 19.1741 11.4861 19.0299 11.9661C18.8858 12.4461 18.2216 12.9561 17.7577 14.501C17.2938 16.046 17.5678 16.8098 17.4237 17.2899C17.2796 17.77 16.092 18.1391 16.0215 18.3743V18.3743C15.933 18.5861 16.033 18.8295 16.2448 18.9179C16.2805 18.9328 16.3181 18.9427 16.3565 18.9472C17.1096 19.1508 18.4142 18.7203 18.6033 18.0902C18.7925 17.46 18.6041 16.4121 19.0714 14.8552C19.5386 13.2982 20.2883 12.5041 20.4774 11.8739C20.6665 11.2438 19.8494 10.2305 19.0963 10.0269V10.0268ZM24.125 12C23.5272 12 22.5 12.6 22.5 14.25C22.5 15.9 23.5272 16.5 24.125 16.5C24.6666 16.5 25 16.0359 25 14.25C25 12.4641 24.6666 12 24.125 12Z" fill="black"/>
</svg>
