<svg width="32" height="32" viewBox="0 0 32 32" fill="none" xmlns="http://www.w3.org/2000/svg">
<path d="M16.0106 4.01172C22.6379 4.01185 28.0106 9.3844 28.0106 16.0117C28.0106 22.639 22.6379 28.0116 16.0106 28.0117C9.42918 28.0117 4.0854 22.7134 4.0116 16.1494C3.99722 16.0551 3.99661 15.9585 4.00998 15.8623C4.0116 15.8506 4.01265 15.8387 4.01283 15.8269C4.11163 9.28471 9.44495 4.01172 16.0106 4.01172ZM24.8016 15C24.3138 15 24.0122 15.4697 23.4852 16.4668C22.9207 17.536 22.1478 19 20.4012 19C18.6546 19 17.8808 17.536 17.3163 16.4668C16.7897 15.4698 16.4884 15 16.0009 15C15.5134 15.0001 15.2122 15.4699 14.6854 16.4668C14.1209 17.536 13.3472 19 11.6005 19C9.85372 19 9.08098 17.5356 8.51648 16.4668C7.98962 15.4694 7.68788 15 7.20008 15C6.76472 15.0001 6.47806 15.3744 6.04718 16.1634C6.02643 16.2014 6.01591 16.2446 6.01708 16.2878C6.07687 18.4947 6.84908 20.5232 8.11539 22.1499C8.21205 22.2741 8.39809 22.2732 8.50332 22.1562C10.0227 20.4672 12.3853 19.6258 14.7596 20.1592C16.2846 20.5018 17.633 21.3827 18.5593 22.6363C18.6264 22.7272 18.7446 22.7649 18.8523 22.731C20.2025 22.3053 21.6089 22.486 22.7664 23.1283C22.8654 23.1832 22.9896 23.1703 23.0697 23.0903C24.817 21.3478 25.9216 18.9645 26.002 16.3213C26.0033 16.2779 25.9929 16.2345 25.9721 16.1964C25.5312 15.3849 25.243 15 24.8016 15ZM16.0106 6.01172C11.6611 6.01172 7.9609 8.78892 6.58475 12.6666C6.51853 12.8532 6.69441 13.0366 6.89131 13.0159C6.99073 13.0055 7.09359 13 7.20008 13C8.94703 13 9.72054 14.4639 10.285 15.5332C10.8116 16.5302 11.1129 17 11.6005 17C12.0881 17 12.3899 16.5303 12.9169 15.5332C13.4814 14.4639 14.2543 13.0001 16.0009 13C17.7476 13 18.5211 14.4639 19.0858 15.5332C19.6125 16.5301 19.9137 17 20.4012 17C20.8888 17 21.19 16.5301 21.7167 15.5332C22.2812 14.4639 23.055 13 24.8016 13C24.914 13 25.0222 13.0062 25.1267 13.0181C25.3242 13.0404 25.5019 12.8568 25.4354 12.6694C24.0601 8.79055 20.3609 6.01186 16.0106 6.01172Z" fill="black"/>
</svg>
