<svg width="32" height="32" viewBox="0 0 32 32" fill="none" xmlns="http://www.w3.org/2000/svg">
<g clip-path="url(#clip0_2_158)">
<path fill-rule="evenodd" clip-rule="evenodd" d="M20.2305 11.7534L11.7452 20.2387C11.3547 20.6292 11.3547 21.2624 11.7452 21.6529C12.1357 22.0434 12.7689 22.0434 13.1594 21.6529L21.6447 13.1676C22.0352 12.7771 22.0352 12.1439 21.6447 11.7534C21.2542 11.3629 20.621 11.3629 20.2305 11.7534ZM11.7452 17.4103L17.4021 11.7534C17.7926 11.3629 17.7926 10.7297 17.4021 10.3392C17.0116 9.94868 16.3784 9.94868 15.9879 10.3392L10.331 15.9961C9.94049 16.3866 9.94049 17.0197 10.331 17.4103C10.7215 17.8008 11.3547 17.8008 11.7452 17.4103ZM10.331 13.1676L13.1594 10.3392C13.55 9.94868 13.55 9.31551 13.1594 8.92499C12.7689 8.53446 12.1357 8.53446 11.7452 8.92499L8.9168 11.7534C8.52627 12.1439 8.52627 12.7771 8.9168 13.1676C9.30732 13.5582 9.94049 13.5582 10.331 13.1676Z" fill="black"/>
<path fill-rule="evenodd" clip-rule="evenodd" d="M28.0033 16.0068C28.0033 22.6342 22.6307 28.0068 16.0033 28.0068C9.37593 28.0068 4.00333 22.6342 4.00332 16.0068C4.00333 9.37944 9.37593 4.00684 16.0033 4.00684C22.6307 4.00684 28.0033 9.37944 28.0033 16.0068ZM22.7155 8.56469C18.6038 4.86509 12.2714 5.19919 8.57183 9.31092C5.14511 13.1194 5.1451 18.8999 8.5718 22.7083C8.76005 22.9093 9.07558 22.9196 9.27655 22.7314C9.2815 22.7267 9.28635 22.722 9.2911 22.7172L22.7244 9.28392C22.9206 9.09077 22.9231 8.77509 22.73 8.57882C22.7253 8.574 22.7205 8.5693 22.7155 8.56469Z" fill="black"/>
</g>
<defs>
<clipPath id="clip0_2_158">
<rect width="32" height="32" fill="white" transform="matrix(1 0 0 -1 0 32)"/>
</clipPath>
</defs>
</svg>
