<svg width="32" height="32" viewBox="0 0 32 32" fill="none" xmlns="http://www.w3.org/2000/svg">
<path d="M16.0103 4.01172C22.6377 4.01172 28.0103 9.38432 28.0103 16.0117C28.0103 22.6391 22.6377 28.0117 16.0103 28.0117C9.38294 28.0116 4.01025 22.6391 4.01025 16.0117C4.01025 9.38438 9.38294 4.01182 16.0103 4.01172ZM16.0103 6.01172C10.4875 6.01182 6.01025 10.4889 6.01025 16.0117C6.01025 18.3256 6.79658 20.4556 8.116 22.15C8.21266 22.2741 8.3987 22.2732 8.50392 22.1562C10.0234 20.4672 12.3859 19.6257 14.7603 20.1592C16.2851 20.5018 17.6327 21.3828 18.5589 22.6363C18.626 22.7272 18.7442 22.7649 18.852 22.731C20.2021 22.3054 21.6086 22.4861 22.7661 23.1283C22.8651 23.1832 22.9892 23.1703 23.0694 23.0904C24.8849 21.28 26.0103 18.7782 26.0103 16.0117C26.0103 10.4889 21.5331 6.01177 16.0103 6.01172Z" fill="black"/>
<path fill-rule="evenodd" clip-rule="evenodd" d="M27.4688 16.8838C26.9808 17.1418 26.376 16.9553 26.118 16.4673L26.1175 16.4663C25.591 15.4697 25.2894 15 24.8016 15C24.3138 15 24.0126 15.4697 23.4856 16.4668C22.9211 17.536 22.1479 19 20.4012 19C18.6546 19 17.8812 17.536 17.3167 16.4668C16.7901 15.4697 16.4886 15 16.001 15C15.5134 15 15.2119 15.4697 14.685 16.4668C14.1205 17.536 13.3473 19 11.6005 19C9.85379 19 9.08084 17.536 8.51634 16.4672C7.98939 15.4697 7.68814 15 7.20029 15C6.71244 15 6.41099 15.4697 5.88459 16.4663C5.62678 16.9547 5.02184 17.1417 4.53341 16.8839C4.04498 16.6261 3.85803 16.0211 4.11584 15.5327C4.68029 14.4638 5.45334 13 7.20029 13C8.94724 13 9.72029 14.4639 10.2848 15.5332C10.8114 16.5302 11.1129 17 11.6005 17C12.0881 17 12.3896 16.5302 12.9165 15.5332C13.481 14.4639 14.2543 13 16.001 13C17.7478 13 18.5207 14.4639 19.0854 15.5332C19.6121 16.5302 19.9136 17 20.4012 17C20.8888 17 21.1903 16.5302 21.7171 15.5332C22.2816 14.4639 23.055 13 24.8016 13C26.5483 13 27.3216 14.4638 27.8861 15.5327C28.1439 16.021 27.9571 16.6259 27.4688 16.8838Z" fill="black"/>
</svg>
