<svg width="32" height="32" viewBox="0 0 32 32" fill="none" xmlns="http://www.w3.org/2000/svg">
<path d="M16.0102 4.01172C22.6376 4.01172 28.0102 9.38432 28.0102 16.0117C28.0102 22.6391 22.6376 28.0117 16.0102 28.0117C9.42658 28.0116 4.08136 22.7096 4.0112 16.1426C3.99723 16.0465 3.99744 15.9484 4.01218 15.8506C4.09842 9.29752 9.43671 4.01182 16.0102 4.01172ZM24.8012 15C24.3137 15.0002 24.0126 15.47 23.4858 16.4668C22.9213 17.536 22.1475 19 20.4008 19C18.6545 18.9998 17.8813 17.536 17.3169 16.4668C16.7904 15.47 16.4888 15.0003 16.0014 15C15.5138 15 15.2119 15.4697 14.685 16.4668C14.1205 17.536 13.3468 19 11.6001 19C9.85363 18.9998 9.08053 17.5355 8.51608 16.4668C7.98942 15.4698 7.6882 15.0003 7.20065 15C6.76532 15 6.47759 15.3738 6.04678 16.1624C6.02602 16.2004 6.01551 16.2436 6.01668 16.2869C6.07628 18.4943 6.84927 20.523 8.11597 22.15C8.21263 22.2741 8.39866 22.2732 8.50389 22.1562C10.0233 20.4672 12.3858 19.6257 14.7602 20.1592C16.2851 20.5018 17.6326 21.3828 18.5589 22.6363C18.626 22.7272 18.7442 22.7649 18.8519 22.731C20.202 22.3054 21.6086 22.4861 22.766 23.1283C22.865 23.1832 22.9892 23.1703 23.0693 23.0903C24.8167 21.3478 25.9212 18.9646 26.0016 16.3213C26.0029 16.2779 25.9925 16.2345 25.9717 16.1964C25.5308 15.385 25.2426 15 24.8012 15ZM16.0102 6.01172C11.6608 6.0118 7.96139 8.78909 6.58529 12.6667C6.51908 12.8532 6.69491 13.0367 6.89179 13.0159C6.99127 13.0055 7.09418 13 7.20065 13C8.9473 13.0002 9.72018 14.4639 10.2846 15.5332C10.8111 16.53 11.1127 16.9997 11.6001 17C12.0877 17 12.3895 16.5302 12.9165 15.5332C13.481 14.4639 14.2547 13 16.0014 13C17.7479 13.0002 18.5208 14.4639 19.0854 15.5332C19.612 16.53 19.9135 16.9998 20.4008 17C20.8884 17 21.1905 16.5303 21.7173 15.5332C22.2817 14.4639 23.0549 13.0002 24.8012 13C24.9138 13 25.0224 13.0062 25.1271 13.0181C25.3247 13.0404 25.5024 12.8567 25.436 12.6693C24.0606 8.79036 20.3606 6.01176 16.0102 6.01172Z" fill="black"/>
</svg>
