<svg width="32" height="32" viewBox="0 0 32 32" fill="none" xmlns="http://www.w3.org/2000/svg">
<path d="M16.0107 4.01184C22.638 4.01201 28.0107 9.38454 28.0107 16.0118C28.0107 22.6391 22.638 28.0117 16.0107 28.0118C9.38338 28.0118 4.01081 22.6392 4.01074 16.0118C4.01074 9.38444 9.38334 4.01184 16.0107 4.01184ZM13.7217 6.27551C9.30195 7.31049 6.01074 11.2766 6.01074 16.0118C6.01081 21.5346 10.4879 26.0118 16.0107 26.0118C21.5334 26.0117 26.0107 21.5345 26.0107 16.0118C26.0107 13.2511 24.89 10.7529 23.0811 8.94348C22.9954 8.85788 22.8603 8.84923 22.7627 8.92102C20.7 10.4387 19 11.9582 19 14.0001C19.0001 15.2186 20.0803 16.1382 20.9404 17.4083C20.9997 17.4958 21.1065 17.5374 21.2109 17.5216C21.3053 17.5074 21.4018 17.5001 21.5 17.5001C22.6046 17.5001 23.5 18.3956 23.5 19.5001C23.4999 20.6046 22.6045 21.5001 21.5 21.5001C20.3955 21.5001 19.5001 20.6046 19.5 19.5001C19.5 19.3695 19.5129 19.2418 19.5371 19.1183C19.5579 19.012 19.5208 18.9009 19.4307 18.8409C16.7521 17.0658 12.0001 14.9232 12 11.5001C12 8.7331 13.9999 7.99033 14 6.50012C14 6.49209 14.0001 6.48372 14 6.47571C13.9973 6.3348 13.8589 6.24341 13.7217 6.27551ZM17.5 21.0001C18.3284 21.0001 19 21.6717 19 22.5001C18.9999 23.3285 18.3284 24.0001 17.5 24.0001C16.6716 24.0001 16.0001 23.3285 16 22.5001C16 21.6717 16.6716 21.0001 17.5 21.0001ZM12 16.0001C13.6569 16.0001 15 17.3433 15 19.0001C14.9999 20.6569 13.6568 22.0001 12 22.0001C10.3432 22.0001 9.00007 20.6569 9 19.0001C9 17.3433 10.3431 16.0001 12 16.0001ZM23.5 13.0001C24.3284 13.0001 25 13.6717 25 14.5001C24.9999 15.3285 24.3284 16.0001 23.5 16.0001C22.6716 16.0001 22.0001 15.3285 22 14.5001C22 13.6717 22.6716 13.0001 23.5 13.0001ZM9.5 12.0001C10.3284 12.0001 11 12.6717 11 13.5001C10.9999 14.3285 10.3284 15.0001 9.5 15.0001C8.67162 15.0001 8.00007 14.3285 8 13.5001C8 12.6717 8.67158 12.0001 9.5 12.0001Z" fill="black"/>
</svg>
