<svg width="32" height="32" viewBox="0 0 32 32" fill="none" xmlns="http://www.w3.org/2000/svg">
<path fill-rule="evenodd" clip-rule="evenodd" d="M16.0104 28.0117C9.38304 28.0117 4.01044 22.6391 4.01044 16.0117C4.01044 9.38432 9.38304 4.01172 16.0104 4.01172C22.6378 4.01172 28.0104 9.38432 28.0104 16.0117C28.0104 22.6391 22.6378 28.0117 16.0104 28.0117ZM16.0104 6.01172C10.4876 6.01172 6.01044 10.4889 6.01044 16.0117C6.01044 21.5346 10.4876 26.0117 16.0104 26.0117C21.5333 26.0117 26.0104 21.5346 26.0104 16.0117C26.0104 10.4889 21.5333 6.01177 16.0104 6.01172Z" fill="black"/>
<path fill-rule="evenodd" clip-rule="evenodd" d="M16 22.5C16 23.3284 16.6716 24 17.5 24C18.3284 24 19 23.3284 19 22.5C19 21.6716 18.3284 21 17.5 21C16.6716 21 16 21.6716 16 22.5ZM23.5 14C22.6716 14 22 14.6716 22 15.5C22 16.3284 22.6716 17 23.5 17C24.3284 17 25 16.3284 25 15.5C25 14.6716 24.3284 14 23.5 14ZM12 23C10.3431 23 9 21.6568 9 20C9 18.3431 10.3431 17 12 17C13.6569 17 15 18.3431 15 20C15 21.6568 13.6569 23 12 23ZM9.5 16C8.67158 16 8 15.3284 8 14.5C8 13.6716 8.67158 13 9.5 13C10.3284 13 11 13.6716 11 14.5C11 15.3284 10.3284 16 9.5 16Z" fill="black"/>
<path d="M19.5 19.5C19.5 20.6046 20.3954 21.5 21.5 21.5C22.6046 21.5 23.5 20.6046 23.5 19.5C23.5 18.3954 22.6046 17.5 21.5 17.5C20.3954 17.5 19.5 18.3954 19.5 19.5Z" fill="black"/>
<path d="M15.5 17C15.5 16.1716 16.1716 15.5 17 15.5C17.8284 15.5 18.5 16.1716 18.5 17C18.5 17.8284 17.8284 18.5 17 18.5C16.1716 18.5 15.5 17.8284 15.5 17Z" fill="black"/>
<path d="M13 13.5C13 12.6716 13.6716 12 14.5 12C15.3284 12 16 12.6716 16 13.5C16 14.3284 15.3284 15 14.5 15C13.6716 15 13 14.3284 13 13.5Z" fill="black"/>
<path d="M17.5 13C17.5 14.1046 18.3954 15 19.5 15C20.6046 15 21.5 14.1046 21.5 13C21.5 11.8954 20.6046 11 19.5 11C18.3954 11 17.5 11.8954 17.5 13Z" fill="black"/>
</svg>
