<svg width="32" height="32" viewBox="0 0 32 32" fill="none" xmlns="http://www.w3.org/2000/svg">
<path fill-rule="evenodd" clip-rule="evenodd" d="M16 22.5C16 23.3284 16.6716 24 17.5 24C18.3284 24 19 23.3284 19 22.5C19 21.6716 18.3284 21 17.5 21C16.6716 21 16 21.6716 16 22.5ZM23.5 13C22.6716 13 22 13.6716 22 14.5C22 15.3284 22.6716 16 23.5 16C24.3284 16 25 15.3284 25 14.5C25 13.6716 24.3284 13 23.5 13ZM12 22C10.3431 22 9 20.6568 9 19C9 17.3431 10.3431 16 12 16C13.6569 16 15 17.3431 15 19C15 20.6568 13.6569 22 12 22ZM9.5 15C8.67158 15 8 14.3284 8 13.5C8 12.6716 8.67158 12 9.5 12C10.3284 12 11 12.6716 11 13.5C11 14.3284 10.3284 15 9.5 15Z" fill="black"/>
<path d="M17.5 9C17.5 8.17158 18.1716 7.5 19 7.5C19.8284 7.5 20.5 8.17158 20.5 9C20.5 9.82842 19.8284 10.5 19 10.5C18.1716 10.5 17.5 9.82842 17.5 9Z" fill="black"/>
<path d="M12 11C12 12.1046 12.8954 13 14 13C15.1046 13 16 12.1046 16 11C16 9.89543 15.1046 9 14 9C12.8954 9 12 9.89543 12 11Z" fill="black"/>
<path d="M19.5 19.5C19.5 20.6046 20.3954 21.5 21.5 21.5C22.6046 21.5 23.5 20.6046 23.5 19.5C23.5 18.3954 22.6046 17.5 21.5 17.5C20.3954 17.5 19.5 18.3954 19.5 19.5Z" fill="black"/>
<path d="M18 13C18 12.1716 18.6716 11.5 19.5 11.5C20.3284 11.5 21 12.1716 21 13C21 13.8284 20.3284 14.5 19.5 14.5C18.6716 14.5 18 13.8284 18 13Z" fill="black"/>
<path d="M15.5 17C15.5 16.1716 16.1716 15.5 17 15.5C17.8284 15.5 18.5 16.1716 18.5 17C18.5 17.8284 17.8284 18.5 17 18.5C16.1716 18.5 15.5 17.8284 15.5 17Z" fill="black"/>
<path fill-rule="evenodd" clip-rule="evenodd" d="M16.0104 28.0117C9.38304 28.0117 4.01044 22.6391 4.01044 16.0117C4.01044 9.38432 9.38304 4.01172 16.0104 4.01172C22.6378 4.01172 28.0104 9.38432 28.0104 16.0117C28.0104 22.6391 22.6378 28.0117 16.0104 28.0117ZM16.0104 6.01172C10.4876 6.01172 6.01044 10.4889 6.01044 16.0117C6.01044 21.5346 10.4876 26.0117 16.0104 26.0117C21.5333 26.0117 26.0104 21.5346 26.0104 16.0117C26.0104 10.4889 21.5333 6.01177 16.0104 6.01172Z" fill="black"/>
</svg>
