<svg width="32" height="32" viewBox="0 0 32 32" fill="none" xmlns="http://www.w3.org/2000/svg">
<path fill-rule="evenodd" clip-rule="evenodd" d="M16 22.5C16 23.3284 16.6716 24 17.5 24C18.3284 24 19 23.3284 19 22.5C19 21.6716 18.3284 21 17.5 21C16.6716 21 16 21.6716 16 22.5ZM23.5 13C22.6716 13 22 13.6716 22 14.5C22 15.3284 22.6716 16 23.5 16C24.3284 16 25 15.3284 25 14.5C25 13.6716 24.3284 13 23.5 13ZM12 22C10.3431 22 9 20.6569 9 19C9 17.3431 10.3431 16 12 16C13.6569 16 15 17.3431 15 19C15 20.6569 13.6569 22 12 22ZM9.5 15C8.67158 15 8 14.3284 8 13.5C8 12.6716 8.67158 12 9.5 12C10.3284 12 11 12.6716 11 13.5C11 14.3284 10.3284 15 9.5 15Z" fill="black"/>
<path d="M19.5 19.5C19.5 20.6046 20.3954 21.5 21.5 21.5C22.6046 21.5 23.5 20.6046 23.5 19.5C23.5 18.3954 22.6046 17.5 21.5 17.5C20.3954 17.5 19.5 18.3954 19.5 19.5Z" fill="black"/>
<path fill-rule="evenodd" clip-rule="evenodd" d="M16.0104 28.0117C9.38304 28.0117 4.01044 22.6391 4.01044 16.0117C4.01044 9.38432 9.38304 4.01172 16.0104 4.01172C22.6378 4.01172 28.0104 9.38432 28.0104 16.0117C28.0104 22.6391 22.6378 28.0117 16.0104 28.0117ZM16.0104 6.01172C10.4876 6.01172 6.01044 10.4889 6.01044 16.0117C6.01044 21.5346 10.4876 26.0117 16.0104 26.0117C21.5333 26.0117 26.0104 21.5346 26.0104 16.0117C26.0104 10.4889 21.5333 6.01177 16.0104 6.01172Z" fill="black"/>
<path d="M17 5.2052L20.5 6.50012L23.5 8.38489C21.1208 10.0878 19 11.7188 19 14.0001C19.0001 16.0237 21.9814 17.2225 21.9814 20.5734C21.9916 20.7984 21.8177 20.9895 21.5928 21.0001H21.585C21.4091 21.0133 21.2497 20.8964 21.209 20.7247C20.9686 18.4871 12.0002 16.2028 12 11.5001C12 8.7331 13.9999 7.99033 14 6.50012C14 6.04434 13.8045 5.62093 13.5 5.2052H17ZM17 13.0001C16.1716 13.0001 15.5 13.6717 15.5 14.5001C15.5001 15.3285 16.1716 16.0001 17 16.0001C17.8284 16.0001 18.4999 15.3285 18.5 14.5001C18.5 13.6717 17.8284 13.0001 17 13.0001ZM15 9.00012C13.8954 9.00012 13 9.89555 13 11.0001C13.0001 12.1046 13.8955 13.0001 15 13.0001C16.1045 13.0001 16.9999 12.1046 17 11.0001C17 9.89555 16.1046 9.00012 15 9.00012ZM19 7.50012C18.1716 7.50012 17.5 8.1717 17.5 9.00012C17.5001 9.82849 18.1716 10.5001 19 10.5001C19.8284 10.5001 20.4999 9.82849 20.5 9.00012C20.5 8.1717 19.8284 7.50012 19 7.50012Z" fill="black"/>
</svg>
