<svg width="32" height="32" viewBox="0 0 32 32" fill="none" xmlns="http://www.w3.org/2000/svg">
<path fill-rule="evenodd" clip-rule="evenodd" d="M27.4541 18.1676L20.4933 25.1283V25.1283C20.2588 25.3741 19.9299 25.5069 19.5905 25.4928V25.4928C18.7667 25.4343 18.0515 26.0546 17.993 26.8784C17.988 26.9489 17.988 27.0197 17.9931 27.0903V27.0903C18.0072 27.4296 17.8744 27.7586 17.6286 27.9929L17.1676 28.454V28.454C16.4574 29.1642 15.306 29.1642 14.5959 28.454L7.5239 21.3821V21.3821C6.8138 20.672 6.8138 19.5206 7.5239 18.8105L11.9871 14.3474V14.3474C12.221 14.1021 12.5493 13.9693 12.888 13.9829V13.9829C13.7114 14.0404 14.4255 13.4195 14.483 12.5962C14.4878 12.5268 14.4878 12.4572 14.483 12.3879V12.3879C14.4694 12.0492 14.6021 11.7209 14.8474 11.4869L17.8106 8.5238V8.5238C18.5207 7.81364 19.6721 7.81363 20.3822 8.52378C20.3822 8.52378 20.3822 8.52379 20.3822 8.5238V8.5238C20.7731 8.91415 20.9927 9.44397 20.9925 9.9964V9.9964C20.9909 10.8161 21.6541 11.4818 22.4737 11.4834C22.4757 11.4835 22.4776 11.4835 22.4795 11.4834V11.4834C23.032 11.4832 23.5618 11.7028 23.9522 12.0937L27.4542 15.5957V15.5957C28.1644 16.3058 28.1644 17.4571 27.4544 18.1673C27.4543 18.1674 27.4542 18.1675 27.4541 18.1676L27.4541 18.1676ZM15 21.5V21.5C15 22.3284 15.6716 23 16.5 23C17.3284 23 18 22.3284 18 21.5C18 20.6716 17.3284 20 16.5 20V20C15.6716 20 15 20.6716 15 21.5V21.5ZM17.5 14V14C16.6716 14 16 14.6716 16 15.5C16 16.3284 16.6716 17 17.5 17C18.3284 17 19 16.3284 19 15.5V15.5C19 14.6716 18.3284 14 17.5 14V14ZM22.5 16V16C21.6716 16 21 16.6716 21 17.5C21 18.3284 21.6716 19 22.5 19C23.3284 19 24 18.3284 24 17.5V17.5C24 16.6716 23.3284 16 22.5 16V16ZM13 9V9C11.8954 9 11 8.10457 11 7C11 5.89543 11.8954 5 13 5C14.1046 5 15 5.89543 15 7V7C15 8.10457 14.1046 9 13 9V9ZM7 15V15C5.34315 15 4 13.6569 4 12C4 10.3431 5.34315 9 7 9C8.65686 9 10 10.3431 10 12V12C10 13.6569 8.65686 15 7 15V15ZM7.5 6V6C6.67158 6 6 5.32842 6 4.5C6 3.67158 6.67158 3 7.5 3C8.32843 3 9 3.67158 9 4.5V4.5C9 5.32842 8.32843 6 7.5 6V6Z" fill="black"/>
</svg>
