<svg width="32" height="32" viewBox="0 0 32 32" fill="none" xmlns="http://www.w3.org/2000/svg">
<path fill-rule="evenodd" clip-rule="evenodd" d="M26.5859 11.6567L26.5859 11.6567C19.5111 10.4948 12.834 15.2881 11.6721 22.3628C11.4428 23.759 11.4433 25.1833 11.6735 26.5793V26.5793C11.7028 26.7721 11.5702 26.9522 11.3774 26.9815C11.3092 26.9919 11.2394 26.982 11.1767 26.9532V26.9532C5.11226 24.2992 2.34746 17.2316 5.00136 11.1672C7.65527 5.1027 14.7229 2.3379 20.7874 4.9918C23.5465 6.19927 25.75 8.40122 26.9594 11.1596V11.1596C27.041 11.3367 26.9636 11.5466 26.7865 11.6283C26.7238 11.6572 26.654 11.6671 26.5858 11.6568L26.5859 11.6567ZM24.4865 12.4831H24.4865C25.1618 12.484 25.8356 12.5438 26.5005 12.6619V12.6619C26.8208 12.7232 27.0309 13.0325 26.9696 13.3529C26.9473 13.4696 26.8903 13.5768 26.8061 13.6606L13.6761 26.7997V26.7997C13.4463 27.0308 13.0728 27.0319 12.8417 26.8021C12.7573 26.7183 12.7002 26.6108 12.678 26.4939V26.4939C12.56 25.8286 12.5002 25.1542 12.4994 24.4785V24.4786C12.4971 17.8561 17.8638 12.4855 24.4864 12.4831L24.4865 12.4831Z" fill="black"/>
</svg>
