<svg width="32" height="32" viewBox="0 0 32 32" fill="none" xmlns="http://www.w3.org/2000/svg">
<path fill-rule="evenodd" clip-rule="evenodd" d="M16.0104 28.0117C9.38304 28.0117 4.01044 22.6391 4.01044 16.0117C4.01044 9.38432 9.38304 4.01172 16.0104 4.01172C22.6378 4.01172 28.0104 9.38432 28.0104 16.0117C28.0104 22.6391 22.6378 28.0117 16.0104 28.0117ZM16.0104 6.01172C10.4876 6.01172 6.01044 10.4889 6.01044 16.0117C6.01044 21.5346 10.4876 26.0117 16.0104 26.0117C21.5333 26.0117 26.0104 21.5346 26.0104 16.0117C26.0104 10.4889 21.5333 6.01177 16.0104 6.01172Z" fill="black"/>
<path d="M22.4576 16.3954C23.4259 15.8694 24.5948 15.8694 25.5631 16.3954C25.849 16.5534 26.1488 16.6814 26.4578 16.7785V11.5L19.5 5H14L6.45759 9.5L5.56299 16.7785C5.872 16.6814 6.17178 16.5533 6.45759 16.3954C6.92785 16.1207 7.466 15.9839 8.01039 16.0009C8.55474 15.984 9.09285 16.1207 9.56309 16.3954C10.3114 16.8089 11.1556 17.0178 12.0104 17.0009C12.8652 17.0177 13.7093 16.8089 14.4576 16.3954C14.9279 16.1207 15.466 15.9839 16.0104 16.0009C16.5547 15.984 17.0929 16.1207 17.5631 16.3954C19.0947 17.2027 20.9259 17.2027 22.4576 16.3954Z" fill="black"/>
</svg>
