<svg width="32" height="32" viewBox="0 0 32 32" fill="none" xmlns="http://www.w3.org/2000/svg">
<mask id="mask0_21_92" style="mask-type:alpha" maskUnits="userSpaceOnUse" x="4" y="4" width="24" height="24">
<circle cx="16" cy="16" r="12" fill="#D9D9D9"/>
</mask>
<g mask="url(#mask0_21_92)">
<path d="M16 4C22.6273 4.00017 28 9.3727 28 16C28 19.5362 26.4678 22.7126 24.0341 24.9087C23.9744 24.9627 23.9435 25.0416 23.9506 25.1218C23.9753 25.402 23.9893 25.6909 23.9893 25.9893C23.9893 28.7506 23.5121 30.9893 17.9893 30.9893C12.4665 30.9893 7.98926 28.7506 7.98926 25.9893C7.98926 25.714 8.02337 25.4526 8.08342 25.2027C8.10611 25.1083 8.07706 25.0082 8.00468 24.9435C5.54825 22.7462 4 19.5551 4 16C4 9.3726 9.3726 4 16 4ZM16 6C10.4772 6 6 10.4772 6 16C6 18.7716 7.12938 21.2777 8.95096 23.0888C9.05267 23.1899 9.21833 23.1802 9.314 23.0733C10.4786 21.7724 11.9893 20.7564 11.9893 19.4893C11.9892 17.999 9.98926 17.2563 9.98926 14.4893C9.9893 10.716 15.7625 8.49896 18.1689 6.61434C18.325 6.49205 18.2653 6.2549 18.0712 6.21408C17.403 6.07353 16.7101 6.00003 16 6ZM20.0609 6.86118C19.923 6.79979 19.7648 6.87909 19.7179 7.02261C18.9993 9.22136 16.9893 10.3271 16.9893 11.9893C16.9893 16.1411 21.4586 18.1386 23.2545 22.3369C23.328 22.5088 23.5561 22.5517 23.676 22.4082C25.1264 20.6728 26 18.4386 26 16C26 11.9234 23.5596 8.4182 20.0609 6.86118Z" fill="black"/>
</g>
</svg>
