<svg width="32" height="32" viewBox="0 0 32 32" fill="none" xmlns="http://www.w3.org/2000/svg">
<path fill-rule="evenodd" clip-rule="evenodd" d="M16 4C22.6273 4.00017 28 9.3727 28 16C28 16.1928 27.9953 16.3846 27.9863 16.5752C27.9829 16.6477 27.9774 16.7199 27.9727 16.792C27.962 16.955 27.9487 17.1171 27.9316 17.2783C27.8511 18.0388 27.6993 18.7779 27.4834 19.4893C27.4644 19.5518 27.4438 19.6137 27.4238 19.6758C27.3851 19.7962 27.3441 19.9155 27.3018 20.0342C27.2779 20.1009 27.2535 20.1673 27.2285 20.2334C27.1867 20.3442 27.1436 20.4543 27.0986 20.5635C27.0687 20.6361 27.0382 20.7084 27.0068 20.7803C26.9633 20.8803 26.9182 20.9795 26.8721 21.0781C26.8323 21.163 26.7917 21.2473 26.75 21.3311C26.706 21.4195 26.6613 21.5075 26.6152 21.5947C26.5584 21.7022 26.4995 21.8085 26.4395 21.9141C26.4086 21.9685 26.3784 22.0233 26.3467 22.0771C25.7228 23.1357 24.9411 24.0908 24.0342 24.9092C24.0295 24.9134 24.0258 24.9184 24.0215 24.9229C21.8958 26.8351 19.0843 28 16 28C12.9321 28 10.1344 26.8472 8.0127 24.9531C8.00976 24.9502 8.00798 24.9461 8.00488 24.9434C7.33289 24.3423 6.72901 23.6666 6.20605 22.9297C6.18323 22.8975 6.16021 22.8654 6.1377 22.833C5.97228 22.595 5.81519 22.3507 5.66699 22.1006C5.63737 22.0505 5.60899 21.9997 5.58008 21.9492C5.51429 21.8344 5.44976 21.7187 5.3877 21.6016C5.24599 21.3337 5.11469 21.0597 4.99316 20.7803C4.96267 20.7103 4.93251 20.64 4.90332 20.5693C4.85188 20.4445 4.80122 20.3193 4.75391 20.1924C4.73889 20.1522 4.72456 20.1117 4.70996 20.0713C4.31328 18.9714 4.07136 17.7975 4.01367 16.5752C4.00466 16.3846 4 16.1928 4 16C4 9.3726 9.3726 4 16 4ZM16 6C10.4772 6 6 10.4772 6 16C6 18.7716 7.1296 21.2778 8.95117 23.0889C9.0529 23.1898 9.21883 23.1801 9.31445 23.0732C10.479 21.7725 11.9893 20.7563 11.9893 19.4893C11.9892 17.999 9.98926 17.2563 9.98926 14.4893C9.9893 10.716 15.7626 8.49888 18.1689 6.61426C18.325 6.49195 18.2653 6.2547 18.0713 6.21387C17.403 6.07332 16.7101 6.00003 16 6ZM20.0605 6.86133C19.9227 6.80016 19.7647 6.87909 19.7178 7.02246C18.9993 9.22121 16.9893 10.3271 16.9893 11.9893C16.9893 16.1411 21.459 18.1386 23.2549 22.3369C23.3285 22.5087 23.5559 22.5515 23.6758 22.4082C25.1262 20.6728 26 18.4386 26 16C26 11.9234 23.5593 8.41835 20.0605 6.86133Z" fill="black"/>
</svg>
