<svg width="32" height="32" viewBox="0 0 32 32" fill="none" xmlns="http://www.w3.org/2000/svg">
<path fill-rule="evenodd" clip-rule="evenodd" d="M16.0075 28V28C9.38011 28 4.00751 22.6274 4.00751 16C4.00751 9.3726 9.38011 4 16.0075 4C22.6349 4 28.0075 9.3726 28.0075 16V16C28.0075 22.6274 22.6349 28 16.0075 28V28ZM16.0075 7V7C11.0369 7 7.00751 11.0294 7.00751 16C7.00751 20.9706 11.0369 25 16.0075 25C20.9781 25 25.0075 20.9706 25.0075 16V16C25.0075 11.0294 20.9781 7 16.0075 7V7ZM16.0075 23V23C12.1415 23 9.00751 19.866 9.00751 16C9.00751 12.134 12.1415 9 16.0075 9C19.8735 9 23.0075 12.134 23.0075 16V16C23.0075 19.866 19.8735 23 16.0075 23V23ZM16.0075 12V12C13.7984 12 12.0075 13.7909 12.0075 16C12.0075 18.2091 13.7984 20 16.0075 20C18.2166 20 20.0075 18.2091 20.0075 16V16C20.0075 13.7909 18.2166 12 16.0075 12V12ZM16.0075 18V18C14.9029 18 14.0075 17.1046 14.0075 16C14.0075 14.8954 14.9029 14 16.0075 14C17.1121 14 18.0075 14.8954 18.0075 16V16C18.0075 17.1046 17.1121 18 16.0075 18V18Z" fill="black"/>
</svg>
