<svg width="32" height="32" viewBox="0 0 32 32" fill="none" xmlns="http://www.w3.org/2000/svg">
<path fill-rule="evenodd" clip-rule="evenodd" d="M26.38 20.8368L27.6225 21.1475V21.1475C27.845 21.2031 28.0012 21.4031 28.0012 21.6325V22.3517V22.3517C28.0012 22.5811 27.8451 22.781 27.6225 22.8367L26.38 23.1473V23.1473C26.1575 23.2029 26.0013 23.4029 26.0012 23.6323V23.9919C26.0012 25.0965 25.1058 25.9919 24.0012 25.9919H23.6415V25.9919C23.4121 25.992 23.2121 26.1481 23.1565 26.3707L22.8459 27.6132V27.6132C22.7902 27.8357 22.5903 27.9919 22.3609 27.9919H21.6415V27.9919C21.4121 27.9919 21.2121 27.8357 21.1565 27.6132L20.8458 26.3707V26.3707C20.7902 26.1481 20.5902 25.992 20.3608 25.9919H19.6415V25.9919C19.4121 25.992 19.2121 26.1481 19.1565 26.3707L18.8458 27.6132V27.6132C18.7902 27.8357 18.5902 27.9919 18.3608 27.9919H17.6415V27.9919C17.4121 27.9919 17.2121 27.8357 17.1565 27.6132L16.8458 26.3707V26.3707C16.7902 26.1481 16.5902 25.992 16.3608 25.9919H15.6415V25.9919C15.4121 25.992 15.2121 26.1481 15.1565 26.3707L14.8458 27.6132V27.6132C14.7902 27.8357 14.5902 27.9919 14.3608 27.9919H13.6415V27.9919C13.4121 27.9919 13.2121 27.8357 13.1565 27.6132L12.8458 26.3707V26.3707C12.7902 26.1481 12.5902 25.992 12.3608 25.9919H11.6415V25.9919C11.4121 25.992 11.2121 26.1481 11.1565 26.3707L10.8458 27.6132V27.6132C10.7902 27.8357 10.5902 27.9919 10.3608 27.9919H9.64148V27.9919C9.41207 27.9919 9.21211 27.8357 9.15648 27.6132L8.84583 26.3707V26.3707C8.7902 26.1481 8.59024 25.992 8.36083 25.9919H8.00123V25.9919C6.89666 25.9919 6.00123 25.0965 6.00123 23.9919V23.6323V23.6324C6.00123 23.403 5.84513 23.203 5.62259 23.1473L4.37998 22.8368V22.8368C4.1574 22.7812 4.00122 22.5813 4.00118 22.3518V21.6325V21.6326C4.00118 21.4032 4.15732 21.2032 4.3799 21.1476L5.6224 20.8369V20.8369C5.84494 20.7813 6.00107 20.5813 6.0011 20.3519V19.6325V19.6326C6.0011 19.4032 5.845 19.2032 5.62246 19.1476L4.37998 18.8368V18.8368C4.1574 18.7812 4.00122 18.5813 4.00118 18.3518V17.6325V17.6326C4.00118 17.4032 4.15732 17.2032 4.3799 17.1476L5.6224 16.8369V16.8369C5.84494 16.7813 6.00107 16.5813 6.0011 16.3519V15.6325V15.6326C6.0011 15.4032 5.845 15.2032 5.62246 15.1476L4.37998 14.8368V14.8368C4.1574 14.7812 4.00123 14.5813 4.00118 14.3518V13.6325V13.6326C4.00118 13.4032 4.15732 13.2032 4.3799 13.1476L5.6224 12.8369V12.8369C5.84494 12.7813 6.00107 12.5813 6.0011 12.3519V11.6325V11.6326C6.0011 11.4032 5.845 11.2032 5.62246 11.1476L4.37999 10.8368V10.8368C4.1574 10.7812 4.00123 10.5813 4.00119 10.3518V9.63254V9.63263C4.00119 9.4032 4.15732 9.20321 4.3799 9.14756L5.6224 8.83691V8.83691C5.84495 8.78126 6.00107 8.58131 6.0011 8.35191V7.99231V7.99231C6.0011 6.88774 6.89653 5.99231 8.0011 5.99231H8.3607V5.99231C8.59013 5.99227 8.79009 5.83609 8.8457 5.61351L9.15635 4.37106V4.37106C9.21198 4.14849 9.41194 3.99234 9.64135 3.99231H10.3606V3.99231C10.59 3.99234 10.79 4.14849 10.8456 4.37106L11.1563 5.61351V5.61351C11.2119 5.83609 11.4118 5.99227 11.6412 5.99231H12.3605V5.99231C12.5899 5.99227 12.7899 5.83609 12.8455 5.61351L13.1562 4.37106V4.37106C13.2118 4.14849 13.4117 3.99234 13.6411 3.99231H14.3604V3.99231C14.5898 3.99234 14.7898 4.14849 14.8454 4.37106L15.156 5.61351V5.61351C15.2117 5.83609 15.4116 5.99227 15.641 5.99231H16.3603V5.99231C16.5897 5.99227 16.7897 5.83609 16.8453 5.61351L17.1559 4.37106V4.37106C17.2116 4.14849 17.4115 3.99234 17.6409 3.99231H18.3602V3.99231C18.5896 3.99234 18.7896 4.14849 18.8452 4.37106L19.1558 5.61351V5.61351C19.2115 5.83609 19.4114 5.99227 19.6408 5.99231H20.3601V5.99231C20.5895 5.99227 20.7895 5.83609 20.8451 5.61351L21.1557 4.37106V4.37106C21.2114 4.14849 21.4113 3.99234 21.6407 3.99231H22.36V3.99231C22.5894 3.99234 22.7894 4.14849 22.845 4.37106L23.1556 5.61351V5.61351C23.2112 5.83609 23.4112 5.99227 23.6406 5.99231H24.0002V5.99231C25.1048 5.99231 26.0002 6.88774 26.0002 7.99231V8.35191V8.35182C26.0002 8.58125 26.1563 8.78124 26.3789 8.83689L27.6214 9.14754V9.14754C27.844 9.20319 28.0001 9.40314 28.0001 9.63254V10.3518V10.3517C28.0001 10.5811 27.844 10.7811 27.6215 10.8368L26.379 11.1474V11.1474C26.1564 11.203 26.0002 11.403 26.0002 11.6324V12.3517V12.3516C26.0002 12.581 26.1563 12.781 26.3789 12.8367L27.6214 13.1473V13.1473C27.8439 13.203 28.0001 13.4029 28.0001 13.6323V14.3516V14.3515C28.0001 14.5809 27.844 14.7809 27.6215 14.8365L26.379 15.1472V15.1472C26.1564 15.2028 26.0002 15.4028 26.0001 15.6322V16.3514V16.3513C26.0001 16.5808 26.1563 16.7808 26.3789 16.8364L27.6214 17.1471V17.1471C27.8439 17.2027 28 17.4027 28.0001 17.6321V18.3513V18.3513C28.0001 18.5806 27.844 18.7806 27.6214 18.8363L26.3789 19.1469V19.1469C26.1563 19.2026 26.0002 19.4025 26.0001 19.632V20.3512V20.3512C26 20.5812 26.1567 20.7816 26.38 20.8368H26.38ZM24.0011 9.49214C24.0011 8.66371 23.3295 7.99214 22.5011 7.99214H9.50108V7.99214C8.67266 7.99214 8.00108 8.66371 8.00108 9.49214V9.49214V22.4921V22.4921C8.00108 23.3206 8.67266 23.9921 9.50108 23.9921H22.5011V23.9921C23.3295 23.9921 24.0011 23.3206 24.0011 22.4921V9.49214ZM22.5011 22.9921H9.50108V22.9921C9.22494 22.9921 9.00108 22.7683 9.00108 22.4921V9.49214V9.49214C9.00108 9.21599 9.22494 8.99214 9.50108 8.99214H22.5011V8.99214C22.7772 8.99214 23.0011 9.21599 23.0011 9.49214V22.4921V22.4921C23.0011 22.7683 22.7772 22.9921 22.5011 22.9921V22.9921ZM12.5011 10.9921V10.9921C11.6727 10.9921 11.0011 11.6637 11.0011 12.4921C11.0011 13.3206 11.6727 13.9921 12.5011 13.9921C13.3295 13.9921 14.0011 13.3206 14.0011 12.4921V12.4922C14.0011 11.6638 13.3295 10.9922 12.5011 10.9922L12.5011 10.9921Z" fill="black"/>
</svg>
