<svg width="32" height="32" viewBox="0 0 32 32" fill="none" xmlns="http://www.w3.org/2000/svg">
<path fill-rule="evenodd" clip-rule="evenodd" d="M26.9859 21.4772V21.4772C26.9926 21.7572 26.7709 21.9896 26.4909 21.9962C26.4408 21.9974 26.3908 21.9911 26.3425 21.9776H26.3425C25.6646 21.7994 25.0372 21.4665 24.5096 21.0051C22.2796 22.8673 19.932 21.8405 18.997 20.0041V20.0041C18.1118 20.6086 17.076 20.9551 16.0053 21.0051V21.0051C14.93 20.9535 13.8895 20.6072 12.9976 20.0041C9.89642 23.3113 8.87832 21.5051 6.50037 21.5051V21.5051C6.2321 21.4795 6.02571 21.2567 6.02072 20.9873C5.91447 18.7854 2.77792 17.9045 4.49932 14.5091C4.49932 14.5091 4.32572 13.9519 3.23142 13.2853V13.2853C2.9983 13.1378 2.92889 12.8293 3.07639 12.5962C3.09782 12.5623 3.12325 12.5311 3.15212 12.5033C4.92437 10.7805 4.61807 8.01278 8.00152 8.01278C8.04537 5.39383 10.9907 3.61278 14.0044 5.01433C15.7044 1.82933 21.4774 2.63643 22.5084 6.01383C24.5944 6.01383 24.7016 7.79313 26.7671 7.90273V7.90273C27.0363 7.91534 27.2486 8.1361 27.2508 8.40553C27.2868 10.5711 29.4394 10.8512 28.0113 14.0094C30.7087 17.9335 26.9706 18.2758 26.9859 21.4772L26.9859 21.4772ZM13.9929 21.9678V21.9678C13.9929 21.8297 14.1049 21.7178 14.2429 21.7178C14.266 21.7178 14.2889 21.721 14.311 21.7272H14.311C14.8584 21.9047 15.4297 21.9979 16.0051 22.0036V22.0036C16.5755 21.9978 17.1417 21.9043 17.6837 21.7265V21.7265C17.8164 21.6885 17.9548 21.7653 17.9928 21.8981C17.9992 21.9203 18.0024 21.9434 18.0025 21.9665C18.0588 25.5095 18.7402 26.9365 18.9708 27.4858V27.4858C19.0462 27.6807 18.9493 27.8998 18.7544 27.9751C18.7046 27.9944 18.6513 28.0029 18.5979 28.0001H13.3975V28.0001C13.1887 28.011 13.0106 27.8507 12.9997 27.6419C12.9969 27.5888 13.0053 27.5357 13.0245 27.486C13.255 26.9368 13.9364 25.5101 13.9929 21.9678V21.9678Z" fill="black"/>
</svg>
