<svg width="32" height="32" viewBox="0 0 32 32" fill="none" xmlns="http://www.w3.org/2000/svg">
<path fill-rule="evenodd" clip-rule="evenodd" d="M25.5 11.5C25.5 6.33965 21.9817 3 16 3C10.0183 3 6.5 6.33965 6.5 11.5C6.5 14.6688 8 15.7931 8 16.5C8 17.2069 7.5 17.9516 7.5 18.5C7.5 19.4632 7.9982 19.9218 11.2886 20.4656C11.4096 20.4866 11.4987 20.5906 11.5009 20.7134C11.5268 23.4944 12.1015 24 16 24C19.8985 24 20.4733 23.4944 20.4991 20.7134C20.5013 20.5906 20.5903 20.4866 20.7113 20.4656C24.0019 19.9218 24.5 19.4632 24.5 18.5C24.5 17.9516 24 17.2069 24 16.5C24 15.7931 25.5 14.6688 25.5 11.5ZM11.25 17.5C9.81095 17.5 9.5 15.8334 9.5 14.75C9.5 13.6666 10.9683 13 12.75 13C14.189 13 14.5 14.6666 14.5 15.75C14.5 16.8334 13.0317 17.5 11.25 17.5ZM16.8889 21.5C16.3281 21.5 16.3906 20.5 16 20.5C15.6093 20.5 15.6719 21.5 15.1111 21.5C14.7656 21.5 14.5 21.25 14.5 20.6661C14.5 19.6562 15.1042 17.5 16 17.5C16.8958 17.5 17.5 19.6562 17.5 20.6661C17.5 21.25 17.2344 21.5 16.8889 21.5ZM20.75 17.5C18.9684 17.5 17.5 16.8334 17.5 15.75C17.5 14.6666 17.8109 13 19.25 13C21.0317 13 22.5 13.6666 22.5 14.75C22.5 15.8334 22.1891 17.5 20.75 17.5ZM22.25 21.0371C21.595 21.1852 21.5 21.4453 21.5 22.0117V24C21.5 24.7066 21.2842 25.5 21 25.5C20.7158 25.5 20.9732 24 20.5 24C20.198 24 19.5397 25 16 25C12.4603 25 11.8019 24 11.5 24C11.0268 24 11.2842 25.5 11 25.5C10.7158 25.5 10.5 24.7066 10.5 24V22.0117C10.5 21.4453 10.405 21.1852 9.75 21.0371C9.2031 20.9135 9 21.0932 9 21.6367V24C9 26.18 11.6019 29 16 29C20.3981 29 23 26.18 23 24V21.6367C23 21.0932 22.7969 20.9135 22.25 21.0371Z" fill="black"/>
</svg>
