<svg width="32" height="32" viewBox="0 0 32 32" fill="none" xmlns="http://www.w3.org/2000/svg">
<path fill-rule="evenodd" clip-rule="evenodd" d="M27.5032 26.004H4.51165V26.004C3.68298 26.0035 3.01161 25.3313 3.01211 24.5026C3.01228 24.229 3.08725 23.9607 3.22891 23.7266L14.7247 4.72124V4.72124C15.1529 4.01281 16.0743 3.78565 16.7827 4.21387C16.9904 4.33942 17.1646 4.51353 17.2901 4.72124L28.7859 23.7266H28.7859C29.215 24.4356 28.9881 25.3581 28.2792 25.7872C28.0451 25.9289 27.7768 26.0038 27.5032 26.004L27.5032 26.004ZM16.0074 24.0104V24.0104C16.8358 24.0104 17.5074 23.3388 17.5074 22.5104C17.5074 21.682 16.8358 21.0104 16.0074 21.0104C15.1789 21.0104 14.5074 21.682 14.5074 22.5104V22.5104C14.5074 23.3388 15.1789 24.0104 16.0074 24.0104C16.0074 24.0104 16.0074 24.0104 16.0074 24.0104V24.0104ZM17.0066 10.0104H15.0172H15.0172C14.7383 10.0071 14.5095 10.2306 14.5063 10.5095C14.5062 10.5185 14.5063 10.5276 14.5067 10.5367L14.9641 19.0367V19.0367C14.9814 19.3051 15.2056 19.5132 15.4746 19.5104H16.5492V19.5104C16.8182 19.5131 17.0423 19.3051 17.0598 19.0367L17.5171 10.5367V10.5367C17.5289 10.258 17.3125 10.0226 17.0338 10.0109C17.0248 10.0105 17.0157 10.0103 17.0066 10.0104V10.0104Z" fill="black"/>
</svg>
