<svg width="32" height="32" viewBox="0 0 32 32" fill="none" xmlns="http://www.w3.org/2000/svg">
<path fill-rule="evenodd" clip-rule="evenodd" d="M24.505 10.0103H7.50499V10.0103C6.9527 10.0103 6.50499 9.56262 6.50499 9.01033V8.01033V8.01033C6.50499 7.45805 6.9527 7.01033 7.50499 7.01033H10.505C10.505 5.54463 10.8127 4.68903 11.4973 4.00428C12.1819 3.31953 13.0353 3.01158 14.5004 3.01158H17.51C18.975 3.01158 19.8285 3.31943 20.513 4.00428C21.1975 4.68913 21.505 5.54463 21.505 7.01033H24.505V7.01033C25.0573 7.01033 25.505 7.45805 25.505 8.01033V8.01033V9.01033V9.01033C25.505 9.56262 25.0573 10.0103 24.505 10.0103C24.505 10.0103 24.505 10.0103 24.505 10.0103V10.0103ZM19.0088 5.50733V5.50733C18.6029 5.13383 18.0558 4.953 17.5072 5.01093H14.5029V5.01093C13.9543 4.95302 13.4073 5.13386 13.0014 5.50733V5.50733C12.628 5.91394 12.4473 6.46135 12.5052 7.01033H19.5052V7.01033C19.5632 6.46135 19.3825 5.91394 19.0091 5.50733H19.0088ZM23.5001 11.0103V11.0103C23.7766 11.0097 24.0013 11.2334 24.0019 11.51C24.0019 11.5205 24.0016 11.531 24.0009 11.5415L23.1191 25.6039V25.6039C23.068 26.3959 22.41 27.0117 21.6163 27.0103H10.3927H10.3927C9.59911 27.0117 8.94115 26.3959 8.88999 25.6039L8.00784 11.5415V11.5415C7.99111 11.2654 8.20139 11.028 8.47752 11.0112C8.48793 11.0106 8.49836 11.0103 8.50879 11.0103L23.5001 11.0103Z" fill="black"/>
</svg>
