<svg width="32" height="32" viewBox="0 0 32 32" fill="none" xmlns="http://www.w3.org/2000/svg">
<path fill-rule="evenodd" clip-rule="evenodd" d="M16.005 28.0089H16.005C11.0347 28.0091 7.0052 23.98 7.005 19.0097C7.005 13.1432 13.4977 5.33361 15.4538 3.24541V3.24541C15.7396 2.94097 16.2181 2.92589 16.5226 3.21171C16.5341 3.22259 16.5454 3.23382 16.5563 3.24541C18.5127 5.33361 25.005 13.1432 25.005 19.0097V19.0093C25.005 23.9796 20.9757 28.0089 16.0054 28.0089C16.0054 28.0089 16.0054 28.0089 16.0054 28.0089H16.005ZM14.4946 7.85851L14.4946 7.85851C13.0652 11.2418 12.2233 14.8442 12.005 18.5105V18.5105C11.9982 18.7838 11.7783 19.0037 11.505 19.0105H10.005V19.0105C9.73902 19.0207 9.51517 18.8133 9.505 18.5473C9.50454 18.535 9.50454 18.5228 9.505 18.5105C9.70845 15.2198 12.0111 10.3797 14.0293 7.63011C14.2126 7.38076 14.6197 7.57856 14.4946 7.85851L14.4946 7.85851Z" fill="black"/>
</svg>
