<svg width="32" height="32" viewBox="0 0 32 32" fill="none" xmlns="http://www.w3.org/2000/svg">
<path fill-rule="evenodd" clip-rule="evenodd" d="M26.74 25.3486L24.56 25.953V25.953C23.9325 26.1323 23.261 25.8855 22.899 25.3425L19.3173 20.0016H14.4981V20.0016C13.117 20.001 11.998 18.8809 11.9986 17.4999C11.9987 17.2611 12.033 17.0236 12.1005 16.7945L13.6583 11.4986H10.9379L9.14041 14.7454V14.7454C9.00872 14.9759 8.71985 15.0633 8.48245 14.9445L8.27891 14.8428V14.8428C8.06247 14.7347 7.95451 14.4871 8.02255 14.2549L9.2307 10.0768V10.0768C9.41799 9.43712 10.0047 8.9976 10.6712 8.99761H15.4919V8.99761C16.8729 8.99825 17.9919 10.1183 17.9913 11.4993C17.9912 11.7381 17.9569 11.9757 17.8894 12.2047L16.6259 16.5004L20.8519 17.6684V17.6684C21.5816 17.8786 22.1763 18.409 22.4684 19.1101L24.5074 24.003H26.515V24.003C26.6938 24.0031 26.8478 24.1294 26.8829 24.3048L27.0048 24.9142V24.9142C27.0432 25.1059 26.928 25.295 26.74 25.3486H26.74ZM17.0038 7.99726V7.99726C15.6226 7.99715 14.5029 6.87735 14.5031 5.49611C14.5032 4.11488 15.623 2.99525 17.0042 2.99536C18.3854 2.99547 19.505 4.11515 19.505 5.49631V5.49616C19.505 6.87744 18.3852 7.99721 17.004 7.99726H17.0038ZM11.5446 15.1166C11.4152 15.5704 11.2542 16.1374 11.1462 16.5299V16.5299C11.0767 16.8023 10.9287 17.0484 10.7206 17.2374H10.7206C8.63528 19.0472 8.412 22.2048 10.2219 24.2901C12.0317 26.3754 15.1893 26.5987 17.2746 24.7888C18.0242 24.1383 18.5631 23.2793 18.8229 22.3214V22.3214C18.8809 22.0985 19.1088 21.9648 19.3317 22.0229C19.4303 22.0486 19.5161 22.1095 19.5729 22.1941L20.2784 23.2457V23.2457C20.4241 23.4575 20.4492 23.7298 20.3446 23.9646V23.9646C18.712 27.4695 14.5473 28.9874 11.0423 27.3548C7.53738 25.7222 6.01955 21.5575 7.6521 18.0526C8.34529 16.5644 9.53945 15.3671 11.0258 14.67V14.67C11.2155 14.5839 11.4391 14.6678 11.5252 14.8574C11.5622 14.9388 11.569 15.0306 11.5446 15.1166L11.5446 15.1166Z" fill="black"/>
</svg>
