<svg width="32" height="32" viewBox="0 0 32 32" fill="none" xmlns="http://www.w3.org/2000/svg">
<path fill-rule="evenodd" clip-rule="evenodd" d="M26.0014 14H26.7498V14C26.8878 14 26.9998 14.1119 26.9998 14.25V26C26.9998 26.5523 26.552 27 25.9998 27H14.0038V27C13.4515 27 13.0038 26.5523 13.0038 26V26V14.25V14.25C13.0038 14.1119 13.1157 14 13.2538 14H14.0007H14.0006C14.2768 14 14.5006 13.7761 14.5006 13.5C14.5006 13.2238 14.2768 13 14.0006 13H13.2489V13C13.1129 12.9994 13.0028 12.8894 13.002 12.7535C12.9607 10.001 12.2319 7.56059 11.1142 5.96084V5.96084C10.9222 5.68182 10.9928 5.3 11.2718 5.10802C11.375 5.03705 11.4974 4.99935 11.6226 4.99999H23.0009C25.1666 4.99999 26.93 8.44384 26.9977 12.7433V12.7433C26.999 12.8838 26.8862 12.9987 26.7457 13C26.7454 13 26.745 13 26.7447 13H26.0014V13C25.7252 13 25.5014 13.2238 25.5014 13.5C25.5014 13.7761 25.7252 14 26.0014 14V14ZM18.5009 13H17.0009V13C16.7248 13 16.5009 13.2238 16.5009 13.5C16.5009 13.7761 16.7248 14 17.0009 14H18.5009V14C18.777 14 19.0009 13.7761 19.0009 13.5C19.0009 13.2238 18.777 13 18.5009 13V13ZM23.0009 13H21.5009V13C21.2248 13 21.0009 13.2238 21.0009 13.5C21.0009 13.7761 21.2248 14 21.5009 14H23.0009V14C23.277 14 23.5009 13.7761 23.5009 13.5C23.5009 13.2238 23.277 13 23.0009 13V13ZM8.0003 21C5.79105 21 4 17.4183 4 13C4 8.58164 5.79105 4.99999 8.0003 4.99999C10.2096 4.99999 12.0003 8.58169 12.0003 13C12.0003 17.4183 10.2095 21 8.0003 21ZM8.0003 9.99999C7.1718 9.99999 6.5003 11.3431 6.5003 13C6.5003 14.6568 7.1719 16 8.0003 16C8.8287 16 9.5003 14.6568 9.5003 13C9.5003 11.3431 8.82875 9.99999 8.0003 9.99999ZM11.6597 19.1096V19.1096C11.7039 19.0205 11.8119 18.9841 11.9009 19.0283C11.9615 19.0583 12.0001 19.1197 12.0009 19.1872V20.7472V20.7472C12.0003 20.8849 11.8882 20.9961 11.7506 20.9955H10.65V20.9955C10.5666 20.9961 10.4985 20.929 10.4979 20.8456C10.4977 20.8053 10.5135 20.7666 10.542 20.738V20.738C10.9879 20.2494 11.364 19.7014 11.6597 19.1096L11.6597 19.1096Z" fill="black"/>
</svg>
