<svg width="32" height="32" viewBox="0 0 32 32" fill="none" xmlns="http://www.w3.org/2000/svg">
<path fill-rule="evenodd" clip-rule="evenodd" d="M24.4939 27.2627L20.1551 22.135V22.135C15.9299 25.2696 9.9635 24.3854 6.8289 20.1602C3.69428 15.9349 4.57842 9.96859 8.80367 6.83399C13.0289 3.69937 18.9953 4.58351 22.1299 8.80876C24.6308 12.1798 24.6305 16.7905 22.1292 20.1612L27.2576 24.4991V24.4991C28.0811 25.2019 28.179 26.4392 27.4762 27.2627C26.7734 28.0862 25.5361 28.1841 24.7126 27.4813C24.6341 27.4143 24.561 27.3412 24.494 27.2627L24.4939 27.2627ZM14.5051 7.01036V7.01036C10.363 7.01036 7.0051 10.3682 7.0051 14.5104C7.0051 18.6525 10.363 22.0104 14.5051 22.0104C18.6472 22.0104 22.0051 18.6525 22.0051 14.5104V14.5104C22.0051 10.3682 18.6472 7.01036 14.5051 7.01036V7.01036ZM15.5051 15.5104V18.5104C15.5051 19.0626 15.0574 19.5104 14.5051 19.5104C13.9528 19.5104 13.5051 19.0626 13.5051 18.5104V15.5104H10.5051V15.5104C9.95281 15.5104 9.5051 15.0626 9.5051 14.5104C9.5051 13.9581 9.95281 13.5104 10.5051 13.5104H13.5051V10.5104V10.5104C13.5051 9.95807 13.9528 9.51036 14.5051 9.51036C15.0574 9.51036 15.5051 9.95807 15.5051 10.5104V13.5104H18.5051V13.5104C19.0574 13.5104 19.5051 13.9581 19.5051 14.5104C19.5051 15.0626 19.0574 15.5104 18.5051 15.5104H15.5051Z" fill="black"/>
</svg>
